<svg width="56" height="56" viewBox="0 0 56 56" fill="none" xmlns="http://www.w3.org/2000/svg">
<path d="M0 28C0 12.536 12.536 0 28 0C43.464 0 56 12.536 56 28C56 43.464 43.464 56 28 56C12.536 56 0 43.464 0 28Z" fill="#1F4C60"/>
<g clip-path="url(#clip0_14_148)">
<g clip-path="url(#clip1_14_148)">
<path fill-rule="evenodd" clip-rule="evenodd" d="M34.3839 30.7789C34.0374 30.6051 32.3329 29.7674 32.0156 29.6508C31.6971 29.5353 31.4661 29.4781 31.2339 29.8258C31.0041 30.1723 30.3391 30.9528 30.1372 31.1838C29.9354 31.4159 29.7324 31.4439 29.3859 31.2713C29.0394 31.0963 27.9217 30.7311 26.5976 29.5504C25.5674 28.6311 24.8709 27.4959 24.6691 27.1483C24.4672 26.8018 24.6481 26.6139 24.8207 26.4413C24.9771 26.2861 25.1684 26.0364 25.3411 25.8346C25.5149 25.6316 25.5721 25.4869 25.6887 25.2548C25.8042 25.0238 25.7471 24.8219 25.6596 24.6481C25.5721 24.4743 24.8791 22.7674 24.5909 22.0733C24.3086 21.3978 24.0227 21.4899 23.8104 21.4783C23.6086 21.4689 23.3776 21.4666 23.1454 21.4666C22.9144 21.4666 22.5387 21.5529 22.2214 21.9006C21.9041 22.2471 21.0081 23.0859 21.0081 24.7928C21.0081 26.4984 22.2506 28.1469 22.4232 28.3791C22.5971 28.6101 24.8686 32.1124 28.3464 33.6139C29.1736 33.9709 29.8187 34.1844 30.3227 34.3431C31.1534 34.6079 31.9094 34.5706 32.5056 34.4808C33.1717 34.3816 34.5566 33.6419 34.8459 32.8323C35.1352 32.0226 35.1352 31.3284 35.0477 31.1838C34.9614 31.0391 34.7316 30.9528 34.3839 30.7789ZM28.0582 39.4158H28.0536C25.9883 39.4159 23.961 38.8607 22.1841 37.8081L21.7629 37.5584L17.3984 38.7041L18.5627 34.4481L18.2886 34.0118C17.1341 32.1733 16.5233 30.0459 16.5269 27.8751C16.5281 21.5168 21.7022 16.3438 28.0629 16.3438C31.1429 16.3438 34.0386 17.5454 36.2156 19.7248C37.2897 20.7941 38.141 22.0659 38.7204 23.4665C39.2998 24.8671 39.5955 26.3687 39.5907 27.8844C39.5872 34.2428 34.4142 39.4158 28.0582 39.4158ZM37.8734 18.0693C36.588 16.7753 35.0585 15.7494 33.3737 15.0509C31.6889 14.3523 29.8821 13.9951 28.0582 13.9999C20.4107 13.9999 14.1866 20.2241 14.1831 27.8739C14.1831 30.3193 14.8212 32.7063 16.0357 34.8098L14.0664 41.9999L21.4222 40.0703C23.4564 41.1785 25.7359 41.7593 28.0524 41.7596H28.0582C35.7046 41.7596 41.9299 35.5354 41.9334 27.8844C41.939 26.0613 41.5832 24.255 40.8862 22.5703C40.1893 20.8856 39.1654 19.3557 37.8734 18.0693Z" fill="white"/>
</g>
</g>
<defs>
<clipPath id="clip0_14_148">
<rect width="28" height="28" fill="white" transform="translate(14 14)"/>
</clipPath>
<clipPath id="clip1_14_148">
<rect width="28" height="28" fill="white" transform="translate(14 14)"/>
</clipPath>
</defs>
</svg>
