<svg width="56" height="56" viewBox="0 0 56 56" fill="none" xmlns="http://www.w3.org/2000/svg">
<path d="M0 28C0 12.536 12.536 0 28 0C43.464 0 56 12.536 56 28C56 43.464 43.464 56 28 56C12.536 56 0 43.464 0 28Z" fill="#1F4C60"/>
<g clip-path="url(#clip0_14_153)">
<path fill-rule="evenodd" clip-rule="evenodd" d="M40.8998 36.5192H37.8428C36.6859 36.5192 36.3284 35.5989 34.2494 33.4919C32.4387 31.739 31.6376 31.5024 31.1924 31.5024C30.5683 31.5024 30.3896 31.6811 30.3896 32.5419V35.3027C30.3896 36.0458 30.1528 36.491 28.1932 36.491C24.9573 36.491 21.3639 34.5314 18.8415 30.8783C15.0412 25.5355 14 21.5267 14 20.6958C14 20.2506 14.1788 19.8351 15.0395 19.8351H18.0965C18.8678 19.8351 19.1658 20.191 19.4638 21.0218C20.9765 25.3865 23.5007 29.2166 24.5401 29.2166C24.9258 29.2166 25.1046 29.0378 25.1046 28.0597V23.5442C24.9854 21.4653 23.8863 21.2883 23.8863 20.5468C23.8863 20.1892 24.1843 19.8334 24.6576 19.8334H29.4675C30.1213 19.8334 30.358 20.1892 30.358 20.9605V27.0483C30.358 27.7003 30.6559 27.9388 30.833 27.9388C31.2186 27.9388 31.5464 27.7003 32.2581 26.9887C34.4562 24.5241 36.0285 20.7238 36.0285 20.7238C36.2371 20.2786 36.593 19.8632 37.366 19.8632H40.423C41.3433 19.8632 41.5519 20.3365 41.3433 20.9903C40.9577 22.773 37.217 28.0562 37.217 28.0562C36.8909 28.5908 36.7718 28.8274 37.217 29.4235C37.5431 29.8687 38.6123 30.789 39.3258 31.6199C40.6316 33.1046 41.6396 34.3508 41.9077 35.2132C42.2058 36.0722 41.7587 36.5174 40.8981 36.5174L40.8998 36.5192Z" fill="white"/>
</g>
<defs>
<clipPath id="clip0_14_153">
<rect width="28" height="28" fill="white" transform="translate(14 14)"/>
</clipPath>
</defs>
</svg>
