<svg width="181" height="180" viewBox="0 0 181 180" fill="none" xmlns="http://www.w3.org/2000/svg">
<g filter="url(#filter0_d_14_29)">
<path d="M40.75 82C40.75 54.3858 63.1358 32 90.75 32C118.364 32 140.75 54.3858 140.75 82C140.75 109.614 118.364 132 90.75 132C63.1358 132 40.75 109.614 40.75 82Z" fill="white"/>
<g clip-path="url(#clip0_14_29)">
<path d="M75.1686 80.05C75.0906 80.0496 75.0139 80.0298 74.9455 79.9923C74.877 79.9548 74.8191 79.9009 74.7768 79.8353C72.8146 76.7612 71.7261 72.4872 71.789 68.11C71.8405 64.5897 73.4511 62.7531 74.7458 61.2812C75.0995 60.895 75.4298 60.4881 75.7349 60.0625C76.9621 58.2531 78.4405 57.8837 80.3886 58.8962C81.0711 59.2506 81.7996 59.1709 82.6443 59.079C83.5246 58.9853 84.5193 58.8737 85.6443 59.2478C86.3886 59.4962 86.9005 59.9218 87.1658 60.5134C87.6065 61.4959 87.1658 62.5515 87.1424 62.5965C87.1098 62.6738 87.0568 62.7408 86.9891 62.7904C86.9214 62.8399 86.8415 62.8701 86.758 62.8778C85.5065 62.9903 84.133 63.1918 82.8299 63.4197C84.4096 63.3747 85.9143 63.3681 86.7674 63.459C86.8336 63.4669 86.8974 63.4887 86.9545 63.5232C87.0116 63.5576 87.0606 63.6039 87.0984 63.6588C87.1362 63.7137 87.1619 63.7761 87.1737 63.8417C87.1854 63.9073 87.1831 63.9747 87.1668 64.0393C87.1293 64.18 86.1871 67.4865 80.4027 68.4081C80.3872 68.4109 80.3716 68.4128 80.3558 68.4137C80.2621 68.4212 78.0121 68.6556 76.8477 73.1284C76.8149 73.2455 76.7375 73.3451 76.6321 73.4057C76.5267 73.4663 76.4017 73.4831 76.2841 73.4525C76.1664 73.4219 76.0654 73.3464 76.0029 73.2421C75.9403 73.1378 75.9212 73.0132 75.9496 72.895C77.2386 67.9356 79.9358 67.5212 80.2733 67.4893C84.0786 66.879 85.5233 65.2075 86.0249 64.3375C83.2761 64.2184 77.0868 64.6243 77.0193 64.629C76.9004 64.6425 76.781 64.6096 76.6859 64.5371C76.5907 64.4647 76.5272 64.3583 76.5086 64.2402C76.49 64.1221 76.5177 64.0013 76.5859 63.9031C76.6542 63.8049 76.7577 63.7368 76.8749 63.7131C76.9293 63.7 82.1952 62.395 86.369 61.9797C86.4346 61.7125 86.4936 61.2756 86.3174 60.8884C86.1627 60.5462 85.8374 60.2903 85.3518 60.1281C84.4218 59.8187 83.5705 59.9115 82.7455 60.0015C81.8352 60.1009 80.893 60.204 79.9611 59.7203C78.4133 58.9159 77.4768 59.1493 76.5036 60.5837C76.1773 61.0404 75.8235 61.4768 75.4443 61.8906C74.1871 63.3222 72.763 64.945 72.7171 68.125C72.6561 72.324 73.6921 76.4115 75.5624 79.3365C75.6055 79.4069 75.6293 79.4875 75.6312 79.57C75.6332 79.6526 75.6134 79.7342 75.5737 79.8066C75.534 79.879 75.4759 79.9396 75.4053 79.9823C75.3347 80.0251 75.254 80.0484 75.1715 80.05H75.1686Z" fill="#FF005A"/>
<path d="M98.5734 85.4303C98.4662 85.4247 98.3642 85.3824 98.2844 85.3105C98.2046 85.2387 98.152 85.1416 98.1352 85.0356C98.1184 84.9295 98.1385 84.8209 98.1921 84.728C98.2458 84.635 98.3297 84.5632 98.4299 84.5247C102.823 83.0978 105.99 80.6453 107.586 77.4325C109.073 74.4428 109.18 70.915 107.906 67.2325C106.941 64.451 105.257 62.575 102.898 61.6563C100.092 60.5641 96.8981 61.0994 95.1168 62.0594C93.4368 62.965 92.5481 64.4031 92.0821 65.7606C93.0196 64.6253 94.4943 63.4778 96.794 62.9135C99.0534 62.3585 101.135 62.9556 102.813 64.6413C105.25 67.091 106.126 71.1569 105.531 73.5194C105.009 75.6081 103 77.6631 100.404 78.7563C97.8327 79.84 95.1787 79.7744 93.1237 78.5753C89.5612 76.4997 85.4737 75.1656 80.9615 74.6097C79.3602 74.4128 78.2427 73.4585 77.7374 71.8506C77.5088 71.1067 77.4136 70.3281 77.4562 69.551C77.4592 69.4887 77.4747 69.4278 77.5018 69.3716C77.5288 69.3155 77.5669 69.2655 77.6138 69.2244C77.6606 69.1833 77.7153 69.1521 77.7744 69.1326C77.8336 69.1131 77.8961 69.1057 77.9582 69.1109C78.0202 69.116 78.0807 69.1337 78.1358 69.1627C78.1909 69.1917 78.2396 69.2315 78.2791 69.2797C78.3185 69.328 78.3478 69.3836 78.3652 69.4435C78.3827 69.5033 78.3879 69.566 78.3806 69.6278C78.3684 69.7825 78.119 73.3253 81.0702 73.6891C85.7081 74.26 89.9184 75.6335 93.5868 77.7738C95.3868 78.8238 97.739 78.8697 100.04 77.9003C102.372 76.9178 104.172 75.1094 104.627 73.2944C105.158 71.1681 104.288 67.4463 102.146 65.2956C101.156 64.2906 99.4481 63.2181 97.0143 63.8125C94.1877 64.5072 92.759 66.1656 92.0587 67.435C91.9829 67.5755 91.8595 67.6843 91.7108 67.742C91.562 67.7998 91.3975 67.8026 91.2468 67.75C91.0956 67.699 90.9679 67.5949 90.8874 67.457C90.807 67.3192 90.7791 67.1568 90.809 67C91.0734 65.4869 91.9256 62.726 94.6762 61.2438C96.6384 60.1853 100.154 59.5928 103.236 60.7928C105.821 61.7997 107.74 63.9213 108.783 66.9288C110.145 70.8522 110.018 74.6275 108.418 77.846C106.707 81.2866 103.356 83.9013 98.7168 85.4069C98.6706 85.4223 98.6221 85.4303 98.5734 85.4303Z" fill="#FF005A"/>
<path d="M103.375 105.665C103.158 105.663 102.943 105.621 102.741 105.543C102.283 105.373 101.946 105.135 101.736 104.835C101.564 104.589 101.22 104.546 100.956 104.587C100.581 104.645 99.8916 104.604 99.4641 103.668C99.3638 103.463 99.3111 103.237 99.3101 103.008C99.3092 102.779 99.3599 102.553 99.4585 102.347C99.9047 101.409 101.259 100.889 101.865 100.697C102.017 99.9297 102.348 97.6197 101.011 96.8238C100.466 96.4994 99.7922 96.2772 99.0047 96.0204C97.1579 95.4147 94.8619 94.6629 92.7666 92.0454C92.4929 91.7585 89.5791 88.6197 89.4366 84.911C89.4032 84.1886 89.4233 83.4648 89.4966 82.7454C89.4946 82.6783 89.5071 82.6116 89.5332 82.5497C89.5592 82.4879 89.5982 82.4323 89.6476 82.3869C89.6969 82.3414 89.7555 82.3071 89.8193 82.2862C89.883 82.2653 89.9505 82.2583 90.0172 82.2658C90.0839 82.2732 90.1482 82.2949 90.2058 82.3294C90.2634 82.3638 90.3129 82.4103 90.351 82.4655C90.3891 82.5207 90.4149 82.5835 90.4267 82.6496C90.4384 82.7157 90.4358 82.7835 90.4191 82.8485C90.3511 83.5222 90.3326 84.1999 90.3638 84.8763C90.4932 88.3244 93.42 91.3854 93.4491 91.4154L93.4791 91.4491C95.4038 93.8632 97.471 94.5429 99.2916 95.1382C100.093 95.4016 100.851 95.6491 101.483 96.026C103.688 97.3385 102.746 101.027 102.702 101.182C102.681 101.262 102.639 101.334 102.58 101.392C102.522 101.45 102.449 101.492 102.369 101.513C101.713 101.685 100.564 102.169 100.291 102.746C100.252 102.831 100.233 102.923 100.237 103.016C100.241 103.109 100.267 103.2 100.313 103.281C100.511 103.716 100.71 103.685 100.816 103.668C101.507 103.561 102.152 103.803 102.503 104.301C102.597 104.442 102.798 104.569 103.066 104.671C103.433 104.808 103.65 104.736 103.838 104.418C104.253 103.713 105.099 103.427 105.806 103.753C105.989 103.837 106.148 103.847 106.253 103.779C106.288 103.757 106.316 103.727 106.335 103.692C106.355 103.657 106.365 103.617 106.365 103.577C106.365 103.227 105.846 102.462 105.494 102.056C105.455 102.01 105.424 101.957 105.405 101.9C104.561 99.3944 102.773 95.1907 101.59 94.5879C100.58 94.0694 100.499 93.4441 100.428 92.8919C100.351 92.2976 100.271 91.6835 98.8388 90.7507C96.4538 89.1982 96.2879 88.945 96.3075 86.8825C96.3075 86.4625 96.3141 85.9394 96.2888 85.2888C96.2213 83.621 95.7263 82.5447 95.325 81.9344C95.2764 81.8323 95.2664 81.716 95.2968 81.6071C95.3272 81.4981 95.3959 81.4038 95.4904 81.3416C95.5848 81.2793 95.6986 81.2533 95.8107 81.2684C95.9228 81.2834 96.0257 81.3385 96.1004 81.4235C96.5691 82.1313 97.14 83.3697 97.216 85.2513C97.2432 85.9216 97.2385 86.4569 97.2357 86.8872C97.2282 87.7797 97.2357 88.1557 97.4419 88.481C97.6772 88.8485 98.221 89.2385 99.3488 89.9726C101.141 91.1388 101.263 92.0838 101.352 92.7729C101.413 93.2491 101.446 93.4666 102.018 93.7619C103.86 94.7069 105.914 100.512 106.26 101.522C106.529 101.843 107.297 102.828 107.297 103.579C107.297 103.776 107.248 103.969 107.154 104.141C107.06 104.313 106.923 104.458 106.758 104.564C106.383 104.804 105.894 104.817 105.421 104.598C105.154 104.475 104.811 104.604 104.641 104.892C104.334 105.4 103.893 105.665 103.375 105.665ZM81.451 92.7138C81.0225 92.7138 80.6691 92.5975 80.4394 92.276C79.8769 91.4866 78.7651 87.7038 78.5738 86.171C78.4041 84.8172 80.4338 84.0297 81.8625 83.6454L81.4163 83.3979C80.0475 83.2629 79.0726 82.7979 78.5101 82.0169C77.7976 81.0222 78.0638 79.9019 78.076 79.8551C78.1088 79.7395 78.1852 79.6413 78.289 79.5809C78.3928 79.5205 78.5159 79.5027 78.6326 79.5312C78.7492 79.5597 78.8503 79.6323 78.9145 79.7338C78.9787 79.8353 79.0011 79.9577 78.9769 80.0754C78.9722 80.0969 78.81 80.8507 79.2713 81.4863C79.681 82.0488 80.4629 82.3854 81.5954 82.4819C81.6612 82.4873 81.7252 82.5068 81.7829 82.5391L83.3766 83.426C83.4604 83.4726 83.5276 83.5439 83.5692 83.6302C83.6108 83.7166 83.6246 83.8137 83.6088 83.9082C83.593 84.0027 83.5483 84.09 83.4809 84.1581C83.4134 84.2262 83.3266 84.2717 83.2322 84.2885C81.3994 84.6129 79.4129 85.4135 79.4925 86.0557C79.6885 87.6251 80.79 91.1725 81.1932 91.7369C81.1932 91.7369 81.2785 91.8166 81.6854 91.7707C82.1513 91.6969 82.6114 91.5907 83.0625 91.4529C83.6016 91.3029 84.1585 91.1482 84.631 91.1013C84.7122 91.1001 84.7916 91.0778 84.8616 91.0366C84.8452 90.9549 84.8055 90.8797 84.7472 90.82C84.633 90.6984 84.4944 90.6021 84.3404 90.5375C84.1865 90.4729 84.0207 90.4414 83.8538 90.445C83.7747 90.4451 83.697 90.4249 83.6279 90.3864C83.5588 90.3479 83.5007 90.2924 83.4591 90.2252C83.4175 90.1579 83.3938 90.0811 83.3902 90.0022C83.3865 89.9232 83.4032 89.8446 83.4385 89.7738C83.5463 89.5554 83.5922 89.276 83.5529 89.2113C83.5185 89.1948 83.4812 89.1853 83.4432 89.1832L82.7429 89.5216C82.604 89.5882 82.4519 89.6229 82.2978 89.623C82.1438 89.6232 81.9917 89.5888 81.8526 89.5224C81.7136 89.4561 81.5912 89.3594 81.4945 89.2395C81.3977 89.1197 81.329 88.9796 81.2935 88.8297L81 87.5913C80.96 87.4205 80.9567 87.2431 80.9906 87.0709C81.0244 86.8987 81.0945 86.7357 81.1962 86.5927C81.298 86.4497 81.429 86.3301 81.5806 86.2417C81.7322 86.1533 81.9008 86.0982 82.0754 86.08C85.1138 85.7688 86.5444 85.2935 86.8707 84.955C86.9493 84.8683 87.0087 84.7659 87.045 84.6546C87.0814 84.5433 87.0939 84.4256 87.0816 84.3091C87.06 83.7832 86.6701 82.2626 83.5407 79.4941C83.4671 79.4082 83.4271 79.2986 83.428 79.1855C83.4289 79.0724 83.4706 78.9635 83.5455 78.8787C83.6204 78.794 83.7235 78.7392 83.8356 78.7245C83.9477 78.7097 84.0614 78.736 84.1557 78.7985C86.6175 80.9763 87.9497 82.8682 88.0097 84.2697C88.0266 84.511 87.9938 84.7532 87.9131 84.9813C87.8325 85.2093 87.7058 85.4183 87.541 85.5954C86.9363 86.2291 85.1288 86.7044 82.1682 87.0072C82.1252 87.0114 82.0836 87.0248 82.0462 87.0465C82.0088 87.0681 81.9766 87.0976 81.9516 87.1329C81.9256 87.1688 81.9076 87.21 81.8991 87.2535C81.8905 87.297 81.8915 87.3419 81.9019 87.3851L82.1897 88.6197C82.193 88.6344 82.1997 88.6481 82.2091 88.6598C82.2185 88.6715 82.2305 88.6809 82.2441 88.6872C82.2577 88.6939 82.2726 88.6973 82.2877 88.6973C82.3028 88.6973 82.3177 88.6939 82.3313 88.6872L83.1376 88.2972C83.2005 88.2671 83.2693 88.2514 83.3391 88.2513C83.9204 88.2513 84.2016 88.5082 84.3347 88.7247C84.4833 88.9918 84.527 89.3046 84.4576 89.6022C85.2301 89.8226 85.7532 90.4347 85.7813 90.9954C85.8029 91.421 85.5366 91.946 84.7163 92.0266C84.3225 92.066 83.8041 92.2094 83.3025 92.3491C82.636 92.5329 81.9854 92.7138 81.451 92.7138Z" fill="#FF005A"/>
<path d="M82.2393 91.2062C82.1952 91.2062 82.1502 91.2062 82.1062 91.2015C82.044 91.1991 81.983 91.1843 81.9267 91.1578C81.8704 91.1314 81.8199 91.0939 81.7784 91.0476C81.7369 91.0012 81.7051 90.947 81.6849 90.8882C81.6648 90.8293 81.6567 90.767 81.6611 90.705C81.6655 90.6429 81.6823 90.5824 81.7106 90.527C81.7388 90.4716 81.7779 90.4224 81.8256 90.3824C81.8732 90.3424 81.9284 90.3124 81.9879 90.2941C82.0474 90.2759 82.1099 90.2698 82.1718 90.2762C82.724 90.3156 83.3474 89.8253 83.5218 89.65C83.6091 89.5644 83.7267 89.5167 83.849 89.5173C83.9712 89.518 84.0883 89.5668 84.1747 89.6533C84.2612 89.7397 84.31 89.8568 84.3107 89.9791C84.3113 90.1013 84.2636 90.2189 84.178 90.3062C84.0824 90.4018 83.2499 91.2062 82.2393 91.2062ZM76.1043 91.2297C75.6543 91.2297 75.2727 91.1115 75.0271 90.7675C74.4646 89.9856 73.3565 86.2028 73.1615 84.6653C73.019 83.5065 74.3024 81.9062 75.704 81.4853C75.8157 81.4683 75.9299 81.4924 76.0253 81.5529C76.1208 81.6135 76.1911 81.7065 76.2234 81.8148C76.2557 81.9231 76.2478 82.0394 76.2011 82.1424C76.1544 82.2453 76.0721 82.3279 75.9693 82.375C74.938 82.6825 74.0005 83.8993 74.0821 84.55C74.2818 86.1231 75.3824 89.6696 75.7827 90.2284C75.9355 90.4421 76.9893 90.1768 77.5555 90.0343C78.0223 89.9046 78.4975 89.8072 78.9777 89.7428C79.2937 89.7109 79.2871 89.5796 79.2843 89.5309C79.2721 89.2871 78.9646 88.9337 78.4405 88.9337C78.3615 88.9339 78.2837 88.9139 78.2146 88.8755C78.1455 88.8371 78.0874 88.7817 78.0457 88.7145C78.0041 88.6473 77.9804 88.5706 77.9768 88.4916C77.9732 88.4127 77.9899 88.3341 78.0252 88.2634C78.1321 88.045 78.1771 87.7675 78.1377 87.7009C78.1028 87.6841 78.0649 87.6742 78.0262 87.6718L77.3268 88.0093C77.1878 88.0758 77.0357 88.1102 76.8817 88.1102C76.7276 88.1101 76.5755 88.0755 76.4366 88.009C76.2977 87.9424 76.1754 87.8456 76.0788 87.7256C75.9822 87.6056 75.9137 87.4655 75.8784 87.3156L75.5915 86.0818C75.5509 85.9112 75.5473 85.7338 75.5808 85.5616C75.6143 85.3894 75.6843 85.2264 75.7859 85.0834C75.8875 84.9404 76.0185 84.8208 76.1701 84.7325C76.3217 84.6442 76.4904 84.5893 76.6649 84.5715C76.979 84.5387 77.458 84.4871 77.9774 84.415C78.0904 84.4153 78.1995 84.4565 78.2846 84.5308C78.3696 84.6052 78.425 84.7079 78.4404 84.8198C78.4558 84.9318 78.4302 85.0455 78.3684 85.1401C78.3066 85.2347 78.2127 85.3038 78.104 85.3346C77.5705 85.4078 77.0812 85.4612 76.7596 85.495C76.7164 85.4988 76.6745 85.5121 76.637 85.5338C76.5994 85.5554 76.567 85.5851 76.5421 85.6206C76.5166 85.6562 76.4991 85.697 76.4908 85.74C76.4825 85.7831 76.4837 85.8274 76.4943 85.87L76.7812 87.1075C76.7841 87.1223 76.7906 87.1361 76.8001 87.1479C76.8096 87.1596 76.8217 87.1689 76.8355 87.175C76.849 87.182 76.864 87.1857 76.8791 87.1857C76.8943 87.1857 76.9093 87.182 76.9227 87.175L77.728 86.7868C77.791 86.7567 77.8598 86.741 77.9296 86.7409C78.5109 86.7409 78.7921 86.9987 78.9252 87.2143C79.075 87.4837 79.1188 87.7993 79.048 88.0993C79.7455 88.3253 80.1805 88.9225 80.2096 89.484C80.2359 90.0118 79.8946 90.5828 79.0696 90.6662C78.6344 90.7268 78.2038 90.8163 77.7805 90.9343C77.2012 91.0806 76.6096 91.2297 76.1043 91.2297Z" fill="#FF005A"/>
<path d="M76.8291 89.6997C76.785 89.6997 76.741 89.6997 76.696 89.695C76.5761 89.6826 76.4658 89.624 76.3884 89.5318C76.3109 89.4395 76.2724 89.3207 76.2809 89.2006C76.2894 89.0804 76.3443 88.9683 76.434 88.8878C76.5238 88.8074 76.6412 88.7651 76.7616 88.7697C77.3128 88.8081 77.9372 88.3187 78.1116 88.1444C78.1989 88.0588 78.3165 88.0111 78.4388 88.0117C78.561 88.0124 78.6781 88.0612 78.7646 88.1477C78.851 88.2341 78.8998 88.3512 78.9005 88.4735C78.9011 88.5957 78.8534 88.7133 78.7678 88.8006C78.6722 88.8953 77.8378 89.6997 76.8291 89.6997ZM91.2103 89.5647C89.1618 89.5026 87.1255 89.2245 85.1353 88.735C85.0746 88.722 85.0171 88.6969 84.9662 88.6613C84.9153 88.6257 84.8721 88.5802 84.8392 88.5275C84.8062 88.4749 84.7841 88.4162 84.7743 88.3548C84.7644 88.2935 84.767 88.2308 84.7818 88.1705C84.7966 88.1102 84.8234 88.0535 84.8605 88.0037C84.8977 87.9539 84.9444 87.9121 84.998 87.8807C85.0516 87.8493 85.111 87.829 85.1726 87.821C85.2342 87.813 85.2967 87.8174 85.3566 87.834C87.2778 88.3029 89.2423 88.5718 91.2188 88.6365C91.3305 88.6525 91.4328 88.7082 91.5067 88.7934C91.5807 88.8787 91.6214 88.9877 91.6214 89.1006C91.6214 89.2135 91.5807 89.3225 91.5067 89.4078C91.4328 89.4931 91.3305 89.5488 91.2188 89.5647H91.2103ZM76.815 84.0325C76.7438 84.0326 76.6734 84.0163 76.6095 83.9847C76.5456 83.9532 76.4898 83.9073 76.4466 83.8506C74.1178 80.8122 74.7685 77.7203 74.7975 77.5937C74.837 77.4878 74.9135 77.3996 75.0128 77.3456C75.1121 77.2915 75.2277 77.2752 75.3381 77.2996C75.4485 77.3241 75.5464 77.3876 75.6136 77.4785C75.6809 77.5695 75.713 77.6816 75.7041 77.7944C75.6985 77.8215 75.1266 80.6069 77.1835 83.29C77.2372 83.3587 77.2705 83.4412 77.2795 83.5279C77.2886 83.6147 77.273 83.7022 77.2345 83.7805C77.196 83.8588 77.1363 83.9247 77.0621 83.9706C76.9879 84.0165 76.9023 84.0405 76.815 84.04V84.0325Z" fill="#FF005A"/>
<path d="M83.2839 104.955H83.1901C82.5779 104.915 81.9714 104.506 81.3798 103.736C81.0348 103.679 80.4151 103.503 80.1536 102.964C79.9229 102.49 80.0429 101.913 80.5117 101.25C80.5375 101.212 80.5691 101.178 80.6054 101.149C80.6467 101.118 81.6367 100.374 83.3064 100.823C83.3823 100.843 83.6129 100.86 84.1042 100.574C85.4654 99.7807 87.2139 97.6244 87.692 96.8069C87.0254 96.2716 85.3436 94.8747 84.1061 93.4807C84.0286 93.3881 83.9903 93.2689 83.9992 93.1486C84.0082 93.0282 84.0636 92.916 84.1539 92.8359C84.2442 92.7557 84.3621 92.7139 84.4827 92.7193C84.6033 92.7247 84.717 92.7769 84.7998 92.8647C86.2857 94.5382 88.5245 96.2838 88.5498 96.3007C88.6201 96.356 88.6732 96.4304 88.7026 96.515C88.732 96.5995 88.7365 96.6908 88.7157 96.7778C88.5282 97.5485 86.3045 100.353 84.5992 101.361C83.9964 101.717 83.4957 101.83 83.0682 101.719C82.037 101.443 81.4042 101.747 81.2232 101.854C80.9786 102.221 80.942 102.456 80.9879 102.558C81.0648 102.717 81.4276 102.822 81.6592 102.839C81.7287 102.843 81.7963 102.862 81.8573 102.896C81.9183 102.93 81.971 102.976 82.0117 103.033C82.4636 103.665 82.892 104.011 83.2501 104.033C83.4695 104.047 83.6936 103.933 83.9157 103.692C84.3386 103.232 85.0576 103.213 85.5526 103.652C85.6149 103.715 85.6922 103.761 85.7773 103.786C85.8624 103.812 85.9525 103.815 86.0392 103.796C86.222 103.75 86.6954 103.515 87.1173 102.308C87.7876 100.385 88.8986 99.1628 89.7986 98.1832C90.2251 97.7144 90.5926 97.3113 90.8111 96.9372C91.1945 96.2763 90.0104 95.0941 89.3767 94.6253C89.3257 94.5879 89.2827 94.5405 89.2505 94.4861C89.2183 94.4316 89.1974 94.3712 89.1892 94.3085C88.8479 91.5475 87.9611 90.985 87.6282 90.9982C87.5368 91.0217 87.4402 91.0151 87.3529 90.9793C87.2655 90.9435 87.1921 90.8804 87.1436 90.7994C87.0924 90.7136 87.0697 90.6138 87.0787 90.5143C87.0876 90.4148 87.1277 90.3207 87.1932 90.2453L88.5057 88.645C88.5852 88.5551 88.6964 88.4995 88.8159 88.4898C88.9355 88.4801 89.0542 88.5171 89.1471 88.593C89.24 88.669 89.2999 88.7779 89.3142 88.897C89.3285 89.0161 89.2961 89.1361 89.2239 89.2319L88.3679 90.28C88.4297 90.3158 88.4895 90.3549 88.547 90.3972C89.3204 90.9597 89.8389 92.1785 90.0892 94.0019C90.6761 94.4707 92.4151 96.0241 91.6145 97.4041C91.3464 97.8635 90.947 98.3013 90.4848 98.8103C89.6467 99.73 88.6023 100.873 87.9948 102.62C87.4698 104.111 86.7657 104.574 86.2679 104.701C86.0337 104.758 85.7889 104.756 85.5559 104.694C85.3228 104.632 85.109 104.513 84.9339 104.347C84.8401 104.266 84.6854 104.232 84.5992 104.327C84.2036 104.735 83.7526 104.955 83.2839 104.955ZM78.4623 69.1441C77.0345 69.1441 75.9836 68.7691 75.3376 68.0303C74.5407 67.1172 74.6936 66.0007 74.7011 65.9538C74.7231 65.8362 74.7898 65.7317 74.8871 65.662C74.9844 65.5924 75.1049 65.5631 75.2233 65.5801C75.3417 65.5972 75.449 65.6593 75.5227 65.7536C75.5964 65.8478 75.6309 65.9669 75.6189 66.086C75.5969 66.3269 75.6233 66.5697 75.6966 66.8003C75.7698 67.0308 75.8884 67.2444 76.0454 67.4285C76.5142 67.9638 77.3579 68.23 78.5411 68.216C78.6529 68.2312 78.7555 68.2863 78.83 68.3711C78.9045 68.4559 78.9459 68.5647 78.9465 68.6776C78.9472 68.7905 78.9072 68.8998 78.8337 68.9855C78.7602 69.0712 78.6583 69.1275 78.5467 69.1441H78.4623ZM82.1392 77.5225C82.0564 77.5225 81.9751 77.5004 81.9037 77.4584C81.8324 77.4164 81.7735 77.356 81.7334 77.2836C81.6932 77.2112 81.6731 77.1294 81.6752 77.0466C81.6774 76.9638 81.7016 76.8831 81.7454 76.8128C82.2142 76.0628 82.2451 74.8328 82.2142 74.4232C82.2223 74.3104 82.2709 74.2044 82.351 74.1247C82.431 74.0449 82.5372 73.9968 82.65 73.9892C82.7628 73.9815 82.8745 74.0149 82.9646 74.0831C83.0547 74.1513 83.1172 74.2497 83.1404 74.3603C83.1404 74.4335 83.252 76.1472 82.5301 77.3041C82.4888 77.3706 82.4313 77.4256 82.3629 77.4638C82.2945 77.502 82.2175 77.5222 82.1392 77.5225ZM85.2423 77.8357C85.1805 77.8355 85.1193 77.823 85.0623 77.7991C84.9498 77.7503 84.8609 77.6594 84.8146 77.5458C84.7683 77.4323 84.7684 77.3051 84.8148 77.1916C85.1898 76.2953 85.2076 75.0353 85.2076 75.026C85.2098 74.9031 85.2602 74.786 85.3479 74.7C85.4355 74.6139 85.5535 74.5656 85.6764 74.5657C85.7991 74.5681 85.9159 74.6186 86.0018 74.7062C86.0877 74.7939 86.1358 74.9117 86.1357 75.0344C86.1357 75.0925 86.1179 76.4885 85.667 77.5516C85.6313 77.6349 85.5721 77.7062 85.4967 77.7566C85.4214 77.807 85.333 77.8345 85.2423 77.8357ZM88.0061 78.9822C87.9222 78.9806 87.8403 78.9566 87.7689 78.9125C87.6975 78.8685 87.6393 78.8061 87.6002 78.7319C87.5611 78.6577 87.5427 78.5744 87.5468 78.4906C87.5509 78.4068 87.5774 78.3257 87.6236 78.2557C88.0267 77.6697 88.1223 76.3807 88.1251 75.9363C88.1416 75.8246 88.1978 75.7227 88.2834 75.6491C88.3691 75.5756 88.4783 75.5354 88.5912 75.536C88.7041 75.5365 88.813 75.5778 88.8978 75.6522C88.9827 75.7266 89.0379 75.8291 89.0532 75.941C89.0532 76.135 89.0251 77.8563 88.3886 78.7816C88.3456 78.8433 88.2884 78.8937 88.2218 78.9286C88.1552 78.9635 88.0812 78.9819 88.0061 78.9822ZM90.6414 80.4232C90.5647 80.4232 90.4892 80.4039 90.422 80.3669C90.3684 80.338 90.321 80.2988 90.2826 80.2516C90.2442 80.2044 90.2154 80.1501 90.198 80.0917C90.1806 80.0334 90.1748 79.9722 90.1811 79.9116C90.1874 79.8511 90.2055 79.7923 90.2345 79.7388C90.6532 78.9279 90.8456 78.0191 90.7914 77.1082C90.7807 76.9872 90.8178 76.8668 90.8949 76.7729C90.9719 76.679 91.0827 76.619 91.2035 76.6059C91.3242 76.5928 91.4453 76.6275 91.5407 76.7027C91.6362 76.7778 91.6983 76.8874 91.7139 77.0078C91.7915 78.1056 91.5623 79.2034 91.052 80.1785C91.0118 80.2523 90.9525 80.314 90.8802 80.3571C90.808 80.4001 90.7255 80.423 90.6414 80.4232ZM78.5457 61.4894H77.9167C77.7936 61.4894 77.6756 61.4405 77.5885 61.3535C77.5015 61.2665 77.4526 61.1484 77.4526 61.0253C77.4526 60.9023 77.5015 60.7842 77.5885 60.6972C77.6756 60.6102 77.7936 60.5613 77.9167 60.5613H78.5457C78.6688 60.5613 78.7869 60.6102 78.8739 60.6972C78.9609 60.7842 79.0098 60.9023 79.0098 61.0253C79.0098 61.1484 78.9609 61.2665 78.8739 61.3535C78.7869 61.4405 78.6688 61.4894 78.5457 61.4894ZM105.128 70.871C105.02 70.8651 104.917 70.8221 104.837 70.7494C104.758 70.6767 104.705 70.5786 104.69 70.4718C104.674 70.365 104.695 70.256 104.75 70.1632C104.806 70.0704 104.891 69.9995 104.993 69.9625L106.031 69.6466C106.148 69.6134 106.274 69.6275 106.38 69.6857C106.487 69.7439 106.567 69.8417 106.602 69.958C106.637 70.0743 106.626 70.1999 106.569 70.3076C106.513 70.4154 106.417 70.4969 106.301 70.5344L105.259 70.8503C105.216 70.8637 105.172 70.8706 105.128 70.871ZM106.826 72.4178H105.252C105.129 72.4178 105.011 72.3689 104.924 72.2819C104.837 72.1949 104.788 72.0769 104.788 71.9538C104.788 71.8307 104.837 71.7127 104.924 71.6256C105.011 71.5386 105.129 71.4897 105.252 71.4897H106.826C106.949 71.4897 107.067 71.5386 107.155 71.6256C107.242 71.7127 107.29 71.8307 107.29 71.9538C107.29 72.0769 107.242 72.1949 107.155 72.2819C107.067 72.3689 106.949 72.4178 106.826 72.4178ZM106.001 74.5197C105.947 74.5195 105.894 74.51 105.843 74.4916L104.844 74.125C104.744 74.0721 104.666 73.9849 104.625 73.8793C104.585 73.7738 104.583 73.657 104.622 73.5507C104.661 73.4444 104.736 73.3556 104.835 73.3007C104.934 73.2459 105.05 73.2286 105.16 73.2522L106.16 73.615C106.258 73.656 106.34 73.7292 106.391 73.8226C106.442 73.916 106.46 74.024 106.441 74.1289C106.423 74.2338 106.369 74.3293 106.289 74.3996C106.209 74.47 106.108 74.511 106.001 74.516V74.5197ZM105.252 76.0713C105.193 76.0711 105.134 76.0597 105.079 76.0375L104.063 75.6297C104.005 75.6079 103.952 75.5747 103.907 75.5322C103.862 75.4896 103.826 75.4386 103.802 75.382C103.777 75.3254 103.763 75.2644 103.763 75.2026C103.762 75.1408 103.773 75.0794 103.796 75.0221C103.819 74.9648 103.854 74.9127 103.897 74.8688C103.941 74.8249 103.992 74.7902 104.05 74.7666C104.107 74.743 104.168 74.7311 104.23 74.7315C104.292 74.732 104.353 74.7447 104.409 74.7691L105.422 75.1769C105.522 75.2172 105.605 75.291 105.656 75.3856C105.707 75.4803 105.724 75.5898 105.704 75.6956C105.683 75.8013 105.627 75.8966 105.544 75.9651C105.461 76.0337 105.356 76.0712 105.249 76.0713H105.252Z" fill="#FF005A"/>
</g>
</g>
<defs>
<filter id="filter0_d_14_29" x="0.75" y="0" width="180" height="180" filterUnits="userSpaceOnUse" color-interpolation-filters="sRGB">
<feFlood flood-opacity="0" result="BackgroundImageFix"/>
<feColorMatrix in="SourceAlpha" type="matrix" values="0 0 0 0 0 0 0 0 0 0 0 0 0 0 0 0 0 0 127 0" result="hardAlpha"/>
<feOffset dy="8"/>
<feGaussianBlur stdDeviation="20"/>
<feComposite in2="hardAlpha" operator="out"/>
<feColorMatrix type="matrix" values="0 0 0 0 0 0 0 0 0 0 0 0 0 0 0 0 0 0 0.08 0"/>
<feBlend mode="normal" in2="BackgroundImageFix" result="effect1_dropShadow_14_29"/>
<feBlend mode="normal" in="SourceGraphic" in2="effect1_dropShadow_14_29" result="shape"/>
</filter>
<clipPath id="clip0_14_29">
<rect width="48" height="48" fill="white" transform="translate(66.75 58)"/>
</clipPath>
</defs>
</svg>
