<svg width="540" height="156" viewBox="0 0 540 156" fill="none" xmlns="http://www.w3.org/2000/svg">
<path d="M185.056 28.3938H176.372L176.325 23.3315H183.5C184.77 23.3315 185.799 23.1767 186.589 22.8671C187.394 22.5575 187.982 22.1085 188.354 21.5203C188.725 20.9165 188.911 20.1734 188.911 19.291C188.911 18.2847 188.725 17.472 188.354 16.8528C187.982 16.2335 187.394 15.7846 186.589 15.5059C185.799 15.2118 184.778 15.0647 183.524 15.0647H179.112V43H171.542V9.18972H183.524C185.552 9.18972 187.363 9.37549 188.958 9.74703C190.552 10.1186 191.907 10.6914 193.021 11.4654C194.151 12.2395 195.011 13.207 195.599 14.3681C196.187 15.5291 196.481 16.8992 196.481 18.4783C196.481 19.8561 196.172 21.141 195.552 22.333C194.949 23.525 193.973 24.4926 192.626 25.2357C191.28 25.9788 189.476 26.3813 187.216 26.4432L185.056 28.3938ZM184.754 43H174.444L177.184 37.1482H184.754C185.916 37.1482 186.86 36.9625 187.587 36.5909C188.315 36.2194 188.849 35.7162 189.19 35.0815C189.53 34.4468 189.701 33.7347 189.701 32.9452C189.701 32.0163 189.538 31.2113 189.213 30.5301C188.903 29.849 188.408 29.3226 187.727 28.9511C187.061 28.5795 186.171 28.3938 185.056 28.3938H178.276L178.322 23.3315H186.612L188.377 25.3286C190.529 25.2821 192.247 25.6304 193.532 26.3735C194.833 27.1011 195.769 28.0609 196.342 29.253C196.915 30.445 197.201 31.7067 197.201 33.038C197.201 35.2363 196.729 37.0786 195.785 38.5647C194.84 40.0354 193.439 41.1423 191.582 41.8854C189.739 42.6285 187.464 43 184.754 43ZM200.684 30.6927V30.205C200.684 28.3628 200.947 26.6677 201.474 25.1196C202 23.556 202.774 22.2014 203.796 21.0558C204.818 19.9102 206.072 19.0201 207.558 18.3854C209.044 17.7352 210.747 17.4101 212.667 17.4101C214.617 17.4101 216.335 17.7352 217.822 18.3854C219.323 19.0201 220.585 19.9102 221.607 21.0558C222.628 22.2014 223.403 23.556 223.929 25.1196C224.455 26.6677 224.718 28.3628 224.718 30.205V30.6927C224.718 32.5194 224.455 34.2146 223.929 35.7782C223.403 37.3263 222.628 38.6808 221.607 39.8419C220.585 40.9875 219.331 41.8776 217.845 42.5124C216.359 43.1471 214.648 43.4644 212.713 43.4644C210.793 43.4644 209.083 43.1471 207.581 42.5124C206.079 41.8776 204.818 40.9875 203.796 39.8419C202.774 38.6808 202 37.3263 201.474 35.7782C200.947 34.2146 200.684 32.5194 200.684 30.6927ZM207.953 30.205V30.6927C207.953 31.6835 208.03 32.6123 208.185 33.4792C208.355 34.3462 208.626 35.1047 208.998 35.7549C209.369 36.4051 209.857 36.916 210.46 37.2875C211.08 37.6436 211.831 37.8216 212.713 37.8216C213.595 37.8216 214.338 37.6436 214.942 37.2875C215.546 36.916 216.034 36.4051 216.405 35.7549C216.777 35.1047 217.04 34.3462 217.195 33.4792C217.365 32.6123 217.45 31.6835 217.45 30.6927V30.205C217.45 29.2297 217.365 28.3164 217.195 27.4649C217.04 26.598 216.777 25.8317 216.405 25.166C216.034 24.5003 215.538 23.9817 214.919 23.6102C214.315 23.2386 213.564 23.0529 212.667 23.0529C211.8 23.0529 211.064 23.2386 210.46 23.6102C209.857 23.9817 209.369 24.5003 208.998 25.166C208.626 25.8317 208.355 26.598 208.185 27.4649C208.03 28.3164 207.953 29.2297 207.953 30.205ZM245.478 17.8745V23.5173H233.473V17.8745H245.478ZM235.679 17.8745V43H228.434V17.8745H235.679ZM250.633 17.8745V43H243.365V17.8745H250.633ZM262.592 22.7045V52.6601H255.347V17.8745H262.105L262.592 22.7045ZM278.267 30.1586V30.6462C278.267 32.473 278.058 34.1681 277.64 35.7317C277.222 37.2798 276.595 38.6344 275.759 39.7955C274.938 40.9565 273.924 41.8622 272.717 42.5124C271.509 43.1471 270.108 43.4644 268.514 43.4644C266.997 43.4644 265.681 43.1471 264.566 42.5124C263.467 41.8622 262.538 40.9643 261.78 39.8187C261.037 38.6576 260.433 37.334 259.968 35.8478C259.519 34.3462 259.171 32.7439 258.923 31.041V30.0889C259.171 28.2777 259.527 26.598 259.992 25.0499C260.456 23.5018 261.06 22.1627 261.803 21.0326C262.546 19.887 263.467 18.9969 264.566 18.3622C265.665 17.7274 266.973 17.4101 268.491 17.4101C270.07 17.4101 271.471 17.712 272.694 18.3157C273.917 18.9195 274.938 19.7864 275.759 20.9165C276.595 22.0311 277.222 23.3702 277.64 24.9338C278.058 26.4974 278.267 28.239 278.267 30.1586ZM270.999 30.6462V30.1586C270.999 29.1369 270.921 28.2003 270.766 27.3488C270.611 26.4819 270.364 25.7311 270.023 25.0963C269.683 24.4461 269.234 23.943 268.676 23.587C268.119 23.2309 267.438 23.0529 266.633 23.0529C265.766 23.0529 265.031 23.1922 264.427 23.4708C263.823 23.7495 263.335 24.1597 262.964 24.7016C262.592 25.2279 262.321 25.8781 262.151 26.6522C261.996 27.4262 261.911 28.3086 261.896 29.2994V31.8538C261.911 33.0148 262.074 34.052 262.383 34.9654C262.708 35.8633 263.212 36.5677 263.893 37.0786C264.589 37.5739 265.518 37.8216 266.679 37.8216C267.5 37.8216 268.181 37.6436 268.723 37.2875C269.28 36.916 269.721 36.3974 270.046 35.7317C270.387 35.066 270.627 34.2997 270.766 33.4328C270.921 32.5659 270.999 31.637 270.999 30.6462ZM281.077 30.6927V30.205C281.077 28.3628 281.34 26.6677 281.866 25.1196C282.392 23.556 283.167 22.2014 284.188 21.0558C285.21 19.9102 286.464 19.0201 287.95 18.3854C289.436 17.7352 291.139 17.4101 293.059 17.4101C295.009 17.4101 296.728 17.7352 298.214 18.3854C299.716 19.0201 300.977 19.9102 301.999 21.0558C303.021 22.2014 303.795 23.556 304.321 25.1196C304.848 26.6677 305.111 28.3628 305.111 30.205V30.6927C305.111 32.5194 304.848 34.2146 304.321 35.7782C303.795 37.3263 303.021 38.6808 301.999 39.8419C300.977 40.9875 299.723 41.8776 298.237 42.5124C296.751 43.1471 295.04 43.4644 293.105 43.4644C291.186 43.4644 289.475 43.1471 287.973 42.5124C286.472 41.8776 285.21 40.9875 284.188 39.8419C283.167 38.6808 282.392 37.3263 281.866 35.7782C281.34 34.2146 281.077 32.5194 281.077 30.6927ZM288.345 30.205V30.6927C288.345 31.6835 288.422 32.6123 288.577 33.4792C288.747 34.3462 289.018 35.1047 289.39 35.7549C289.761 36.4051 290.249 36.916 290.853 37.2875C291.472 37.6436 292.223 37.8216 293.105 37.8216C293.988 37.8216 294.731 37.6436 295.335 37.2875C295.938 36.916 296.426 36.4051 296.797 35.7549C297.169 35.1047 297.432 34.3462 297.587 33.4792C297.757 32.6123 297.842 31.6835 297.842 30.6927V30.205C297.842 29.2297 297.757 28.3164 297.587 27.4649C297.432 26.598 297.169 25.8317 296.797 25.166C296.426 24.5003 295.931 23.9817 295.311 23.6102C294.708 23.2386 293.957 23.0529 293.059 23.0529C292.192 23.0529 291.457 23.2386 290.853 23.6102C290.249 23.9817 289.761 24.5003 289.39 25.166C289.018 25.8317 288.747 26.598 288.577 27.4649C288.422 28.3164 288.345 29.2297 288.345 30.205ZM319.415 37.8216C320.189 37.8216 320.862 37.6746 321.435 37.3804C322.008 37.0863 322.449 36.6761 322.759 36.1497C323.084 35.6079 323.247 34.9577 323.247 34.1991H330.074C330.074 36.0259 329.601 37.6359 328.657 39.0291C327.728 40.4224 326.474 41.5138 324.895 42.3034C323.316 43.0774 321.536 43.4644 319.554 43.4644C317.604 43.4644 315.901 43.1471 314.446 42.5124C312.99 41.8622 311.775 40.9565 310.8 39.7955C309.825 38.6344 309.089 37.2875 308.594 35.7549C308.114 34.2069 307.874 32.5349 307.874 30.7391V30.1354C307.874 28.3551 308.114 26.6909 308.594 25.1428C309.089 23.5947 309.825 22.2401 310.8 21.079C311.775 19.918 312.983 19.0201 314.422 18.3854C315.878 17.7352 317.581 17.4101 319.531 17.4101C321.59 17.4101 323.409 17.8048 324.988 18.5944C326.583 19.3839 327.829 20.5217 328.727 22.0079C329.625 23.4786 330.074 25.2512 330.074 27.3256H323.247C323.247 26.5206 323.099 25.8007 322.805 25.166C322.527 24.5158 322.093 24.0049 321.505 23.6334C320.932 23.2464 320.22 23.0529 319.369 23.0529C318.486 23.0529 317.759 23.2464 317.186 23.6334C316.628 24.0049 316.203 24.5235 315.909 25.1892C315.614 25.8549 315.413 26.6135 315.305 27.4649C315.196 28.3009 315.142 29.191 315.142 30.1354V30.7391C315.142 31.6989 315.196 32.6123 315.305 33.4792C315.413 34.3307 315.614 35.0815 315.909 35.7317C316.218 36.3819 316.652 36.8928 317.209 37.2643C317.766 37.6359 318.502 37.8216 319.415 37.8216ZM338.596 25.0499H345.794C348.148 25.0499 350.16 25.4292 351.832 26.1877C353.504 26.9463 354.789 28.0068 355.687 29.3691C356.585 30.7314 357.034 32.3104 357.034 34.1062C357.034 35.3911 356.778 36.5832 356.267 37.6823C355.772 38.766 355.037 39.7026 354.061 40.4921C353.101 41.2816 351.925 41.9009 350.532 42.3498C349.138 42.7833 347.559 43 345.794 43H334.137V17.8745H341.429V37.4037H345.794C346.754 37.4037 347.521 37.2566 348.093 36.9625C348.682 36.6528 349.107 36.2426 349.371 35.7317C349.649 35.2208 349.789 34.6713 349.789 34.083C349.789 33.4483 349.649 32.8755 349.371 32.3646C349.107 31.8383 348.682 31.428 348.093 31.1339C347.521 30.8243 346.754 30.6695 345.794 30.6695H338.596V25.0499ZM368.203 17.8745V43H360.912V17.8745H368.203Z" fill="white"/>
<path d="M26.7808 80.5618H25.2369V79.4641H26.7183C27.3728 79.4641 27.9023 79.3718 28.3069 79.1874C28.7115 79.003 29.006 78.7471 29.1904 78.4199C29.3749 78.0927 29.4671 77.7149 29.4671 77.2865C29.4671 76.876 29.3659 76.5011 29.1636 76.162C28.9614 75.8169 28.649 75.5432 28.2266 75.3409C27.8041 75.1327 27.2597 75.0286 26.5934 75.0286C26.0936 75.0286 25.6414 75.1238 25.2369 75.3142C24.8323 75.4986 24.511 75.7574 24.273 76.0906C24.035 76.4178 23.916 76.7956 23.916 77.224H22.1936C22.1936 76.6707 22.3096 76.1739 22.5417 75.7336C22.7737 75.2874 23.092 74.9096 23.4966 74.6002C23.9012 74.2849 24.3682 74.0439 24.8977 73.8773C25.4332 73.7107 25.9984 73.6274 26.5934 73.6274C27.2895 73.6274 27.9202 73.7078 28.4854 73.8684C29.0506 74.0231 29.5355 74.2551 29.9401 74.5645C30.3446 74.8739 30.654 75.2576 30.8682 75.7158C31.0824 76.1739 31.1895 76.7064 31.1895 77.3133C31.1895 77.7595 31.0854 78.1789 30.8771 78.5716C30.6689 78.9643 30.3714 79.3094 29.9847 79.6068C29.598 79.9043 29.1339 80.1393 28.5925 80.3119C28.0511 80.4785 27.4472 80.5618 26.7808 80.5618ZM25.2369 79.8032H26.7808C27.5126 79.8032 28.1641 79.8776 28.7353 80.0263C29.3064 80.175 29.7884 80.3922 30.181 80.6778C30.5737 80.9634 30.8712 81.3174 31.0735 81.7398C31.2817 82.1563 31.3858 82.6352 31.3858 83.1766C31.3858 83.7835 31.2668 84.322 31.0289 84.792C30.7968 85.262 30.4666 85.6606 30.0382 85.9879C29.6099 86.3151 29.1012 86.562 28.5122 86.7286C27.9291 86.8952 27.2895 86.9785 26.5934 86.9785C26.0341 86.9785 25.4808 86.9071 24.9334 86.7643C24.392 86.6155 23.9012 86.3895 23.4609 86.086C23.0206 85.7766 22.6666 85.384 22.3989 84.908C22.1371 84.432 22.0062 83.8609 22.0062 83.1945H23.7286C23.7286 83.6288 23.8476 84.0274 24.0856 84.3904C24.3295 84.7533 24.6657 85.0448 25.0941 85.265C25.5224 85.4792 26.0222 85.5863 26.5934 85.5863C27.2478 85.5863 27.8012 85.4851 28.2533 85.2828C28.7115 85.0746 29.0595 84.792 29.2975 84.435C29.5414 84.0721 29.6634 83.6645 29.6634 83.2123C29.6634 82.8137 29.598 82.4686 29.4671 82.1771C29.3421 81.8796 29.1547 81.6357 28.9048 81.4453C28.6609 81.2549 28.3545 81.1151 27.9856 81.0258C27.6227 80.9306 27.2003 80.883 26.7183 80.883H25.2369V79.8032ZM39.0966 85.149V80.178C39.0966 79.7972 39.0193 79.467 38.8646 79.1874C38.7158 78.9018 38.4897 78.6817 38.1863 78.527C37.8829 78.3723 37.508 78.2949 37.0618 78.2949C36.6453 78.2949 36.2794 78.3663 35.9641 78.5091C35.6547 78.6519 35.4108 78.8393 35.2323 79.0714C35.0598 79.3034 34.9735 79.5533 34.9735 79.821H33.3225C33.3225 79.476 33.4117 79.1338 33.5902 78.7947C33.7687 78.4556 34.0245 78.1492 34.3577 77.8755C34.6968 77.5959 35.1014 77.3757 35.5714 77.2151C36.0474 77.0485 36.5769 76.9652 37.16 76.9652C37.862 76.9652 38.4808 77.0842 39.0163 77.3222C39.5577 77.5602 39.9801 77.9201 40.2836 78.402C40.5929 78.878 40.7476 79.476 40.7476 80.1959V84.6938C40.7476 85.0151 40.7744 85.3572 40.828 85.7201C40.8874 86.0831 40.9737 86.3954 41.0868 86.6572V86.8H39.3643C39.281 86.6096 39.2156 86.3567 39.168 86.0414C39.1204 85.7201 39.0966 85.4226 39.0966 85.149ZM39.3822 80.9455L39.4 82.1057H37.7312C37.2611 82.1057 36.8417 82.1444 36.4728 82.2217C36.1039 82.2931 35.7945 82.4032 35.5447 82.5519C35.2948 82.7007 35.1044 82.8881 34.9735 83.1142C34.8426 83.3343 34.7771 83.5931 34.7771 83.8906C34.7771 84.194 34.8456 84.4707 34.9824 84.7206C35.1193 84.9705 35.3245 85.1698 35.5982 85.3185C35.8778 85.4613 36.2199 85.5327 36.6245 85.5327C37.1302 85.5327 37.5765 85.4256 37.9632 85.2114C38.3499 84.9972 38.6563 84.7355 38.8824 84.4261C39.1144 84.1167 39.2394 83.8162 39.2572 83.5247L39.9623 84.319C39.9206 84.5689 39.8076 84.8455 39.6231 85.149C39.4387 85.4524 39.1918 85.7439 38.8824 86.0236C38.579 86.2972 38.2161 86.5263 37.7936 86.7107C37.3771 86.8892 36.9071 86.9785 36.3836 86.9785C35.7291 86.9785 35.1549 86.8506 34.6611 86.5947C34.1733 86.3389 33.7925 85.9968 33.5188 85.5684C33.2511 85.1341 33.1172 84.6492 33.1172 84.1137C33.1172 83.5961 33.2183 83.1409 33.4206 82.7483C33.6229 82.3496 33.9144 82.0194 34.2952 81.7576C34.676 81.4899 35.1341 81.2876 35.6696 81.1508C36.2051 81.0139 36.803 80.9455 37.4634 80.9455H39.3822ZM49.7792 77.1437V78.5091H44.8975V77.1437H49.7792ZM45.1385 77.1437V86.8H43.4874V77.1437H45.1385ZM51.2428 77.1437V86.8H49.5829V77.1437H51.2428ZM53.4561 82.0789V81.8737C53.4561 81.1776 53.5573 80.532 53.7595 79.9371C53.9618 79.3361 54.2534 78.8155 54.6341 78.3753C55.0149 77.929 55.476 77.584 56.0174 77.34C56.5589 77.0901 57.1657 76.9652 57.838 76.9652C58.5163 76.9652 59.1261 77.0901 59.6676 77.34C60.2149 77.584 60.679 77.929 61.0598 78.3753C61.4465 78.8155 61.741 79.3361 61.9433 79.9371C62.1456 80.532 62.2467 81.1776 62.2467 81.8737V82.0789C62.2467 82.775 62.1456 83.4206 61.9433 84.0155C61.741 84.6105 61.4465 85.1311 61.0598 85.5773C60.679 86.0176 60.2179 86.3627 59.6765 86.6126C59.141 86.8565 58.5341 86.9785 57.8559 86.9785C57.1776 86.9785 56.5678 86.8565 56.0264 86.6126C55.4849 86.3627 55.0209 86.0176 54.6341 85.5773C54.2534 85.1311 53.9618 84.6105 53.7595 84.0155C53.5573 83.4206 53.4561 82.775 53.4561 82.0789ZM55.1071 81.8737V82.0789C55.1071 82.5609 55.1637 83.016 55.2767 83.4444C55.3897 83.8668 55.5593 84.2416 55.7854 84.5689C56.0174 84.8961 56.306 85.1549 56.6511 85.3453C56.9962 85.5297 57.3978 85.622 57.8559 85.622C58.3081 85.622 58.7037 85.5297 59.0428 85.3453C59.3879 85.1549 59.6735 84.8961 59.8996 84.5689C60.1257 84.2416 60.2952 83.8668 60.4083 83.4444C60.5273 83.016 60.5868 82.5609 60.5868 82.0789V81.8737C60.5868 81.3977 60.5273 80.9485 60.4083 80.5261C60.2952 80.0977 60.1227 79.7199 59.8907 79.3927C59.6646 79.0595 59.379 78.7977 59.0339 78.6073C58.6948 78.4169 58.2962 78.3217 57.838 78.3217C57.3859 78.3217 56.9872 78.4169 56.6422 78.6073C56.303 78.7977 56.0174 79.0595 55.7854 79.3927C55.5593 79.7199 55.3897 80.0977 55.2767 80.5261C55.1637 80.9485 55.1071 81.3977 55.1071 81.8737ZM70.6268 77.1437V78.5091H65.9593V77.1437H70.6268ZM72.0815 77.1437V86.8H70.4305V77.1437H72.0815ZM65.5577 77.1437H67.2177L66.9678 81.8023C66.9261 82.5222 66.8577 83.1588 66.7625 83.7121C66.6733 84.2595 66.5483 84.7295 66.3877 85.1222C66.233 85.5149 66.0367 85.8361 65.7987 86.086C65.5666 86.33 65.287 86.5114 64.9598 86.6304C64.6325 86.7435 64.2547 86.8 63.8264 86.8H63.3087V85.3453L63.6657 85.3185C63.9216 85.3007 64.1387 85.2412 64.3172 85.14C64.5017 85.0389 64.6563 84.8901 64.7813 84.6938C64.9062 84.4915 65.0074 84.2327 65.0847 83.9174C65.168 83.602 65.2305 83.2272 65.2721 82.7929C65.3197 82.3586 65.3554 81.8528 65.3792 81.2757L65.5577 77.1437ZM81.2916 81.3293V82.6679H76.1868V81.3293H81.2916ZM76.5348 77.1437V86.8H74.8838V77.1437H76.5348ZM82.6303 77.1437V86.8H80.9703V77.1437H82.6303ZM87.0747 84.1851L91.528 77.1437H93.1879V86.8H91.528V79.7586L87.0747 86.8H85.4326V77.1437H87.0747V84.1851ZM99.7742 77.1437V86.8H98.1143V77.1437H99.7742ZM103.014 77.1437V78.4824H94.9371V77.1437H103.014ZM107.931 86.9785C107.259 86.9785 106.649 86.8654 106.102 86.6393C105.56 86.4073 105.093 86.0831 104.701 85.6666C104.314 85.2501 104.016 84.7563 103.808 84.1851C103.6 83.6139 103.496 82.9892 103.496 82.311V81.9361C103.496 81.1508 103.612 80.4517 103.844 79.8389C104.076 79.2201 104.391 78.6965 104.79 78.2682C105.188 77.8398 105.641 77.5155 106.146 77.2954C106.652 77.0753 107.176 76.9652 107.717 76.9652C108.407 76.9652 109.002 77.0842 109.502 77.3222C110.008 77.5602 110.421 77.8933 110.742 78.3217C111.064 78.7441 111.302 79.2439 111.456 79.821C111.611 80.3922 111.688 81.0169 111.688 81.6952V82.4359H104.477V81.0883H110.037V80.9634C110.014 80.535 109.924 80.1185 109.77 79.7139C109.621 79.3094 109.383 78.9762 109.056 78.7144C108.728 78.4526 108.282 78.3217 107.717 78.3217C107.342 78.3217 106.997 78.402 106.682 78.5627C106.366 78.7174 106.096 78.9494 105.87 79.2588C105.644 79.5682 105.468 79.946 105.343 80.3922C105.218 80.8384 105.156 81.3531 105.156 81.9361V82.311C105.156 82.7691 105.218 83.2004 105.343 83.605C105.474 84.0036 105.661 84.3547 105.905 84.6581C106.155 84.9615 106.456 85.1995 106.807 85.3721C107.164 85.5446 107.568 85.6309 108.02 85.6309C108.604 85.6309 109.097 85.5119 109.502 85.2739C109.906 85.0359 110.26 84.7176 110.564 84.319L111.563 85.1133C111.355 85.4286 111.09 85.729 110.769 86.0146C110.448 86.3002 110.052 86.5323 109.582 86.7107C109.118 86.8892 108.568 86.9785 107.931 86.9785ZM121.755 82.186H119.979V81.1686H121.621C122.08 81.1686 122.442 81.1121 122.71 80.9991C122.978 80.8801 123.168 80.7165 123.281 80.5082C123.394 80.3 123.451 80.056 123.451 79.7764C123.451 79.5265 123.385 79.2915 123.255 79.0714C123.13 78.8453 122.927 78.6638 122.648 78.527C122.368 78.3842 121.993 78.3128 121.523 78.3128C121.142 78.3128 120.797 78.3812 120.488 78.5181C120.179 78.649 119.932 78.8304 119.747 79.0625C119.569 79.2885 119.48 79.5444 119.48 79.83H117.828C117.828 79.2409 117.995 78.7352 118.328 78.3128C118.667 77.8844 119.117 77.5542 119.676 77.3222C120.241 77.0901 120.857 76.9741 121.523 76.9741C122.082 76.9741 122.582 77.0366 123.023 77.1615C123.469 77.2805 123.847 77.459 124.156 77.697C124.465 77.929 124.7 78.2206 124.861 78.5716C125.028 78.9167 125.111 79.3183 125.111 79.7764C125.111 80.1036 125.034 80.413 124.879 80.7046C124.724 80.9961 124.501 81.2549 124.209 81.481C123.918 81.7011 123.564 81.8737 123.147 81.9986C122.737 82.1236 122.273 82.186 121.755 82.186ZM119.979 81.5613H121.755C122.332 81.5613 122.841 81.6178 123.281 81.7309C123.722 81.838 124.09 81.9986 124.388 82.2128C124.685 82.427 124.909 82.6917 125.057 83.0071C125.212 83.3165 125.289 83.6734 125.289 84.078C125.289 84.5302 125.197 84.9377 125.013 85.3007C124.834 85.6577 124.578 85.9611 124.245 86.211C123.912 86.4609 123.513 86.6512 123.049 86.7821C122.591 86.913 122.082 86.9785 121.523 86.9785C120.899 86.9785 120.292 86.8714 119.703 86.6572C119.114 86.443 118.629 86.1128 118.248 85.6666C117.867 85.2144 117.677 84.6403 117.677 83.9442H119.328C119.328 84.2357 119.42 84.5123 119.604 84.7741C119.789 85.0359 120.045 85.2471 120.372 85.4078C120.705 85.5684 121.089 85.6487 121.523 85.6487C121.987 85.6487 122.374 85.5773 122.683 85.4345C122.993 85.2917 123.225 85.1014 123.38 84.8634C123.54 84.6254 123.62 84.3666 123.62 84.0869C123.62 83.724 123.549 83.4325 123.406 83.2123C123.263 82.9922 123.043 82.8316 122.746 82.7304C122.454 82.6233 122.08 82.5698 121.621 82.5698H119.979V81.5613ZM133.125 85.149V80.178C133.125 79.7972 133.048 79.467 132.893 79.1874C132.744 78.9018 132.518 78.6817 132.215 78.527C131.911 78.3723 131.536 78.2949 131.09 78.2949C130.674 78.2949 130.308 78.3663 129.993 78.5091C129.683 78.6519 129.439 78.8393 129.261 79.0714C129.088 79.3034 129.002 79.5533 129.002 79.821H127.351C127.351 79.476 127.44 79.1338 127.619 78.7947C127.797 78.4556 128.053 78.1492 128.386 77.8755C128.725 77.5959 129.13 77.3757 129.6 77.2151C130.076 77.0485 130.605 76.9652 131.188 76.9652C131.89 76.9652 132.509 77.0842 133.045 77.3222C133.586 77.5602 134.009 77.9201 134.312 78.402C134.621 78.878 134.776 79.476 134.776 80.1959V84.6938C134.776 85.0151 134.803 85.3572 134.856 85.7201C134.916 86.0831 135.002 86.3954 135.115 86.6572V86.8H133.393C133.309 86.6096 133.244 86.3567 133.196 86.0414C133.149 85.7201 133.125 85.4226 133.125 85.149ZM133.411 80.9455L133.428 82.1057H131.76C131.29 82.1057 130.87 82.1444 130.501 82.2217C130.132 82.2931 129.823 82.4032 129.573 82.5519C129.323 82.7007 129.133 82.8881 129.002 83.1142C128.871 83.3343 128.806 83.5931 128.806 83.8906C128.806 84.194 128.874 84.4707 129.011 84.7206C129.148 84.9705 129.353 85.1698 129.627 85.3185C129.906 85.4613 130.248 85.5327 130.653 85.5327C131.159 85.5327 131.605 85.4256 131.992 85.2114C132.378 84.9972 132.685 84.7355 132.911 84.4261C133.143 84.1167 133.268 83.8162 133.286 83.5247L133.991 84.319C133.949 84.5689 133.836 84.8455 133.652 85.149C133.467 85.4524 133.22 85.7439 132.911 86.0236C132.607 86.2972 132.245 86.5263 131.822 86.7107C131.406 86.8892 130.936 86.9785 130.412 86.9785C129.758 86.9785 129.183 86.8506 128.69 86.5947C128.202 86.3389 127.821 85.9968 127.547 85.5684C127.28 85.1341 127.146 84.6492 127.146 84.1137C127.146 83.5961 127.247 83.1409 127.449 82.7483C127.651 82.3496 127.943 82.0194 128.324 81.7576C128.704 81.4899 129.163 81.2876 129.698 81.1508C130.234 81.0139 130.831 80.9455 131.492 80.9455H133.411ZM139.328 82.1949H141.112L138.319 86.8H136.534L139.328 82.1949ZM140.711 77.1437H144.745V86.8H143.094V78.4824H140.711C140.241 78.4824 139.857 78.5627 139.56 78.7233C139.262 78.878 139.045 79.0803 138.908 79.3302C138.771 79.5801 138.703 79.8389 138.703 80.1066C138.703 80.3684 138.765 80.6213 138.89 80.8652C139.015 81.1032 139.212 81.2995 139.479 81.4542C139.747 81.6089 140.092 81.6863 140.515 81.6863H143.54V83.0428H140.515C139.961 83.0428 139.47 82.9684 139.042 82.8197C138.614 82.6709 138.251 82.4657 137.953 82.2039C137.656 81.9361 137.43 81.6238 137.275 81.2668C137.12 80.9039 137.043 80.5112 137.043 80.0888C137.043 79.6663 137.123 79.2766 137.284 78.9197C137.45 78.5627 137.688 78.2503 137.998 77.9826C138.313 77.7149 138.697 77.5096 139.149 77.3668C139.607 77.2181 140.128 77.1437 140.711 77.1437ZM151.938 82.5519H148.77L148.752 81.2311H151.34C151.852 81.2311 152.277 81.1805 152.616 81.0794C152.961 80.9782 153.22 80.8265 153.393 80.6242C153.565 80.422 153.651 80.1721 153.651 79.8746C153.651 79.6425 153.601 79.4403 153.5 79.2677C153.404 79.0892 153.259 78.9435 153.062 78.8304C152.866 78.7114 152.622 78.6252 152.331 78.5716C152.045 78.5121 151.709 78.4824 151.322 78.4824H149.207V86.8H147.556V77.1437H151.322C151.935 77.1437 152.485 77.1972 152.973 77.3043C153.467 77.4114 153.886 77.575 154.231 77.7952C154.583 78.0094 154.85 78.283 155.035 78.6162C155.219 78.9494 155.311 79.3421 155.311 79.7943C155.311 80.0858 155.252 80.3625 155.133 80.6242C155.014 80.886 154.838 81.1181 154.606 81.3203C154.374 81.5226 154.089 81.6892 153.75 81.8201C153.41 81.9451 153.021 82.0254 152.58 82.0611L151.938 82.5519ZM151.938 86.8H148.172L148.993 85.4613H151.938C152.396 85.4613 152.777 85.4048 153.08 85.2917C153.384 85.1728 153.61 85.0062 153.758 84.792C153.913 84.5718 153.991 84.3101 153.991 84.0066C153.991 83.7032 153.913 83.4444 153.758 83.2302C153.61 83.0101 153.384 82.8435 153.08 82.7304C152.777 82.6114 152.396 82.5519 151.938 82.5519H149.43L149.448 81.2311H152.58L153.178 81.7309C153.708 81.7725 154.157 81.9034 154.526 82.1236C154.895 82.3437 155.175 82.6233 155.365 82.9625C155.555 83.2956 155.65 83.6586 155.65 84.0512C155.65 84.5034 155.564 84.902 155.392 85.2471C155.225 85.5922 154.981 85.8808 154.66 86.1128C154.339 86.3389 153.949 86.5114 153.491 86.6304C153.033 86.7435 152.515 86.8 151.938 86.8ZM159.658 77.1437V86.8H158.007V77.1437H159.658ZM165.994 77.1437L161.416 82.6769H159.104L158.854 81.2311H160.746L163.986 77.1437H165.994ZM164.218 86.8L160.666 82.427L161.728 81.2311L166.315 86.8H164.218ZM170.465 85.8004L173.151 77.1437H174.918L171.045 88.2904C170.956 88.5284 170.837 88.7842 170.688 89.0579C170.545 89.3375 170.361 89.6023 170.135 89.8522C169.909 90.1021 169.635 90.3043 169.314 90.459C168.999 90.6197 168.621 90.7 168.18 90.7C168.05 90.7 167.883 90.6821 167.681 90.6464C167.478 90.6107 167.336 90.581 167.252 90.5572L167.243 89.2185C167.291 89.2245 167.365 89.2304 167.466 89.2364C167.574 89.2483 167.648 89.2542 167.69 89.2542C168.064 89.2542 168.383 89.2037 168.645 89.1025C168.906 89.0073 169.126 88.8437 169.305 88.6117C169.489 88.3856 169.647 88.0732 169.778 87.6746L170.465 85.8004ZM168.493 77.1437L171.001 84.6403L171.429 86.3805L170.242 86.9874L166.69 77.1437H168.493ZM187.377 77.1437V78.5091H182.495V77.1437H187.377ZM182.736 77.1437V86.8H181.085V77.1437H182.736ZM188.841 77.1437V86.8H187.181V77.1437H188.841ZM193.142 79V90.5126H191.482V77.1437H192.999L193.142 79ZM199.648 81.8915V82.0789C199.648 82.781 199.565 83.4325 199.398 84.0334C199.232 84.6284 198.988 85.146 198.667 85.5863C198.351 86.0265 197.961 86.3686 197.497 86.6126C197.033 86.8565 196.501 86.9785 195.9 86.9785C195.287 86.9785 194.746 86.8773 194.276 86.675C193.806 86.4728 193.407 86.1782 193.08 85.7915C192.753 85.4048 192.491 84.9407 192.294 84.3993C192.104 83.8579 191.973 83.248 191.902 82.5698V81.5702C191.973 80.8563 192.107 80.2167 192.303 79.6515C192.5 79.0863 192.759 78.6043 193.08 78.2057C193.407 77.8011 193.803 77.4947 194.267 77.2865C194.731 77.0723 195.266 76.9652 195.873 76.9652C196.48 76.9652 197.018 77.0842 197.488 77.3222C197.959 77.5542 198.354 77.8874 198.675 78.3217C198.997 78.756 199.238 79.2766 199.398 79.8835C199.565 80.4844 199.648 81.1538 199.648 81.8915ZM197.988 82.0789V81.8915C197.988 81.4096 197.938 80.9574 197.837 80.535C197.735 80.1066 197.578 79.7318 197.364 79.4105C197.155 79.0833 196.888 78.8274 196.56 78.643C196.233 78.4526 195.843 78.3574 195.391 78.3574C194.975 78.3574 194.612 78.4288 194.302 78.5716C193.999 78.7144 193.74 78.9078 193.526 79.1517C193.312 79.3897 193.136 79.6634 192.999 79.9728C192.869 80.2762 192.77 80.5915 192.705 80.9187V83.2302C192.824 83.6467 192.991 84.0393 193.205 84.4082C193.419 84.7712 193.705 85.0657 194.061 85.2917C194.418 85.5119 194.868 85.622 195.409 85.622C195.855 85.622 196.239 85.5297 196.56 85.3453C196.888 85.1549 197.155 84.8961 197.364 84.5689C197.578 84.2416 197.735 83.8668 197.837 83.4444C197.938 83.016 197.988 82.5609 197.988 82.0789ZM203.709 82.1949H205.494L202.7 86.8H200.915L203.709 82.1949ZM205.092 77.1437H209.126V86.8H207.475V78.4824H205.092C204.622 78.4824 204.238 78.5627 203.941 78.7233C203.643 78.878 203.426 79.0803 203.289 79.3302C203.153 79.5801 203.084 79.8389 203.084 80.1066C203.084 80.3684 203.147 80.6213 203.272 80.8652C203.397 81.1032 203.593 81.2995 203.861 81.4542C204.128 81.6089 204.473 81.6863 204.896 81.6863H207.921V83.0428H204.896C204.343 83.0428 203.852 82.9684 203.423 82.8197C202.995 82.6709 202.632 82.4657 202.334 82.2039C202.037 81.9361 201.811 81.6238 201.656 81.2668C201.502 80.9039 201.424 80.5112 201.424 80.0888C201.424 79.6663 201.505 79.2766 201.665 78.9197C201.832 78.5627 202.07 78.2503 202.379 77.9826C202.694 77.7149 203.078 77.5096 203.53 77.3668C203.988 77.2181 204.509 77.1437 205.092 77.1437ZM217.337 84.6046L220.621 77.1437H222.209L217.908 86.8H216.765L212.482 77.1437H214.07L217.337 84.6046ZM213.588 77.1437V86.8H211.937V77.1437H213.588ZM221.031 86.8V77.1437H222.691V86.8H221.031ZM224.913 82.0789V81.8737C224.913 81.1776 225.015 80.532 225.217 79.9371C225.419 79.3361 225.711 78.8155 226.091 78.3753C226.472 77.929 226.933 77.584 227.475 77.34C228.016 77.0901 228.623 76.9652 229.295 76.9652C229.974 76.9652 230.583 77.0901 231.125 77.34C231.672 77.584 232.136 77.929 232.517 78.3753C232.904 78.8155 233.198 79.3361 233.401 79.9371C233.603 80.532 233.704 81.1776 233.704 81.8737V82.0789C233.704 82.775 233.603 83.4206 233.401 84.0155C233.198 84.6105 232.904 85.1311 232.517 85.5773C232.136 86.0176 231.675 86.3627 231.134 86.6126C230.598 86.8565 229.991 86.9785 229.313 86.9785C228.635 86.9785 228.025 86.8565 227.484 86.6126C226.942 86.3627 226.478 86.0176 226.091 85.5773C225.711 85.1311 225.419 84.6105 225.217 84.0155C225.015 83.4206 224.913 82.775 224.913 82.0789ZM226.564 81.8737V82.0789C226.564 82.5609 226.621 83.016 226.734 83.4444C226.847 83.8668 227.017 84.2416 227.243 84.5689C227.475 84.8961 227.763 85.1549 228.108 85.3453C228.454 85.5297 228.855 85.622 229.313 85.622C229.765 85.622 230.161 85.5297 230.5 85.3453C230.845 85.1549 231.131 84.8961 231.357 84.5689C231.583 84.2416 231.753 83.8668 231.866 83.4444C231.985 83.016 232.044 82.5609 232.044 82.0789V81.8737C232.044 81.3977 231.985 80.9485 231.866 80.5261C231.753 80.0977 231.58 79.7199 231.348 79.3927C231.122 79.0595 230.836 78.7977 230.491 78.6073C230.152 78.4169 229.754 78.3217 229.295 78.3217C228.843 78.3217 228.445 78.4169 228.1 78.6073C227.76 78.7977 227.475 79.0595 227.243 79.3927C227.017 79.7199 226.847 80.0977 226.734 80.5261C226.621 80.9485 226.564 81.3977 226.564 81.8737ZM244.173 85.622C244.565 85.622 244.928 85.5416 245.261 85.381C245.594 85.2204 245.868 85.0002 246.082 84.7206C246.297 84.435 246.419 84.1107 246.448 83.7478H248.019C247.989 84.319 247.796 84.8515 247.439 85.3453C247.088 85.8332 246.627 86.2288 246.056 86.5323C245.484 86.8297 244.857 86.9785 244.173 86.9785C243.447 86.9785 242.813 86.8506 242.272 86.5947C241.736 86.3389 241.29 85.9879 240.933 85.5416C240.582 85.0954 240.317 84.5837 240.139 84.0066C239.966 83.4236 239.88 82.8078 239.88 82.1593V81.7844C239.88 81.1359 239.966 80.5231 240.139 79.946C240.317 79.3629 240.582 78.8483 240.933 78.402C241.29 77.9558 241.736 77.6048 242.272 77.349C242.813 77.0931 243.447 76.9652 244.173 76.9652C244.928 76.9652 245.589 77.1199 246.154 77.4293C246.719 77.7327 247.162 78.1492 247.483 78.6787C247.811 79.2023 247.989 79.7972 248.019 80.4636H246.448C246.419 80.065 246.305 79.705 246.109 79.3837C245.919 79.0625 245.657 78.8066 245.324 78.6162C244.997 78.4199 244.613 78.3217 244.173 78.3217C243.667 78.3217 243.241 78.4229 242.896 78.6252C242.557 78.8215 242.286 79.0892 242.084 79.4284C241.888 79.7615 241.745 80.1334 241.656 80.5439C241.573 80.9485 241.531 81.362 241.531 81.7844V82.1593C241.531 82.5817 241.573 82.9982 241.656 83.4087C241.739 83.8192 241.879 84.1911 242.075 84.5242C242.278 84.8574 242.548 85.1252 242.887 85.3274C243.232 85.5238 243.661 85.622 244.173 85.622ZM253.882 86.9785C253.21 86.9785 252.6 86.8654 252.053 86.6393C251.511 86.4073 251.044 86.0831 250.652 85.6666C250.265 85.2501 249.967 84.7563 249.759 84.1851C249.551 83.6139 249.447 82.9892 249.447 82.311V81.9361C249.447 81.1508 249.563 80.4517 249.795 79.8389C250.027 79.2201 250.342 78.6965 250.741 78.2682C251.14 77.8398 251.592 77.5155 252.097 77.2954C252.603 77.0753 253.127 76.9652 253.668 76.9652C254.358 76.9652 254.953 77.0842 255.453 77.3222C255.959 77.5602 256.372 77.8933 256.694 78.3217C257.015 78.7441 257.253 79.2439 257.408 79.821C257.562 80.3922 257.64 81.0169 257.64 81.6952V82.4359H250.429V81.0883H255.989V80.9634C255.965 80.535 255.876 80.1185 255.721 79.7139C255.572 79.3094 255.334 78.9762 255.007 78.7144C254.68 78.4526 254.233 78.3217 253.668 78.3217C253.293 78.3217 252.948 78.402 252.633 78.5627C252.318 78.7174 252.047 78.9494 251.821 79.2588C251.595 79.5682 251.419 79.946 251.294 80.3922C251.169 80.8384 251.107 81.3531 251.107 81.9361V82.311C251.107 82.7691 251.169 83.2004 251.294 83.605C251.425 84.0036 251.613 84.3547 251.857 84.6581C252.106 84.9615 252.407 85.1995 252.758 85.3721C253.115 85.5446 253.519 85.6309 253.972 85.6309C254.555 85.6309 255.048 85.5119 255.453 85.2739C255.858 85.0359 256.212 84.7176 256.515 84.319L257.515 85.1133C257.306 85.4286 257.042 85.729 256.72 86.0146C256.399 86.3002 256.003 86.5323 255.533 86.7107C255.069 86.8892 254.519 86.9785 253.882 86.9785ZM261.352 84.1851L265.805 77.1437H267.465V86.8H265.805V79.7586L261.352 86.8H259.71V77.1437H261.352V84.1851ZM264.904 73.6453H266.243C266.243 74.1094 266.136 74.5229 265.921 74.8858C265.707 75.2428 265.401 75.5224 265.002 75.7247C264.604 75.927 264.131 76.0281 263.583 76.0281C262.756 76.0281 262.102 75.808 261.62 75.3677C261.144 74.9215 260.906 74.3473 260.906 73.6453H262.245C262.245 73.9963 262.346 74.3057 262.548 74.5734C262.75 74.8412 263.095 74.975 263.583 74.975C264.059 74.975 264.398 74.8412 264.601 74.5734C264.803 74.3057 264.904 73.9963 264.904 73.6453ZM277.398 77.1437V86.8H275.747V77.1437H277.398ZM276.836 81.5792V82.9357C276.503 83.0606 276.164 83.1737 275.819 83.2748C275.48 83.37 275.12 83.4474 274.739 83.5069C274.364 83.5604 273.957 83.5872 273.516 83.5872C272.755 83.5872 272.094 83.4563 271.535 83.1945C270.976 82.9268 270.544 82.5252 270.241 81.9897C269.938 81.4483 269.786 80.767 269.786 79.946V77.1258H271.437V79.946C271.437 80.4814 271.517 80.9158 271.678 81.249C271.838 81.5821 272.073 81.829 272.383 81.9897C272.692 82.1444 273.07 82.2217 273.516 82.2217C273.945 82.2217 274.346 82.1949 274.721 82.1414C275.102 82.0819 275.465 82.0046 275.81 81.9094C276.161 81.8142 276.503 81.7041 276.836 81.5792ZM285.752 85.149V80.178C285.752 79.7972 285.674 79.467 285.52 79.1874C285.371 78.9018 285.145 78.6817 284.841 78.527C284.538 78.3723 284.163 78.2949 283.717 78.2949C283.3 78.2949 282.935 78.3663 282.619 78.5091C282.31 78.6519 282.066 78.8393 281.887 79.0714C281.715 79.3034 281.629 79.5533 281.629 79.821H279.978C279.978 79.476 280.067 79.1338 280.245 78.7947C280.424 78.4556 280.68 78.1492 281.013 77.8755C281.352 77.5959 281.757 77.3757 282.227 77.2151C282.703 77.0485 283.232 76.9652 283.815 76.9652C284.517 76.9652 285.136 77.0842 285.671 77.3222C286.213 77.5602 286.635 77.9201 286.939 78.402C287.248 78.878 287.403 79.476 287.403 80.1959V84.6938C287.403 85.0151 287.43 85.3572 287.483 85.7201C287.543 86.0831 287.629 86.3954 287.742 86.6572V86.8H286.019C285.936 86.6096 285.871 86.3567 285.823 86.0414C285.776 85.7201 285.752 85.4226 285.752 85.149ZM286.037 80.9455L286.055 82.1057H284.386C283.916 82.1057 283.497 82.1444 283.128 82.2217C282.759 82.2931 282.45 82.4032 282.2 82.5519C281.95 82.7007 281.76 82.8881 281.629 83.1142C281.498 83.3343 281.432 83.5931 281.432 83.8906C281.432 84.194 281.501 84.4707 281.638 84.7206C281.774 84.9705 281.98 85.1698 282.253 85.3185C282.533 85.4613 282.875 85.5327 283.28 85.5327C283.785 85.5327 284.232 85.4256 284.618 85.2114C285.005 84.9972 285.311 84.7355 285.538 84.4261C285.77 84.1167 285.895 83.8162 285.912 83.5247L286.617 84.319C286.576 84.5689 286.463 84.8455 286.278 85.149C286.094 85.4524 285.847 85.7439 285.538 86.0236C285.234 86.2972 284.871 86.5263 284.449 86.7107C284.032 86.8892 283.562 86.9785 283.039 86.9785C282.384 86.9785 281.81 86.8506 281.316 86.5947C280.828 86.3389 280.448 85.9968 280.174 85.5684C279.906 85.1341 279.772 84.6492 279.772 84.1137C279.772 83.5961 279.873 83.1409 280.076 82.7483C280.278 82.3496 280.57 82.0194 280.95 81.7576C281.331 81.4899 281.789 81.2876 282.325 81.1508C282.86 81.0139 283.458 80.9455 284.119 80.9455H286.037ZM293.864 85.622C294.257 85.622 294.62 85.5416 294.953 85.381C295.286 85.2204 295.56 85.0002 295.774 84.7206C295.988 84.435 296.11 84.1107 296.14 83.7478H297.711C297.681 84.319 297.487 84.8515 297.13 85.3453C296.779 85.8332 296.318 86.2288 295.747 86.5323C295.176 86.8297 294.548 86.9785 293.864 86.9785C293.138 86.9785 292.505 86.8506 291.963 86.5947C291.428 86.3389 290.981 85.9879 290.624 85.5416C290.273 85.0954 290.009 84.5837 289.83 84.0066C289.658 83.4236 289.571 82.8078 289.571 82.1593V81.7844C289.571 81.1359 289.658 80.5231 289.83 79.946C290.009 79.3629 290.273 78.8483 290.624 78.402C290.981 77.9558 291.428 77.6048 291.963 77.349C292.505 77.0931 293.138 76.9652 293.864 76.9652C294.62 76.9652 295.28 77.1199 295.845 77.4293C296.411 77.7327 296.854 78.1492 297.175 78.6787C297.502 79.2023 297.681 79.7972 297.711 80.4636H296.14C296.11 80.065 295.997 79.705 295.801 79.3837C295.61 79.0625 295.349 78.8066 295.015 78.6162C294.688 78.4199 294.304 78.3217 293.864 78.3217C293.358 78.3217 292.933 78.4229 292.588 78.6252C292.249 78.8215 291.978 79.0892 291.776 79.4284C291.579 79.7615 291.437 80.1334 291.347 80.5439C291.264 80.9485 291.222 81.362 291.222 81.7844V82.1593C291.222 82.5817 291.264 82.9982 291.347 83.4087C291.431 83.8192 291.57 84.1911 291.767 84.5242C291.969 84.8574 292.24 85.1252 292.579 85.3274C292.924 85.5238 293.352 85.622 293.864 85.622ZM301.066 84.8366V86.1663C301.066 86.7078 300.929 87.2789 300.656 87.8799C300.382 88.4867 299.998 88.9924 299.504 89.397L298.567 88.7455C298.758 88.4837 298.918 88.216 299.049 87.9423C299.18 87.6746 299.278 87.395 299.344 87.1034C299.415 86.8178 299.451 86.5144 299.451 86.1931V84.8366H301.066ZM309.491 84.1851L313.944 77.1437H315.604V86.8H313.944V79.7586L309.491 86.8H307.849V77.1437H309.491V84.1851ZM328.339 84.6046L331.624 77.1437H333.212L328.911 86.8H327.768L323.484 77.1437H325.073L328.339 84.6046ZM324.591 77.1437V86.8H322.94V77.1437H324.591ZM332.034 86.8V77.1437H333.694V86.8H332.034ZM337.71 80.4636H340.611C341.39 80.4636 342.047 80.6004 342.583 80.8741C343.118 81.1419 343.523 81.5137 343.797 81.9897C344.076 82.4597 344.216 82.9952 344.216 83.5961C344.216 84.0423 344.139 84.4618 343.984 84.8544C343.829 85.2412 343.597 85.5803 343.288 85.8718C342.984 86.1634 342.607 86.3924 342.155 86.559C341.708 86.7197 341.194 86.8 340.611 86.8H336.505V77.1437H338.156V85.4435H340.611C341.087 85.4435 341.467 85.3572 341.753 85.1847C342.039 85.0121 342.244 84.789 342.369 84.5153C342.494 84.2416 342.556 83.956 342.556 83.6586C342.556 83.367 342.494 83.0814 342.369 82.8018C342.244 82.5222 342.039 82.2901 341.753 82.1057C341.467 81.9153 341.087 81.8201 340.611 81.8201H337.71V80.4636ZM347.652 77.1437V86.8H346.001V77.1437H347.652ZM358.941 85.622C359.334 85.622 359.697 85.5416 360.03 85.381C360.363 85.2204 360.637 85.0002 360.851 84.7206C361.066 84.435 361.187 84.1107 361.217 83.7478H362.788C362.758 84.319 362.565 84.8515 362.208 85.3453C361.857 85.8332 361.396 86.2288 360.825 86.5323C360.253 86.8297 359.626 86.9785 358.941 86.9785C358.216 86.9785 357.582 86.8506 357.041 86.5947C356.505 86.3389 356.059 85.9879 355.702 85.5416C355.351 85.0954 355.086 84.5837 354.908 84.0066C354.735 83.4236 354.649 82.8078 354.649 82.1593V81.7844C354.649 81.1359 354.735 80.5231 354.908 79.946C355.086 79.3629 355.351 78.8483 355.702 78.402C356.059 77.9558 356.505 77.6048 357.041 77.349C357.582 77.0931 358.216 76.9652 358.941 76.9652C359.697 76.9652 360.357 77.1199 360.923 77.4293C361.488 77.7327 361.931 78.1492 362.252 78.6787C362.58 79.2023 362.758 79.7972 362.788 80.4636H361.217C361.187 80.065 361.074 79.705 360.878 79.3837C360.688 79.0625 360.426 78.8066 360.093 78.6162C359.766 78.4199 359.382 78.3217 358.941 78.3217C358.436 78.3217 358.01 78.4229 357.665 78.6252C357.326 78.8215 357.055 79.0892 356.853 79.4284C356.657 79.7615 356.514 80.1334 356.425 80.5439C356.341 80.9485 356.3 81.362 356.3 81.7844V82.1593C356.3 82.5817 356.341 82.9982 356.425 83.4087C356.508 83.8192 356.648 84.1911 356.844 84.5242C357.047 84.8574 357.317 85.1252 357.656 85.3274C358.001 85.5238 358.43 85.622 358.941 85.622ZM369.178 82.5519H366.01L365.992 81.2311H368.58C369.092 81.2311 369.517 81.1805 369.856 81.0794C370.201 80.9782 370.46 80.8265 370.633 80.6242C370.805 80.422 370.891 80.1721 370.891 79.8746C370.891 79.6425 370.841 79.4403 370.74 79.2677C370.644 79.0892 370.499 78.9435 370.302 78.8304C370.106 78.7114 369.862 78.6252 369.571 78.5716C369.285 78.5121 368.949 78.4824 368.562 78.4824H366.447V86.8H364.796V77.1437H368.562C369.175 77.1437 369.725 77.1972 370.213 77.3043C370.707 77.4114 371.126 77.575 371.471 77.7952C371.823 78.0094 372.09 78.283 372.275 78.6162C372.459 78.9494 372.551 79.3421 372.551 79.7943C372.551 80.0858 372.492 80.3625 372.373 80.6242C372.254 80.886 372.078 81.1181 371.846 81.3203C371.614 81.5226 371.329 81.6892 370.99 81.8201C370.65 81.9451 370.261 82.0254 369.82 82.0611L369.178 82.5519ZM369.178 86.8H365.412L366.233 85.4613H369.178C369.636 85.4613 370.017 85.4048 370.32 85.2917C370.624 85.1728 370.85 85.0062 370.998 84.792C371.153 84.5718 371.231 84.3101 371.231 84.0066C371.231 83.7032 371.153 83.4444 370.998 83.2302C370.85 83.0101 370.624 82.8435 370.32 82.7304C370.017 82.6114 369.636 82.5519 369.178 82.5519H366.67L366.688 81.2311H369.82L370.418 81.7309C370.948 81.7725 371.397 81.9034 371.766 82.1236C372.135 82.3437 372.415 82.6233 372.605 82.9625C372.795 83.2956 372.89 83.6586 372.89 84.0512C372.89 84.5034 372.804 84.902 372.632 85.2471C372.465 85.5922 372.221 85.8808 371.9 86.1128C371.579 86.3389 371.189 86.5114 370.731 86.6304C370.273 86.7435 369.755 86.8 369.178 86.8ZM377.058 82.1949H378.843L376.05 86.8H374.265L377.058 82.1949ZM378.442 77.1437H382.475V86.8H380.824V78.4824H378.442C377.971 78.4824 377.588 78.5627 377.29 78.7233C376.993 78.878 376.776 79.0803 376.639 79.3302C376.502 79.5801 376.434 79.8389 376.434 80.1066C376.434 80.3684 376.496 80.6213 376.621 80.8652C376.746 81.1032 376.942 81.2995 377.21 81.4542C377.478 81.6089 377.823 81.6863 378.245 81.6863H381.271V83.0428H378.245C377.692 83.0428 377.201 82.9684 376.773 82.8197C376.344 82.6709 375.981 82.4657 375.684 82.2039C375.386 81.9361 375.16 81.6238 375.006 81.2668C374.851 80.9039 374.774 80.5112 374.774 80.0888C374.774 79.6663 374.854 79.2766 375.015 78.9197C375.181 78.5627 375.419 78.2503 375.728 77.9826C376.044 77.7149 376.428 77.5096 376.88 77.3668C377.338 77.2181 377.858 77.1437 378.442 77.1437ZM388.062 82.5966L384.403 77.1437H386.393L388.892 81.1419H390.82L390.579 82.5966H388.062ZM388.963 82.427L386.161 86.8H384.073L387.919 81.2311L388.963 82.427ZM391.668 77.1437V86.8H390.017V77.1437H391.668ZM397.299 77.1437L393.64 82.5966H391.123L390.864 81.1419H392.801L395.3 77.1437H397.299ZM395.532 86.8L392.721 82.427L393.783 81.2311L397.62 86.8H395.532ZM402.975 86.9785C402.303 86.9785 401.693 86.8654 401.145 86.6393C400.604 86.4073 400.137 86.0831 399.744 85.6666C399.358 85.2501 399.06 84.7563 398.852 84.1851C398.644 83.6139 398.539 82.9892 398.539 82.311V81.9361C398.539 81.1508 398.655 80.4517 398.888 79.8389C399.12 79.2201 399.435 78.6965 399.834 78.2682C400.232 77.8398 400.684 77.5155 401.19 77.2954C401.696 77.0753 402.219 76.9652 402.761 76.9652C403.451 76.9652 404.046 77.0842 404.546 77.3222C405.051 77.5602 405.465 77.8933 405.786 78.3217C406.107 78.7441 406.345 79.2439 406.5 79.821C406.655 80.3922 406.732 81.0169 406.732 81.6952V82.4359H399.521V81.0883H405.081V80.9634C405.057 80.535 404.968 80.1185 404.813 79.7139C404.665 79.3094 404.427 78.9762 404.099 78.7144C403.772 78.4526 403.326 78.3217 402.761 78.3217C402.386 78.3217 402.041 78.402 401.725 78.5627C401.41 78.7174 401.139 78.9494 400.913 79.2588C400.687 79.5682 400.512 79.946 400.387 80.3922C400.262 80.8384 400.199 81.3531 400.199 81.9361V82.311C400.199 82.7691 400.262 83.2004 400.387 83.605C400.518 84.0036 400.705 84.3547 400.949 84.6581C401.199 84.9615 401.499 85.1995 401.85 85.3721C402.207 85.5446 402.612 85.6309 403.064 85.6309C403.647 85.6309 404.141 85.5119 404.546 85.2739C404.95 85.0359 405.304 84.7176 405.608 84.319L406.607 85.1133C406.399 85.4286 406.134 85.729 405.813 86.0146C405.492 86.3002 405.096 86.5323 404.626 86.7107C404.162 86.8892 403.612 86.9785 402.975 86.9785ZM414.211 84.6046L417.495 77.1437H419.084L414.782 86.8H413.64L409.356 77.1437H410.945L414.211 84.6046ZM410.463 77.1437V86.8H408.812V77.1437H410.463ZM417.906 86.8V77.1437H419.566V86.8H417.906ZM426.089 85.622C426.482 85.622 426.845 85.5416 427.178 85.381C427.511 85.2204 427.785 85.0002 427.999 84.7206C428.213 84.435 428.335 84.1107 428.365 83.7478H429.936C429.906 84.319 429.713 84.8515 429.356 85.3453C429.005 85.8332 428.544 86.2288 427.972 86.5323C427.401 86.8297 426.774 86.9785 426.089 86.9785C425.364 86.9785 424.73 86.8506 424.188 86.5947C423.653 86.3389 423.207 85.9879 422.85 85.5416C422.499 85.0954 422.234 84.5837 422.055 84.0066C421.883 83.4236 421.797 82.8078 421.797 82.1593V81.7844C421.797 81.1359 421.883 80.5231 422.055 79.946C422.234 79.3629 422.499 78.8483 422.85 78.402C423.207 77.9558 423.653 77.6048 424.188 77.349C424.73 77.0931 425.364 76.9652 426.089 76.9652C426.845 76.9652 427.505 77.1199 428.071 77.4293C428.636 77.7327 429.079 78.1492 429.4 78.6787C429.728 79.2023 429.906 79.7972 429.936 80.4636H428.365C428.335 80.065 428.222 79.705 428.026 79.3837C427.836 79.0625 427.574 78.8066 427.241 78.6162C426.913 78.4199 426.53 78.3217 426.089 78.3217C425.584 78.3217 425.158 78.4229 424.813 78.6252C424.474 78.8215 424.203 79.0892 424.001 79.4284C423.805 79.7615 423.662 80.1334 423.573 80.5439C423.489 80.9485 423.448 81.362 423.448 81.7844V82.1593C423.448 82.5817 423.489 82.9982 423.573 83.4087C423.656 83.8192 423.796 84.1911 423.992 84.5242C424.194 84.8574 424.465 85.1252 424.804 85.3274C425.149 85.5238 425.578 85.622 426.089 85.622ZM433.747 82.1949H435.531L432.738 86.8H430.953L433.747 82.1949ZM435.13 77.1437H439.164V86.8H437.513V78.4824H435.13C434.66 78.4824 434.276 78.5627 433.979 78.7233C433.681 78.878 433.464 79.0803 433.327 79.3302C433.19 79.5801 433.122 79.8389 433.122 80.1066C433.122 80.3684 433.184 80.6213 433.309 80.8652C433.434 81.1032 433.631 81.2995 433.898 81.4542C434.166 81.6089 434.511 81.6863 434.934 81.6863H437.959V83.0428H434.934C434.38 83.0428 433.889 82.9684 433.461 82.8197C433.033 82.6709 432.67 82.4657 432.372 82.2039C432.075 81.9361 431.849 81.6238 431.694 81.2668C431.539 80.9039 431.462 80.5112 431.462 80.0888C431.462 79.6663 431.542 79.2766 431.703 78.9197C431.869 78.5627 432.107 78.2503 432.417 77.9826C432.732 77.7149 433.116 77.5096 433.568 77.3668C434.026 77.2181 434.547 77.1437 435.13 77.1437ZM450.221 85.622C450.614 85.622 450.977 85.5416 451.31 85.381C451.643 85.2204 451.917 85.0002 452.131 84.7206C452.345 84.435 452.467 84.1107 452.497 83.7478H454.068C454.038 84.319 453.845 84.8515 453.488 85.3453C453.137 85.8332 452.675 86.2288 452.104 86.5323C451.533 86.8297 450.905 86.9785 450.221 86.9785C449.495 86.9785 448.862 86.8506 448.32 86.5947C447.785 86.3389 447.339 85.9879 446.982 85.5416C446.631 85.0954 446.366 84.5837 446.187 84.0066C446.015 83.4236 445.929 82.8078 445.929 82.1593V81.7844C445.929 81.1359 446.015 80.5231 446.187 79.946C446.366 79.3629 446.631 78.8483 446.982 78.402C447.339 77.9558 447.785 77.6048 448.32 77.349C448.862 77.0931 449.495 76.9652 450.221 76.9652C450.977 76.9652 451.637 77.1199 452.202 77.4293C452.768 77.7327 453.211 78.1492 453.532 78.6787C453.859 79.2023 454.038 79.7972 454.068 80.4636H452.497C452.467 80.065 452.354 79.705 452.158 79.3837C451.967 79.0625 451.706 78.8066 451.372 78.6162C451.045 78.4199 450.661 78.3217 450.221 78.3217C449.715 78.3217 449.29 78.4229 448.945 78.6252C448.606 78.8215 448.335 79.0892 448.133 79.4284C447.937 79.7615 447.794 80.1334 447.704 80.5439C447.621 80.9485 447.58 81.362 447.58 81.7844V82.1593C447.58 82.5817 447.621 82.9982 447.704 83.4087C447.788 83.8192 447.928 84.1911 448.124 84.5242C448.326 84.8574 448.597 85.1252 448.936 85.3274C449.281 85.5238 449.71 85.622 450.221 85.622ZM464.991 82.5519H461.823L461.805 81.2311H464.393C464.905 81.2311 465.33 81.1805 465.67 81.0794C466.015 80.9782 466.273 80.8265 466.446 80.6242C466.618 80.422 466.705 80.1721 466.705 79.8746C466.705 79.6425 466.654 79.4403 466.553 79.2677C466.458 79.0892 466.312 78.9435 466.116 78.8304C465.919 78.7114 465.675 78.6252 465.384 78.5716C465.098 78.5121 464.762 78.4824 464.375 78.4824H462.26V86.8H460.609V77.1437H464.375C464.988 77.1437 465.539 77.1972 466.026 77.3043C466.52 77.4114 466.94 77.575 467.285 77.7952C467.636 78.0094 467.904 78.283 468.088 78.6162C468.272 78.9494 468.365 79.3421 468.365 79.7943C468.365 80.0858 468.305 80.3625 468.186 80.6242C468.067 80.886 467.892 81.1181 467.66 81.3203C467.428 81.5226 467.142 81.6892 466.803 81.8201C466.464 81.9451 466.074 82.0254 465.634 82.0611L464.991 82.5519ZM464.991 86.8H461.225L462.046 85.4613H464.991C465.449 85.4613 465.83 85.4048 466.134 85.2917C466.437 85.1728 466.663 85.0062 466.812 84.792C466.967 84.5718 467.044 84.3101 467.044 84.0066C467.044 83.7032 466.967 83.4444 466.812 83.2302C466.663 83.0101 466.437 82.8435 466.134 82.7304C465.83 82.6114 465.449 82.5519 464.991 82.5519H462.483L462.501 81.2311H465.634L466.232 81.7309C466.761 81.7725 467.21 81.9034 467.579 82.1236C467.948 82.3437 468.228 82.6233 468.418 82.9625C468.609 83.2956 468.704 83.6586 468.704 84.0512C468.704 84.5034 468.618 84.902 468.445 85.2471C468.278 85.5922 468.034 85.8808 467.713 86.1128C467.392 86.3389 467.002 86.5114 466.544 86.6304C466.086 86.7435 465.568 86.8 464.991 86.8ZM476.611 85.149V80.178C476.611 79.7972 476.534 79.467 476.379 79.1874C476.23 78.9018 476.004 78.6817 475.701 78.527C475.397 78.3723 475.022 78.2949 474.576 78.2949C474.16 78.2949 473.794 78.3663 473.478 78.5091C473.169 78.6519 472.925 78.8393 472.747 79.0714C472.574 79.3034 472.488 79.5533 472.488 79.821H470.837C470.837 79.476 470.926 79.1338 471.105 78.7947C471.283 78.4556 471.539 78.1492 471.872 77.8755C472.211 77.5959 472.616 77.3757 473.086 77.2151C473.562 77.0485 474.091 76.9652 474.674 76.9652C475.376 76.9652 475.995 77.0842 476.531 77.3222C477.072 77.5602 477.494 77.9201 477.798 78.402C478.107 78.878 478.262 79.476 478.262 80.1959V84.6938C478.262 85.0151 478.289 85.3572 478.342 85.7201C478.402 86.0831 478.488 86.3954 478.601 86.6572V86.8H476.879C476.795 86.6096 476.73 86.3567 476.682 86.0414C476.635 85.7201 476.611 85.4226 476.611 85.149ZM476.897 80.9455L476.914 82.1057H475.245C474.775 82.1057 474.356 82.1444 473.987 82.2217C473.618 82.2931 473.309 82.4032 473.059 82.5519C472.809 82.7007 472.619 82.8881 472.488 83.1142C472.357 83.3343 472.291 83.5931 472.291 83.8906C472.291 84.194 472.36 84.4707 472.497 84.7206C472.634 84.9705 472.839 85.1698 473.113 85.3185C473.392 85.4613 473.734 85.5327 474.139 85.5327C474.645 85.5327 475.091 85.4256 475.478 85.2114C475.864 84.9972 476.171 84.7355 476.397 84.4261C476.629 84.1167 476.754 83.8162 476.772 83.5247L477.477 84.319C477.435 84.5689 477.322 84.8455 477.137 85.149C476.953 85.4524 476.706 85.7439 476.397 86.0236C476.093 86.2972 475.73 86.5263 475.308 86.7107C474.891 86.8892 474.421 86.9785 473.898 86.9785C473.243 86.9785 472.669 86.8506 472.175 86.5947C471.688 86.3389 471.307 85.9968 471.033 85.5684C470.765 85.1341 470.632 84.6492 470.632 84.1137C470.632 83.5961 470.733 83.1409 470.935 82.7483C471.137 82.3496 471.429 82.0194 471.81 81.7576C472.19 81.4899 472.648 81.2876 473.184 81.1508C473.719 81.0139 474.317 80.9455 474.978 80.9455H476.897ZM486.41 84.6046L489.694 77.1437H491.283L486.981 86.8H485.839L481.555 77.1437H483.144L486.41 84.6046ZM482.662 77.1437V86.8H481.011V77.1437H482.662ZM490.105 86.8V77.1437H491.765V86.8H490.105ZM496.209 84.1851L500.662 77.1437H502.322V86.8H500.662V79.7586L496.209 86.8H494.567V77.1437H496.209V84.1851ZM514.04 82.5519H510.872L510.854 81.2311H513.442C513.954 81.2311 514.379 81.1805 514.719 81.0794C515.064 80.9782 515.322 80.8265 515.495 80.6242C515.667 80.422 515.754 80.1721 515.754 79.8746C515.754 79.6425 515.703 79.4403 515.602 79.2677C515.507 79.0892 515.361 78.9435 515.165 78.8304C514.968 78.7114 514.724 78.6252 514.433 78.5716C514.147 78.5121 513.811 78.4824 513.424 78.4824H511.309V86.8H509.658V77.1437H513.424C514.037 77.1437 514.588 77.1972 515.075 77.3043C515.569 77.4114 515.989 77.575 516.334 77.7952C516.685 78.0094 516.953 78.283 517.137 78.6162C517.321 78.9494 517.414 79.3421 517.414 79.7943C517.414 80.0858 517.354 80.3625 517.235 80.6242C517.116 80.886 516.941 81.1181 516.709 81.3203C516.477 81.5226 516.191 81.6892 515.852 81.8201C515.513 81.9451 515.123 82.0254 514.683 82.0611L514.04 82.5519ZM514.04 86.8H510.274L511.095 85.4613H514.04C514.498 85.4613 514.879 85.4048 515.183 85.2917C515.486 85.1728 515.712 85.0062 515.861 84.792C516.016 84.5718 516.093 84.3101 516.093 84.0066C516.093 83.7032 516.016 83.4444 515.861 83.2302C515.712 83.0101 515.486 82.8435 515.183 82.7304C514.879 82.6114 514.498 82.5519 514.04 82.5519H511.532L511.55 81.2311H514.683L515.281 81.7309C515.81 81.7725 516.259 81.9034 516.628 82.1236C516.997 82.3437 517.277 82.6233 517.467 82.9625C517.658 83.2956 517.753 83.6586 517.753 84.0512C517.753 84.5034 517.667 84.902 517.494 85.2471C517.327 85.5922 517.084 85.8808 516.762 86.1128C516.441 86.3389 516.051 86.5114 515.593 86.6304C515.135 86.7435 514.617 86.8 514.04 86.8ZM198.22 95.9403H199.577C199.577 96.5233 199.488 96.9874 199.309 97.3325C199.131 97.6716 198.887 97.9334 198.577 98.1178C198.274 98.3023 197.929 98.4421 197.542 98.5373C197.161 98.6325 196.766 98.7247 196.355 98.8139C195.843 98.921 195.367 99.0906 194.927 99.3226C194.493 99.5487 194.118 99.87 193.803 100.286C193.493 100.703 193.264 101.244 193.115 101.911C192.973 102.577 192.934 103.401 192.999 104.383V105.204H191.643V104.383C191.643 103.282 191.747 102.321 191.955 101.5C192.17 100.679 192.47 99.986 192.857 99.4208C193.243 98.8556 193.702 98.4064 194.231 98.0732C194.767 97.74 195.356 97.511 195.998 97.386C196.462 97.2968 196.861 97.2016 197.194 97.1004C197.527 96.9933 197.78 96.8505 197.953 96.6721C198.131 96.4936 198.22 96.2496 198.22 95.9403ZM196.266 100.697C196.897 100.697 197.459 100.807 197.953 101.027C198.446 101.247 198.866 101.554 199.211 101.946C199.556 102.339 199.818 102.803 199.996 103.339C200.181 103.868 200.273 104.445 200.273 105.07V105.266C200.273 105.939 200.175 106.563 199.978 107.14C199.788 107.712 199.505 108.211 199.131 108.64C198.762 109.062 198.31 109.392 197.774 109.63C197.245 109.868 196.641 109.987 195.962 109.987C195.284 109.987 194.677 109.868 194.142 109.63C193.612 109.392 193.16 109.062 192.785 108.64C192.41 108.211 192.125 107.712 191.929 107.14C191.738 106.563 191.643 105.939 191.643 105.266V105.07C191.643 104.921 191.67 104.775 191.723 104.633C191.777 104.49 191.842 104.344 191.92 104.195C192.003 104.047 192.077 103.889 192.143 103.722C192.363 103.187 192.663 102.69 193.044 102.232C193.431 101.774 193.892 101.405 194.427 101.125C194.969 100.84 195.582 100.697 196.266 100.697ZM195.945 102.045C195.338 102.045 194.838 102.184 194.445 102.464C194.059 102.744 193.77 103.116 193.58 103.58C193.389 104.038 193.294 104.535 193.294 105.07V105.266C193.294 105.719 193.348 106.147 193.455 106.551C193.562 106.956 193.722 107.316 193.937 107.631C194.157 107.941 194.433 108.185 194.767 108.363C195.106 108.542 195.504 108.631 195.962 108.631C196.421 108.631 196.816 108.542 197.149 108.363C197.483 108.185 197.756 107.941 197.97 107.631C198.185 107.316 198.345 106.956 198.452 106.551C198.559 106.147 198.613 105.719 198.613 105.266V105.07C198.613 104.665 198.559 104.282 198.452 103.919C198.345 103.556 198.182 103.235 197.961 102.955C197.747 102.675 197.471 102.455 197.132 102.294C196.798 102.128 196.403 102.045 195.945 102.045ZM208.599 100.144V101.509H203.932V100.144H208.599ZM210.054 100.144V109.8H208.403V100.144H210.054ZM203.53 100.144H205.19L204.94 104.802C204.899 105.522 204.83 106.159 204.735 106.712C204.646 107.259 204.521 107.73 204.36 108.122C204.206 108.515 204.009 108.836 203.771 109.086C203.539 109.33 203.26 109.511 202.932 109.63C202.605 109.743 202.227 109.8 201.799 109.8H201.281V108.345L201.638 108.319C201.894 108.301 202.111 108.241 202.29 108.14C202.474 108.039 202.629 107.89 202.754 107.694C202.879 107.492 202.98 107.233 203.057 106.917C203.141 106.602 203.203 106.227 203.245 105.793C203.292 105.359 203.328 104.853 203.352 104.276L203.53 100.144ZM214.499 107.185L218.952 100.144H220.612V109.8H218.952V102.759L214.499 109.8H212.856V100.144H214.499V107.185ZM226.19 105.597L222.531 100.144H224.521L227.02 104.142H228.947L228.706 105.597H226.19ZM227.091 105.427L224.289 109.8H222.2L226.047 104.231L227.091 105.427ZM229.795 100.144V109.8H228.144V100.144H229.795ZM235.427 100.144L231.767 105.597H229.251L228.992 104.142H230.929L233.427 100.144H235.427ZM233.659 109.8L230.848 105.427L231.91 104.231L235.748 109.8H233.659ZM242.968 108.149V103.178C242.968 102.797 242.89 102.467 242.736 102.187C242.587 101.902 242.361 101.682 242.057 101.527C241.754 101.372 241.379 101.295 240.933 101.295C240.516 101.295 240.151 101.366 239.835 101.509C239.526 101.652 239.282 101.839 239.103 102.071C238.931 102.303 238.845 102.553 238.845 102.821H237.194C237.194 102.476 237.283 102.134 237.461 101.795C237.64 101.456 237.896 101.149 238.229 100.875C238.568 100.596 238.973 100.376 239.443 100.215C239.919 100.048 240.448 99.9652 241.031 99.9652C241.733 99.9652 242.352 100.084 242.887 100.322C243.429 100.56 243.851 100.92 244.155 101.402C244.464 101.878 244.619 102.476 244.619 103.196V107.694C244.619 108.015 244.646 108.357 244.699 108.72C244.759 109.083 244.845 109.395 244.958 109.657V109.8H243.235C243.152 109.61 243.087 109.357 243.039 109.041C242.992 108.72 242.968 108.423 242.968 108.149ZM243.253 103.946L243.271 105.106H241.602C241.132 105.106 240.713 105.144 240.344 105.222C239.975 105.293 239.666 105.403 239.416 105.552C239.166 105.701 238.975 105.888 238.845 106.114C238.714 106.334 238.648 106.593 238.648 106.891C238.648 107.194 238.717 107.471 238.854 107.721C238.99 107.97 239.196 108.17 239.469 108.319C239.749 108.461 240.091 108.533 240.496 108.533C241.001 108.533 241.448 108.426 241.834 108.211C242.221 107.997 242.527 107.735 242.754 107.426C242.986 107.117 243.111 106.816 243.128 106.525L243.833 107.319C243.792 107.569 243.679 107.846 243.494 108.149C243.31 108.452 243.063 108.744 242.754 109.024C242.45 109.297 242.087 109.526 241.665 109.711C241.248 109.889 240.778 109.978 240.255 109.978C239.6 109.978 239.026 109.851 238.532 109.595C238.044 109.339 237.664 108.997 237.39 108.568C237.122 108.134 236.988 107.649 236.988 107.114C236.988 106.596 237.089 106.141 237.292 105.748C237.494 105.35 237.786 105.019 238.166 104.758C238.547 104.49 239.005 104.288 239.541 104.151C240.076 104.014 240.674 103.946 241.335 103.946H243.253ZM249.001 107.185L253.454 100.144H255.114V109.8H253.454V102.759L249.001 109.8H247.359V100.144H249.001V107.185ZM252.553 96.6453H253.891C253.891 97.1094 253.784 97.5229 253.57 97.8858C253.356 98.2428 253.049 98.5224 252.651 98.7247C252.252 98.927 251.779 99.0281 251.232 99.0281C250.405 99.0281 249.75 98.808 249.268 98.3677C248.792 97.9215 248.554 97.3473 248.554 96.6453H249.893C249.893 96.9963 249.994 97.3057 250.197 97.5734C250.399 97.8412 250.744 97.975 251.232 97.975C251.708 97.975 252.047 97.8412 252.249 97.5734C252.451 97.3057 252.553 96.9963 252.553 96.6453ZM257.907 100.144H259.558V108.443H263.092V100.144H264.752V108.443H268.278V100.144H269.929V109.8H257.907V100.144ZM276.568 109.978C275.896 109.978 275.286 109.865 274.739 109.639C274.197 109.407 273.73 109.083 273.338 108.667C272.951 108.25 272.654 107.756 272.445 107.185C272.237 106.614 272.133 105.989 272.133 105.311V104.936C272.133 104.151 272.249 103.452 272.481 102.839C272.713 102.22 273.028 101.697 273.427 101.268C273.826 100.84 274.278 100.516 274.784 100.295C275.289 100.075 275.813 99.9652 276.354 99.9652C277.044 99.9652 277.639 100.084 278.139 100.322C278.645 100.56 279.058 100.893 279.38 101.322C279.701 101.744 279.939 102.244 280.094 102.821C280.248 103.392 280.326 104.017 280.326 104.695V105.436H273.115V104.088H278.675V103.963C278.651 103.535 278.562 103.119 278.407 102.714C278.258 102.309 278.02 101.976 277.693 101.714C277.366 101.453 276.919 101.322 276.354 101.322C275.979 101.322 275.634 101.402 275.319 101.563C275.004 101.717 274.733 101.949 274.507 102.259C274.281 102.568 274.105 102.946 273.98 103.392C273.855 103.838 273.793 104.353 273.793 104.936V105.311C273.793 105.769 273.855 106.2 273.98 106.605C274.111 107.004 274.299 107.355 274.543 107.658C274.792 107.962 275.093 108.2 275.444 108.372C275.801 108.545 276.205 108.631 276.658 108.631C277.241 108.631 277.735 108.512 278.139 108.274C278.544 108.036 278.898 107.718 279.201 107.319L280.201 108.113C279.992 108.429 279.728 108.729 279.406 109.015C279.085 109.3 278.689 109.532 278.219 109.711C277.755 109.889 277.205 109.978 276.568 109.978ZM286.26 109.978C285.588 109.978 284.978 109.865 284.431 109.639C283.89 109.407 283.422 109.083 283.03 108.667C282.643 108.25 282.346 107.756 282.137 107.185C281.929 106.614 281.825 105.989 281.825 105.311V104.936C281.825 104.151 281.941 103.452 282.173 102.839C282.405 102.22 282.72 101.697 283.119 101.268C283.518 100.84 283.97 100.516 284.476 100.295C284.981 100.075 285.505 99.9652 286.046 99.9652C286.736 99.9652 287.331 100.084 287.831 100.322C288.337 100.56 288.75 100.893 289.072 101.322C289.393 101.744 289.631 102.244 289.786 102.821C289.94 103.392 290.018 104.017 290.018 104.695V105.436H282.807V104.088H288.367V103.963C288.343 103.535 288.254 103.119 288.099 102.714C287.95 102.309 287.712 101.976 287.385 101.714C287.058 101.453 286.611 101.322 286.046 101.322C285.671 101.322 285.326 101.402 285.011 101.563C284.696 101.717 284.425 101.949 284.199 102.259C283.973 102.568 283.797 102.946 283.672 103.392C283.547 103.838 283.485 104.353 283.485 104.936V105.311C283.485 105.769 283.547 106.2 283.672 106.605C283.803 107.004 283.991 107.355 284.235 107.658C284.484 107.962 284.785 108.2 285.136 108.372C285.493 108.545 285.898 108.631 286.35 108.631C286.933 108.631 287.427 108.512 287.831 108.274C288.236 108.036 288.59 107.718 288.893 107.319L289.893 108.113C289.684 108.429 289.42 108.729 289.098 109.015C288.777 109.3 288.382 109.532 287.911 109.711C287.447 109.889 286.897 109.978 286.26 109.978ZM301.013 105.552H297.844L297.827 104.231H300.415C300.926 104.231 301.352 104.181 301.691 104.079C302.036 103.978 302.295 103.827 302.467 103.624C302.64 103.422 302.726 103.172 302.726 102.875C302.726 102.643 302.676 102.44 302.574 102.268C302.479 102.089 302.333 101.943 302.137 101.83C301.941 101.711 301.697 101.625 301.405 101.572C301.12 101.512 300.784 101.482 300.397 101.482H298.282V109.8H296.631V100.144H300.397C301.01 100.144 301.56 100.197 302.048 100.304C302.542 100.411 302.961 100.575 303.306 100.795C303.657 101.009 303.925 101.283 304.109 101.616C304.294 101.949 304.386 102.342 304.386 102.794C304.386 103.086 304.327 103.362 304.208 103.624C304.089 103.886 303.913 104.118 303.681 104.32C303.449 104.523 303.163 104.689 302.824 104.82C302.485 104.945 302.095 105.025 301.655 105.061L301.013 105.552ZM301.013 109.8H297.246L298.068 108.461H301.013C301.471 108.461 301.852 108.405 302.155 108.292C302.458 108.173 302.684 108.006 302.833 107.792C302.988 107.572 303.065 107.31 303.065 107.007C303.065 106.703 302.988 106.444 302.833 106.23C302.684 106.01 302.458 105.843 302.155 105.73C301.852 105.611 301.471 105.552 301.013 105.552H298.505L298.523 104.231H301.655L302.253 104.731C302.783 104.773 303.232 104.903 303.601 105.124C303.97 105.344 304.249 105.623 304.44 105.962C304.63 106.296 304.725 106.659 304.725 107.051C304.725 107.503 304.639 107.902 304.466 108.247C304.3 108.592 304.056 108.881 303.735 109.113C303.413 109.339 303.024 109.511 302.565 109.63C302.107 109.743 301.59 109.8 301.013 109.8ZM308.589 102V113.513H306.93V100.144H308.447L308.589 102ZM315.095 104.892V105.079C315.095 105.781 315.012 106.432 314.846 107.033C314.679 107.628 314.435 108.146 314.114 108.586C313.798 109.027 313.409 109.369 312.945 109.613C312.481 109.857 311.948 109.978 311.347 109.978C310.734 109.978 310.193 109.877 309.723 109.675C309.253 109.473 308.854 109.178 308.527 108.792C308.2 108.405 307.938 107.941 307.742 107.399C307.551 106.858 307.42 106.248 307.349 105.57V104.57C307.42 103.856 307.554 103.217 307.751 102.651C307.947 102.086 308.206 101.604 308.527 101.206C308.854 100.801 309.25 100.495 309.714 100.286C310.178 100.072 310.714 99.9652 311.32 99.9652C311.927 99.9652 312.466 100.084 312.936 100.322C313.406 100.554 313.801 100.887 314.123 101.322C314.444 101.756 314.685 102.277 314.846 102.884C315.012 103.484 315.095 104.154 315.095 104.892ZM313.435 105.079V104.892C313.435 104.41 313.385 103.957 313.284 103.535C313.183 103.107 313.025 102.732 312.811 102.411C312.603 102.083 312.335 101.827 312.008 101.643C311.68 101.453 311.291 101.357 310.838 101.357C310.422 101.357 310.059 101.429 309.75 101.572C309.446 101.714 309.187 101.908 308.973 102.152C308.759 102.39 308.584 102.663 308.447 102.973C308.316 103.276 308.218 103.592 308.152 103.919V106.23C308.271 106.647 308.438 107.039 308.652 107.408C308.866 107.771 309.152 108.066 309.509 108.292C309.866 108.512 310.315 108.622 310.856 108.622C311.303 108.622 311.686 108.53 312.008 108.345C312.335 108.155 312.603 107.896 312.811 107.569C313.025 107.242 313.183 106.867 313.284 106.444C313.385 106.016 313.435 105.561 313.435 105.079ZM321.209 109.978C320.536 109.978 319.927 109.865 319.379 109.639C318.838 109.407 318.371 109.083 317.978 108.667C317.591 108.25 317.294 107.756 317.086 107.185C316.877 106.614 316.773 105.989 316.773 105.311V104.936C316.773 104.151 316.889 103.452 317.121 102.839C317.353 102.22 317.669 101.697 318.067 101.268C318.466 100.84 318.918 100.516 319.424 100.295C319.93 100.075 320.453 99.9652 320.995 99.9652C321.685 99.9652 322.28 100.084 322.779 100.322C323.285 100.56 323.699 100.893 324.02 101.322C324.341 101.744 324.579 102.244 324.734 102.821C324.889 103.392 324.966 104.017 324.966 104.695V105.436H317.755V104.088H323.315V103.963C323.291 103.535 323.202 103.119 323.047 102.714C322.898 102.309 322.66 101.976 322.333 101.714C322.006 101.453 321.56 101.322 320.995 101.322C320.62 101.322 320.275 101.402 319.959 101.563C319.644 101.717 319.373 101.949 319.147 102.259C318.921 102.568 318.746 102.946 318.621 103.392C318.496 103.838 318.433 104.353 318.433 104.936V105.311C318.433 105.769 318.496 106.2 318.621 106.605C318.752 107.004 318.939 107.355 319.183 107.658C319.433 107.962 319.733 108.2 320.084 108.372C320.441 108.545 320.846 108.631 321.298 108.631C321.881 108.631 322.375 108.512 322.779 108.274C323.184 108.036 323.538 107.718 323.841 107.319L324.841 108.113C324.633 108.429 324.368 108.729 324.047 109.015C323.725 109.3 323.33 109.532 322.86 109.711C322.396 109.889 321.845 109.978 321.209 109.978ZM332.445 107.605L335.729 100.144H337.317L333.016 109.8H331.874L327.59 100.144H329.178L332.445 107.605ZM328.696 100.144V109.8H327.045V100.144H328.696ZM336.139 109.8V100.144H337.799V109.8H336.139ZM342.413 105.195H344.198L341.405 109.8H339.62L342.413 105.195ZM343.797 100.144H347.83V109.8H346.179V101.482H343.797C343.327 101.482 342.943 101.563 342.645 101.723C342.348 101.878 342.131 102.08 341.994 102.33C341.857 102.58 341.789 102.839 341.789 103.107C341.789 103.368 341.851 103.621 341.976 103.865C342.101 104.103 342.297 104.3 342.565 104.454C342.833 104.609 343.178 104.686 343.6 104.686H346.626V106.043H343.6C343.047 106.043 342.556 105.968 342.128 105.82C341.699 105.671 341.336 105.466 341.039 105.204C340.741 104.936 340.515 104.624 340.361 104.267C340.206 103.904 340.129 103.511 340.129 103.089C340.129 102.666 340.209 102.277 340.37 101.92C340.536 101.563 340.774 101.25 341.084 100.983C341.399 100.715 341.783 100.51 342.235 100.367C342.693 100.218 343.214 100.144 343.797 100.144Z" fill="white" fill-opacity="0.7"/>
</svg>
