<svg width="259" height="181" viewBox="0 0 259 181" fill="none" xmlns="http://www.w3.org/2000/svg">
<g filter="url(#filter0_d_14_61)">
<path d="M79 82.03C79 54.4158 101.386 32.03 129 32.03C156.614 32.03 179 54.4158 179 82.03C179 109.644 156.614 132.03 129 132.03C101.386 132.03 79 109.644 79 82.03Z" fill="white"/>
<g clip-path="url(#clip0_14_61)">
<g clip-path="url(#clip1_14_61)">
<path d="M129 85.03C130.657 85.03 132 83.6869 132 82.03C132 80.3732 130.657 79.03 129 79.03C127.343 79.03 126 80.3732 126 82.03C126 83.6869 127.343 85.03 129 85.03Z" fill="#FF005A"/>
<path d="M117 85.03C118.657 85.03 120 83.6869 120 82.03C120 80.3732 118.657 79.03 117 79.03C115.343 79.03 114 80.3732 114 82.03C114 83.6869 115.343 85.03 117 85.03Z" fill="#FF005A"/>
<path d="M141 85.03C142.657 85.03 144 83.6869 144 82.03C144 80.3732 142.657 79.03 141 79.03C139.343 79.03 138 80.3732 138 82.03C138 83.6869 139.343 85.03 141 85.03Z" fill="#FF005A"/>
</g>
</g>
</g>
<path d="M22.7891 164.848L29.9112 153.587H32.566V169.03H29.9112V157.769L22.7891 169.03H20.1629V153.587H22.7891V164.848ZM52.9333 165.519L58.1857 153.587H60.7262L53.8467 169.03H52.0198L45.1689 153.587H47.7094L52.9333 165.519ZM46.9387 153.587V169.03H44.2982V153.587H46.9387ZM58.8422 169.03V153.587H61.497V169.03H58.8422ZM76.2265 160.281V162.422H68.0624V160.281H76.2265ZM68.6191 153.587V169.03H65.9786V153.587H68.6191ZM78.3674 153.587V169.03H75.7127V153.587H78.3674ZM81.9213 161.48V161.151C81.9213 160.038 82.0831 159.006 82.4066 158.054C82.7301 157.093 83.1964 156.261 83.8054 155.556C84.4143 154.843 85.1518 154.291 86.0176 153.901C86.8835 153.501 87.8541 153.301 88.9293 153.301C90.014 153.301 90.9893 153.501 91.8552 153.901C92.7306 154.291 93.4728 154.843 94.0818 155.556C94.7003 156.261 95.1713 157.093 95.4948 158.054C95.8183 159.006 95.9801 160.038 95.9801 161.151V161.48C95.9801 162.593 95.8183 163.625 95.4948 164.577C95.1713 165.528 94.7003 166.361 94.0818 167.075C93.4728 167.779 92.7354 168.331 91.8695 168.73C91.0131 169.12 90.0426 169.315 88.9578 169.315C87.8731 169.315 86.8978 169.12 86.0319 168.73C85.166 168.331 84.4238 167.779 83.8054 167.075C83.1964 166.361 82.7301 165.528 82.4066 164.577C82.0831 163.625 81.9213 162.593 81.9213 161.48ZM84.5618 161.151V161.48C84.5618 162.25 84.6522 162.978 84.833 163.663C85.0138 164.339 85.285 164.938 85.6465 165.462C86.0176 165.985 86.4791 166.399 87.031 166.704C87.5829 166.999 88.2252 167.146 88.9578 167.146C89.681 167.146 90.3138 166.999 90.8561 166.704C91.408 166.399 91.8647 165.985 92.2263 165.462C92.5879 164.938 92.8591 164.339 93.0399 163.663C93.2302 162.978 93.3253 162.25 93.3253 161.48V161.151C93.3253 160.39 93.2302 159.672 93.0399 158.996C92.8591 158.311 92.5831 157.707 92.212 157.184C91.8505 156.651 91.3937 156.232 90.8419 155.928C90.2995 155.623 89.662 155.471 88.9293 155.471C88.2061 155.471 87.5686 155.623 87.0167 155.928C86.4744 156.232 86.0176 156.651 85.6465 157.184C85.285 157.707 85.0138 158.311 84.833 158.996C84.6522 159.672 84.5618 160.39 84.5618 161.151ZM109.268 153.587V155.771H102.132V169.03H99.4912V153.587H109.268ZM110.581 161.48V161.151C110.581 160.038 110.743 159.006 111.066 158.054C111.39 157.093 111.856 156.261 112.465 155.556C113.074 154.843 113.812 154.291 114.677 153.901C115.543 153.501 116.514 153.301 117.589 153.301C118.674 153.301 119.649 153.501 120.515 153.901C121.39 154.291 122.133 154.843 122.742 155.556C123.36 156.261 123.831 157.093 124.155 158.054C124.478 159.006 124.64 160.038 124.64 161.151V161.48C124.64 162.593 124.478 163.625 124.155 164.577C123.831 165.528 123.36 166.361 122.742 167.075C122.133 167.779 121.395 168.331 120.529 168.73C119.673 169.12 118.702 169.315 117.618 169.315C116.533 169.315 115.558 169.12 114.692 168.73C113.826 168.331 113.084 167.779 112.465 167.075C111.856 166.361 111.39 165.528 111.066 164.577C110.743 163.625 110.581 162.593 110.581 161.48ZM113.222 161.151V161.48C113.222 162.25 113.312 162.978 113.493 163.663C113.674 164.339 113.945 164.938 114.306 165.462C114.677 165.985 115.139 166.399 115.691 166.704C116.243 166.999 116.885 167.146 117.618 167.146C118.341 167.146 118.974 166.999 119.516 166.704C120.068 166.399 120.525 165.985 120.886 165.462C121.248 164.938 121.519 164.339 121.7 163.663C121.89 162.978 121.985 162.25 121.985 161.48V161.151C121.985 160.39 121.89 159.672 121.7 158.996C121.519 158.311 121.243 157.707 120.872 157.184C120.51 156.651 120.054 156.232 119.502 155.928C118.959 155.623 118.322 155.471 117.589 155.471C116.866 155.471 116.228 155.623 115.677 155.928C115.134 156.232 114.677 156.651 114.306 157.184C113.945 157.707 113.674 158.311 113.493 158.996C113.312 159.672 113.222 160.39 113.222 161.151ZM134.36 169.315C133.284 169.315 132.309 169.135 131.434 168.773C130.568 168.402 129.821 167.883 129.193 167.217C128.574 166.551 128.099 165.762 127.766 164.848C127.433 163.935 127.266 162.936 127.266 161.851V161.251C127.266 159.995 127.452 158.877 127.823 157.897C128.194 156.908 128.698 156.07 129.336 155.385C129.973 154.7 130.696 154.182 131.505 153.829C132.314 153.477 133.151 153.301 134.017 153.301C135.121 153.301 136.072 153.492 136.872 153.872C137.68 154.253 138.342 154.786 138.856 155.471C139.369 156.146 139.75 156.946 139.997 157.869C140.245 158.782 140.369 159.781 140.369 160.866V162.051H128.836V159.895H137.728V159.696C137.69 159.011 137.547 158.344 137.3 157.697C137.062 157.05 136.681 156.518 136.158 156.099C135.635 155.68 134.921 155.471 134.017 155.471C133.418 155.471 132.866 155.599 132.361 155.856C131.857 156.104 131.424 156.475 131.063 156.97C130.701 157.464 130.42 158.069 130.221 158.782C130.021 159.496 129.921 160.319 129.921 161.251V161.851C129.921 162.583 130.021 163.273 130.221 163.92C130.43 164.558 130.73 165.119 131.12 165.605C131.519 166.09 132 166.47 132.561 166.746C133.132 167.022 133.779 167.16 134.502 167.16C135.435 167.16 136.225 166.97 136.872 166.589C137.519 166.209 138.085 165.7 138.57 165.062L140.169 166.332C139.836 166.837 139.412 167.317 138.898 167.774C138.385 168.231 137.752 168.602 137 168.887C136.258 169.173 135.378 169.315 134.36 169.315ZM153.485 153.587H156.126L155.897 159.367C155.84 160.833 155.674 162.098 155.398 163.164C155.122 164.23 154.77 165.138 154.342 165.89C153.913 166.632 153.433 167.255 152.9 167.76C152.377 168.264 151.834 168.687 151.273 169.03H149.96L150.031 166.875L150.574 166.861C150.888 166.489 151.192 166.109 151.487 165.719C151.782 165.319 152.053 164.848 152.301 164.306C152.548 163.754 152.753 163.083 152.914 162.293C153.086 161.494 153.195 160.519 153.243 159.367L153.485 153.587ZM154.142 153.587H163.433V169.03H160.793V156.027H154.142V153.587ZM149.36 166.861H165.417V173.583H162.777V169.03H152.001V173.583H149.346L149.36 166.861ZM170.984 156.556V174.968H168.329V153.587H170.755L170.984 156.556ZM181.389 161.18V161.48C181.389 162.603 181.255 163.644 180.989 164.605C180.723 165.557 180.332 166.385 179.819 167.089C179.314 167.793 178.691 168.34 177.949 168.73C177.207 169.12 176.355 169.315 175.394 169.315C174.414 169.315 173.548 169.154 172.796 168.83C172.045 168.507 171.407 168.036 170.884 167.417C170.36 166.799 169.942 166.057 169.628 165.191C169.323 164.325 169.114 163.349 169 162.265V160.666C169.114 159.524 169.328 158.501 169.642 157.598C169.956 156.694 170.37 155.923 170.884 155.285C171.407 154.638 172.04 154.148 172.782 153.815C173.524 153.473 174.381 153.301 175.351 153.301C176.322 153.301 177.183 153.492 177.935 153.872C178.686 154.243 179.319 154.776 179.833 155.471C180.347 156.165 180.732 156.998 180.989 157.969C181.255 158.93 181.389 160 181.389 161.18ZM178.734 161.48V161.18C178.734 160.409 178.653 159.686 178.491 159.011C178.329 158.325 178.077 157.726 177.735 157.212C177.402 156.689 176.974 156.28 176.45 155.985C175.927 155.68 175.304 155.528 174.58 155.528C173.914 155.528 173.334 155.642 172.839 155.87C172.354 156.099 171.94 156.408 171.597 156.798C171.255 157.179 170.974 157.617 170.755 158.111C170.546 158.597 170.389 159.101 170.284 159.624V163.321C170.475 163.987 170.741 164.615 171.084 165.205C171.426 165.785 171.883 166.256 172.454 166.618C173.025 166.97 173.743 167.146 174.609 167.146C175.323 167.146 175.936 166.999 176.45 166.704C176.974 166.399 177.402 165.985 177.735 165.462C178.077 164.938 178.329 164.339 178.491 163.663C178.653 162.978 178.734 162.25 178.734 161.48ZM188.925 167.431L193.221 153.587H196.047L189.852 171.414C189.71 171.794 189.519 172.203 189.281 172.641C189.053 173.088 188.758 173.512 188.397 173.911C188.035 174.311 187.597 174.634 187.083 174.882C186.579 175.139 185.975 175.267 185.271 175.267C185.061 175.267 184.795 175.239 184.472 175.182C184.148 175.125 183.92 175.077 183.786 175.039L183.772 172.898C183.848 172.907 183.967 172.917 184.129 172.927C184.3 172.946 184.419 172.955 184.486 172.955C185.085 172.955 185.594 172.874 186.013 172.712C186.432 172.56 186.784 172.299 187.069 171.927C187.364 171.566 187.616 171.066 187.826 170.429L188.925 167.431ZM185.77 153.587L189.781 165.576L190.466 168.359L188.568 169.33L182.887 153.587H185.77ZM208.407 153.587V155.771H201.271V169.03H198.63V153.587H208.407ZM209.72 161.48V161.151C209.72 160.038 209.882 159.006 210.205 158.054C210.529 157.093 210.995 156.261 211.604 155.556C212.213 154.843 212.951 154.291 213.816 153.901C214.682 153.501 215.653 153.301 216.728 153.301C217.813 153.301 218.788 153.501 219.654 153.901C220.529 154.291 221.272 154.843 221.881 155.556C222.499 156.261 222.97 157.093 223.294 158.054C223.617 159.006 223.779 160.038 223.779 161.151V161.48C223.779 162.593 223.617 163.625 223.294 164.577C222.97 165.528 222.499 166.361 221.881 167.075C221.272 167.779 220.534 168.331 219.668 168.73C218.812 169.12 217.841 169.315 216.757 169.315C215.672 169.315 214.697 169.12 213.831 168.73C212.965 168.331 212.223 167.779 211.604 167.075C210.995 166.361 210.529 165.528 210.205 164.577C209.882 163.625 209.72 162.593 209.72 161.48ZM212.361 161.151V161.48C212.361 162.25 212.451 162.978 212.632 163.663C212.813 164.339 213.084 164.938 213.445 165.462C213.816 165.985 214.278 166.399 214.83 166.704C215.382 166.999 216.024 167.146 216.757 167.146C217.48 167.146 218.113 166.999 218.655 166.704C219.207 166.399 219.664 165.985 220.025 165.462C220.387 164.938 220.658 164.339 220.839 163.663C221.029 162.978 221.124 162.25 221.124 161.48V161.151C221.124 160.39 221.029 159.672 220.839 158.996C220.658 158.311 220.382 157.707 220.011 157.184C219.649 156.651 219.193 156.232 218.641 155.928C218.098 155.623 217.461 155.471 216.728 155.471C216.005 155.471 215.367 155.623 214.816 155.928C214.273 156.232 213.816 156.651 213.445 157.184C213.084 157.707 212.813 158.311 212.632 158.996C212.451 159.672 212.361 160.39 212.361 161.151ZM233.499 169.315C232.423 169.315 231.448 169.135 230.573 168.773C229.707 168.402 228.96 167.883 228.332 167.217C227.713 166.551 227.238 165.762 226.905 164.848C226.572 163.935 226.405 162.936 226.405 161.851V161.251C226.405 159.995 226.591 158.877 226.962 157.897C227.333 156.908 227.837 156.07 228.475 155.385C229.112 154.7 229.835 154.182 230.644 153.829C231.453 153.477 232.29 153.301 233.156 153.301C234.26 153.301 235.211 153.492 236.011 153.872C236.819 154.253 237.481 154.786 237.995 155.471C238.508 156.146 238.889 156.946 239.136 157.869C239.384 158.782 239.507 159.781 239.507 160.866V162.051H227.975V159.895H236.867V159.696C236.829 159.011 236.686 158.344 236.439 157.697C236.201 157.05 235.82 156.518 235.297 156.099C234.774 155.68 234.06 155.471 233.156 155.471C232.557 155.471 232.005 155.599 231.5 155.856C230.996 156.104 230.563 156.475 230.202 156.97C229.84 157.464 229.559 158.069 229.36 158.782C229.16 159.496 229.06 160.319 229.06 161.251V161.851C229.06 162.583 229.16 163.273 229.36 163.92C229.569 164.558 229.869 165.119 230.259 165.605C230.658 166.09 231.139 166.47 231.7 166.746C232.271 167.022 232.918 167.16 233.641 167.16C234.574 167.16 235.364 166.97 236.011 166.589C236.658 166.209 237.224 165.7 237.709 165.062L239.308 166.332C238.975 166.837 238.551 167.317 238.037 167.774C237.524 168.231 236.891 168.602 236.139 168.887C235.397 169.173 234.517 169.315 233.499 169.315Z" fill="white"/>
<defs>
<filter id="filter0_d_14_61" x="39" y="0.0300293" width="180" height="180" filterUnits="userSpaceOnUse" color-interpolation-filters="sRGB">
<feFlood flood-opacity="0" result="BackgroundImageFix"/>
<feColorMatrix in="SourceAlpha" type="matrix" values="0 0 0 0 0 0 0 0 0 0 0 0 0 0 0 0 0 0 127 0" result="hardAlpha"/>
<feOffset dy="8"/>
<feGaussianBlur stdDeviation="20"/>
<feComposite in2="hardAlpha" operator="out"/>
<feColorMatrix type="matrix" values="0 0 0 0 0 0 0 0 0 0 0 0 0 0 0 0 0 0 0.08 0"/>
<feBlend mode="normal" in2="BackgroundImageFix" result="effect1_dropShadow_14_61"/>
<feBlend mode="normal" in="SourceGraphic" in2="effect1_dropShadow_14_61" result="shape"/>
</filter>
<clipPath id="clip0_14_61">
<rect width="48" height="48" fill="white" transform="translate(105 58.03)"/>
</clipPath>
<clipPath id="clip1_14_61">
<rect width="48" height="48" fill="white" transform="translate(105 58.03)"/>
</clipPath>
</defs>
</svg>
