<svg width="438" height="161" viewBox="0 0 438 161" fill="none" xmlns="http://www.w3.org/2000/svg">
<rect width="438" height="161" fill="#1F4C60"/>
<path d="M158.63 63.7789L146.414 47.4792H142.544V63.7789H137.057V27.4152H142.544V42.7739H144.337L158.08 27.4152H164.774L150.232 43.6972L165.324 63.7789H158.63ZM171.334 74.0061C170.541 74.0061 169.819 73.941 169.168 73.8108C168.517 73.6925 168.032 73.5623 167.712 73.4202L168.991 69.0701C169.961 69.3305 170.825 69.4429 171.583 69.4074C172.341 69.3719 173.009 69.0878 173.589 68.5551C174.181 68.0225 174.702 67.1524 175.152 65.9451L175.809 64.134L165.83 36.5061H171.512L178.419 57.6709H178.703L185.61 36.5061H191.31L180.07 67.4188C179.549 68.8392 178.886 70.0407 178.082 71.0232C177.277 72.0175 176.318 72.7632 175.205 73.2604C174.092 73.7576 172.802 74.0061 171.334 74.0061ZM196.299 63.7789V36.5061H218.547V63.7789H213.344V41.0871H201.466V63.7789H196.299ZM230.847 56.3392L242.868 36.5061H248.585V63.7789H243.382V43.928L231.415 63.7789H225.645V36.5061H230.847V56.3392ZM252.34 41.0871V36.5061H275.352V41.0871H266.456V63.7789H261.271V41.0871H252.34ZM284.962 45.8811H292.881C296.219 45.8811 298.788 46.7097 300.587 48.3669C302.386 50.0241 303.286 52.1607 303.286 54.7767C303.286 56.4813 302.883 58.0142 302.078 59.3755C301.273 60.7367 300.096 61.8139 298.545 62.607C296.994 63.3882 295.106 63.7789 292.881 63.7789H280.967V36.5061H286.169V59.1979H292.881C294.408 59.1979 295.663 58.8014 296.645 58.0083C297.628 57.2033 298.119 56.1794 298.119 54.9365C298.119 53.6226 297.628 52.5514 296.645 51.7228C295.663 50.8823 294.408 50.4621 292.881 50.4621H284.962V45.8811ZM171.343 87.3499L173.545 90.7057C172.728 91.4515 171.799 91.9841 170.757 92.3037C169.727 92.6115 168.538 92.8068 167.188 92.8897C165.839 92.9607 164.294 93.0258 162.554 93.085C160.589 93.1442 158.973 93.5703 157.707 94.3634C156.44 95.1446 155.464 96.3047 154.777 97.8435C154.102 99.3705 153.664 101.288 153.463 103.596H153.801C154.688 101.904 155.919 100.637 157.494 99.7966C159.08 98.9562 160.861 98.536 162.838 98.536C165.04 98.536 166.999 99.039 168.715 100.045C170.432 101.051 171.781 102.525 172.764 104.466C173.758 106.396 174.255 108.757 174.255 111.551C174.255 114.38 173.734 116.824 172.693 118.884C171.663 120.944 170.207 122.536 168.325 123.66C166.455 124.773 164.247 125.329 161.702 125.329C159.157 125.329 156.937 124.755 155.044 123.607C153.161 122.447 151.7 120.731 150.658 118.458C149.628 116.185 149.113 113.38 149.113 110.042V107.343C149.113 101.105 150.226 96.4112 152.451 93.2625C154.677 90.1139 158.003 88.4981 162.43 88.4152C163.862 88.3797 165.141 88.3738 166.265 88.3975C167.39 88.4093 168.372 88.356 169.213 88.2377C170.065 88.1075 170.775 87.8115 171.343 87.3499ZM161.72 120.873C163.199 120.873 164.472 120.5 165.537 119.754C166.614 118.996 167.443 117.925 168.023 116.54C168.603 115.155 168.893 113.522 168.893 111.64C168.893 109.793 168.603 108.225 168.023 106.934C167.443 105.644 166.614 104.662 165.537 103.987C164.46 103.3 163.17 102.957 161.666 102.957C160.554 102.957 159.559 103.152 158.683 103.543C157.807 103.922 157.056 104.484 156.428 105.23C155.813 105.976 155.334 106.887 154.99 107.964C154.659 109.03 154.481 110.255 154.458 111.64C154.458 114.457 155.103 116.7 156.393 118.369C157.695 120.038 159.471 120.873 161.72 120.873ZM185.388 117.339L197.409 97.5061H203.126V124.779H197.923V104.928L185.956 124.779H180.186V97.5061H185.388V117.339ZM208.115 124.779L208.098 120.18H209.074C209.832 120.18 210.465 120.02 210.974 119.701C211.495 119.369 211.921 118.813 212.252 118.032C212.584 117.25 212.838 116.173 213.016 114.8C213.193 113.415 213.324 111.675 213.406 109.58L213.886 97.5061H232.92V124.779H227.718V102.087H218.804L218.378 111.356C218.272 113.605 218.041 115.57 217.686 117.25C217.342 118.931 216.839 120.334 216.176 121.459C215.513 122.571 214.661 123.406 213.62 123.962C212.578 124.507 211.311 124.779 209.82 124.779H208.115ZM251.754 125.329C249.067 125.329 246.753 124.755 244.812 123.607C242.882 122.447 241.391 120.819 240.337 118.724C239.296 116.617 238.775 114.149 238.775 111.32C238.775 108.527 239.296 106.064 240.337 103.934C241.391 101.803 242.859 100.14 244.741 98.9444C246.635 97.7488 248.848 97.151 251.381 97.151C252.92 97.151 254.412 97.4055 255.856 97.9145C257.3 98.4235 258.596 99.2225 259.744 100.312C260.893 101.401 261.798 102.815 262.461 104.555C263.124 106.283 263.455 108.384 263.455 110.858V112.741H241.776V108.763H258.253C258.253 107.366 257.969 106.129 257.401 105.052C256.832 103.963 256.033 103.105 255.004 102.478C253.986 101.85 252.79 101.537 251.417 101.537C249.925 101.537 248.623 101.904 247.511 102.638C246.41 103.36 245.558 104.307 244.954 105.478C244.362 106.638 244.066 107.899 244.066 109.26V112.368C244.066 114.191 244.386 115.741 245.025 117.02C245.676 118.298 246.581 119.275 247.741 119.949C248.902 120.612 250.257 120.944 251.808 120.944C252.814 120.944 253.731 120.802 254.56 120.518C255.388 120.222 256.104 119.784 256.708 119.204C257.312 118.624 257.773 117.907 258.093 117.055L263.118 117.961C262.715 119.44 261.993 120.736 260.952 121.849C259.922 122.95 258.626 123.808 257.063 124.424C255.513 125.027 253.743 125.329 251.754 125.329ZM266.94 102.087V97.5061H289.951V102.087H281.056V124.779H275.871V102.087H266.94Z" fill="white"/>
<rect x="10.9683" y="12.1357" width="416.063" height="136.729" fill="white"/>
<rect x="21.9365" y="24.2714" width="394.127" height="112.457" fill="#1F4C60"/>
<path d="M115.893 90.407L107.342 78.9972H104.632V90.407H100.792V64.9525H104.632V75.7036H105.888L115.508 64.9525H120.193L110.014 76.3499L120.579 90.407H115.893ZM124.786 97.5661C124.231 97.5661 123.725 97.5206 123.27 97.4294C122.814 97.3466 122.474 97.2554 122.25 97.156L123.145 94.1109C123.825 94.2932 124.43 94.3719 124.96 94.347C125.49 94.3222 125.958 94.1233 126.364 93.7504C126.779 93.3776 127.143 92.7685 127.458 91.9234L127.918 90.6556L120.933 71.3161H124.91L129.745 86.1315H129.944L134.779 71.3161H138.769L130.901 92.955C130.536 93.9493 130.072 94.7903 129.509 95.4781C128.946 96.1741 128.274 96.6961 127.495 97.0441C126.717 97.3921 125.813 97.5661 124.786 97.5661ZM142.261 90.407V71.3161H157.835V90.407H154.193V74.5228H145.878V90.407H142.261ZM166.445 85.1993L174.859 71.3161H178.861V90.407H175.22V76.5114L166.843 90.407H162.803V71.3161H166.445V85.1993ZM181.49 74.5228V71.3161H197.598V74.5228H191.371V90.407H187.742V74.5228H181.49ZM204.325 77.8786H209.869C212.205 77.8786 214.003 78.4587 215.263 79.6187C216.522 80.7787 217.152 82.2743 217.152 84.1056C217.152 85.2987 216.87 86.3718 216.307 87.3247C215.743 88.2775 214.919 89.0316 213.833 89.5867C212.748 90.1336 211.426 90.407 209.869 90.407H201.529V71.3161H205.17V87.2004H209.869C210.937 87.2004 211.816 86.9228 212.503 86.3676C213.191 85.8042 213.535 85.0874 213.535 84.2174C213.535 83.2977 213.191 82.5478 212.503 81.9678C211.816 81.3795 210.937 81.0853 209.869 81.0853H204.325V77.8786ZM245.31 64.2068L246.851 66.5558C246.279 67.0779 245.629 67.4507 244.9 67.6744C244.179 67.8899 243.346 68.0266 242.401 68.0846C241.457 68.1343 240.375 68.1799 239.157 68.2213C237.782 68.2627 236.651 68.561 235.764 69.1162C234.878 69.6631 234.194 70.4751 233.714 71.5523C233.241 72.6212 232.935 73.9635 232.794 75.5793H233.03C233.651 74.3944 234.513 73.5078 235.615 72.9195C236.725 72.3312 237.973 72.037 239.356 72.037C240.897 72.037 242.269 72.3892 243.47 73.0935C244.672 73.7978 245.616 74.8294 246.304 76.1883C247 77.5389 247.348 79.192 247.348 81.1475C247.348 83.1278 246.984 84.8389 246.254 86.2806C245.533 87.7224 244.514 88.8368 243.197 89.624C241.888 90.4029 240.342 90.7923 238.561 90.7923C236.779 90.7923 235.226 90.3905 233.9 89.5867C232.582 88.7747 231.559 87.5732 230.83 85.9823C230.109 84.3914 229.749 82.4276 229.749 80.091V78.2018C229.749 73.8351 230.528 70.5497 232.085 68.3456C233.643 66.1415 235.971 65.0105 239.07 64.9525C240.073 64.9276 240.968 64.9235 241.755 64.9401C242.542 64.9484 243.23 64.9111 243.818 64.8282C244.415 64.7371 244.912 64.5299 245.31 64.2068ZM238.573 87.6727C239.609 87.6727 240.5 87.4117 241.245 86.8896C242 86.3593 242.58 85.6095 242.986 84.64C243.392 83.6705 243.595 82.5271 243.595 81.2096C243.595 79.917 243.392 78.8191 242.986 77.9159C242.58 77.0127 242 76.325 241.245 75.8527C240.491 75.3721 239.588 75.1318 238.536 75.1318C237.757 75.1318 237.061 75.2685 236.448 75.542C235.835 75.8071 235.309 76.2007 234.869 76.7227C234.439 77.2448 234.103 77.8828 233.863 78.6368C233.631 79.3825 233.506 80.2401 233.49 81.2096C233.49 83.1817 233.941 84.7519 234.845 85.9202C235.756 87.0885 236.999 87.6727 238.573 87.6727ZM255.141 85.1993L263.555 71.3161H267.558V90.407H263.916V76.5114L255.539 90.407H251.499V71.3161H255.141V85.1993ZM271.05 90.407L271.038 87.1879H271.721C272.252 87.1879 272.695 87.0761 273.051 86.8524C273.416 86.6203 273.714 86.2309 273.946 85.684C274.178 85.1372 274.356 84.3831 274.481 83.422C274.605 82.4525 274.696 81.2345 274.754 79.7678L275.09 71.3161H288.413V90.407H284.772V74.5228H278.532L278.234 81.0107C278.16 82.5851 277.998 83.9605 277.749 85.1372C277.509 86.3138 277.157 87.2957 276.693 88.0828C276.229 88.8617 275.632 89.4459 274.903 89.8353C274.174 90.2165 273.287 90.407 272.243 90.407H271.05ZM301.597 90.7923C299.717 90.7923 298.097 90.3905 296.738 89.5867C295.387 88.7747 294.343 87.6354 293.606 86.1688C292.876 84.6939 292.512 82.9662 292.512 80.9859C292.512 79.0304 292.876 77.3069 293.606 75.8154C294.343 74.3239 295.371 73.1598 296.688 72.3229C298.014 71.486 299.563 71.0676 301.336 71.0676C302.414 71.0676 303.458 71.2457 304.469 71.602C305.479 71.9583 306.387 72.5176 307.191 73.2799C307.994 74.0422 308.628 75.0324 309.092 76.2504C309.556 77.4602 309.788 78.931 309.788 80.6627V81.9802H294.612V79.1961H306.146C306.146 78.2184 305.948 77.3525 305.55 76.5984C305.152 75.8361 304.593 75.2354 303.872 74.7962C303.159 74.3571 302.323 74.1375 301.361 74.1375C300.317 74.1375 299.406 74.3944 298.627 74.9081C297.856 75.4136 297.26 76.0764 296.837 76.8967C296.423 77.7088 296.216 78.5912 296.216 79.5441V81.7192C296.216 82.9952 296.439 84.0807 296.887 84.9756C297.343 85.8705 297.977 86.5541 298.789 87.0264C299.601 87.4904 300.549 87.7224 301.635 87.7224C302.339 87.7224 302.981 87.623 303.561 87.4241C304.141 87.2169 304.643 86.9104 305.065 86.5043C305.488 86.0983 305.811 85.597 306.035 85.0004L309.552 85.6343C309.27 86.6701 308.765 87.5774 308.036 88.3563C307.315 89.1269 306.407 89.7276 305.314 90.1585C304.228 90.581 302.99 90.7923 301.597 90.7923ZM312.227 74.5228V71.3161H328.335V74.5228H322.108V90.407H318.479V74.5228H312.227Z" fill="white"/>
</svg>
