<svg width="599" height="200" viewBox="0 0 599 200" fill="none" xmlns="http://www.w3.org/2000/svg">
<rect y="0.780029" width="599" height="199" fill="#1F4C60"/>
<path d="M160.016 113.78L147.801 97.4803H143.93V113.78H138.443V77.4164H143.93V92.7751H145.723L159.466 77.4164H166.16L151.618 93.6984L166.71 113.78H160.016ZM172.721 124.007C171.928 124.007 171.205 123.942 170.554 123.812C169.903 123.694 169.418 123.563 169.098 123.421L170.377 119.071C171.348 119.332 172.212 119.444 172.969 119.409C173.727 119.373 174.396 119.089 174.976 118.556C175.567 118.024 176.088 117.154 176.538 115.946L177.195 114.135L167.216 86.5073H172.898L179.805 107.672H180.089L186.996 86.5073H192.696L181.456 117.42C180.936 118.84 180.273 120.042 179.468 121.024C178.663 122.019 177.704 122.764 176.591 123.262C175.479 123.759 174.188 124.007 172.721 124.007ZM197.685 113.78V86.5073H219.933V113.78H214.731V91.0883H202.852V113.78H197.685ZM232.233 106.34L244.254 86.5073H249.971V113.78H244.769V93.9292L232.801 113.78H227.031V86.5073H232.233V106.34ZM253.726 91.0883V86.5073H276.738V91.0883H267.842V113.78H262.658V91.0883H253.726ZM286.348 95.8823H294.267C297.605 95.8823 300.174 96.7109 301.973 98.3681C303.772 100.025 304.672 102.162 304.672 104.778C304.672 106.482 304.27 108.015 303.465 109.377C302.66 110.738 301.482 111.815 299.931 112.608C298.381 113.389 296.493 113.78 294.267 113.78H282.353V86.5073H287.555V109.199H294.267C295.794 109.199 297.049 108.803 298.031 108.009C299.014 107.205 299.505 106.181 299.505 104.938C299.505 103.624 299.014 102.553 298.031 101.724C297.049 100.883 295.794 100.463 294.267 100.463H286.348V95.8823ZM344.897 76.3511L347.099 79.7069C346.282 80.4526 345.353 80.9853 344.312 81.3049C343.282 81.6127 342.092 81.808 340.743 81.8908C339.393 81.9618 337.848 82.027 336.108 82.0861C334.143 82.1453 332.528 82.5715 331.261 83.3645C329.995 84.1458 329.018 85.3058 328.331 86.8447C327.657 88.3716 327.219 90.2893 327.017 92.5975H327.355C328.243 90.9048 329.474 89.6382 331.048 88.7978C332.634 87.9573 334.416 87.5371 336.392 87.5371C338.594 87.5371 340.553 88.0402 342.27 89.0464C343.986 90.0525 345.335 91.5262 346.318 93.4675C347.312 95.397 347.809 97.7585 347.809 100.552C347.809 103.381 347.289 105.825 346.247 107.885C345.217 109.945 343.761 111.537 341.879 112.661C340.009 113.774 337.801 114.33 335.256 114.33C332.711 114.33 330.492 113.756 328.598 112.608C326.716 111.448 325.254 109.732 324.212 107.459C323.182 105.186 322.667 102.381 322.667 99.0428V96.3439C322.667 90.1058 323.78 85.4124 326.005 82.2637C328.231 79.115 331.557 77.4993 335.984 77.4164C337.416 77.3809 338.695 77.375 339.819 77.3986C340.944 77.4105 341.926 77.3572 342.767 77.2388C343.619 77.1086 344.329 76.8127 344.897 76.3511ZM335.274 109.874C336.754 109.874 338.026 109.501 339.091 108.755C340.169 107.998 340.997 106.926 341.577 105.541C342.157 104.156 342.447 102.523 342.447 100.641C342.447 98.7942 342.157 97.2258 341.577 95.9356C340.997 94.6453 340.169 93.6628 339.091 92.9881C338.014 92.3016 336.724 91.9583 335.221 91.9583C334.108 91.9583 333.114 92.1536 332.238 92.5442C331.362 92.923 330.61 93.4853 329.983 94.231C329.367 94.9768 328.888 95.8882 328.544 96.9654C328.213 98.0307 328.035 99.2559 328.012 100.641C328.012 103.458 328.657 105.701 329.947 107.37C331.249 109.039 333.025 109.874 335.274 109.874ZM358.942 106.34L370.963 86.5073H376.68V113.78H371.478V93.9292L359.51 113.78H353.74V86.5073H358.942V106.34ZM381.669 113.78L381.652 109.181H382.628C383.386 109.181 384.019 109.022 384.528 108.702C385.049 108.37 385.475 107.814 385.807 107.033C386.138 106.252 386.392 105.174 386.57 103.801C386.748 102.416 386.878 100.676 386.961 98.5812L387.44 86.5073H406.474V113.78H401.272V91.0883H392.358L391.932 100.357C391.826 102.606 391.595 104.571 391.24 106.252C390.897 107.932 390.393 109.335 389.731 110.46C389.068 111.572 388.215 112.407 387.174 112.963C386.132 113.508 384.866 113.78 383.374 113.78H381.669ZM425.309 114.33C422.621 114.33 420.307 113.756 418.366 112.608C416.437 111.448 414.945 109.821 413.892 107.725C412.85 105.618 412.329 103.15 412.329 100.321C412.329 97.5277 412.85 95.0655 413.892 92.9349C414.945 90.8042 416.413 89.1411 418.295 87.9455C420.189 86.75 422.402 86.1522 424.936 86.1522C426.474 86.1522 427.966 86.4067 429.41 86.9157C430.854 87.4247 432.15 88.2237 433.299 89.3127C434.447 90.4017 435.352 91.8163 436.015 93.5563C436.678 95.2845 437.01 97.3856 437.01 99.8596V101.742H415.33V97.7644H431.807C431.807 96.3676 431.523 95.1306 430.955 94.0535C430.387 92.9645 429.588 92.1063 428.558 91.4789C427.54 90.8515 426.344 90.5378 424.971 90.5378C423.48 90.5378 422.178 90.9048 421.065 91.6387C419.964 92.3608 419.112 93.3077 418.508 94.4796C417.916 95.6396 417.62 96.9003 417.62 98.2616V101.369C417.62 103.192 417.94 104.742 418.579 106.021C419.23 107.299 420.136 108.276 421.296 108.95C422.456 109.613 423.811 109.945 425.362 109.945C426.368 109.945 427.285 109.803 428.114 109.519C428.943 109.223 429.659 108.785 430.262 108.205C430.866 107.625 431.328 106.909 431.647 106.056L436.672 106.962C436.27 108.441 435.548 109.738 434.506 110.85C433.476 111.951 432.18 112.809 430.617 113.425C429.067 114.029 427.297 114.33 425.309 114.33ZM440.494 91.0883V86.5073H463.505V91.0883H454.61V113.78H449.425V91.0883H440.494Z" fill="white"/>
<rect x="15" y="15.78" width="569" height="169" fill="white"/>
<rect x="30" y="30.78" width="539" height="139" fill="#1F4C60"/>
<path d="M152.516 114.78L140.301 98.4803H136.43V114.78H130.943V78.4164H136.43V93.7751H138.223L151.966 78.4164H158.66L144.118 94.6984L159.21 114.78H152.516ZM165.221 125.007C164.428 125.007 163.705 124.942 163.054 124.812C162.403 124.694 161.918 124.563 161.598 124.421L162.877 120.071C163.848 120.332 164.712 120.444 165.469 120.409C166.227 120.373 166.896 120.089 167.476 119.556C168.067 119.024 168.588 118.154 169.038 116.946L169.695 115.135L159.716 87.5073H165.398L172.305 108.672H172.589L179.496 87.5073H185.196L173.956 118.42C173.436 119.84 172.773 121.042 171.968 122.024C171.163 123.019 170.204 123.764 169.091 124.262C167.979 124.759 166.688 125.007 165.221 125.007ZM190.185 114.78V87.5073H212.433V114.78H207.231V92.0883H195.352V114.78H190.185ZM224.733 107.34L236.754 87.5073H242.471V114.78H237.269V94.9292L225.301 114.78H219.531V87.5073H224.733V107.34ZM246.226 92.0883V87.5073H269.238V92.0883H260.342V114.78H255.158V92.0883H246.226ZM278.848 96.8823H286.767C290.105 96.8823 292.674 97.7109 294.473 99.3681C296.272 101.025 297.172 103.162 297.172 105.778C297.172 107.482 296.77 109.015 295.965 110.377C295.16 111.738 293.982 112.815 292.431 113.608C290.881 114.389 288.993 114.78 286.767 114.78H274.853V87.5073H280.055V110.199H286.767C288.294 110.199 289.549 109.803 290.531 109.009C291.514 108.205 292.005 107.181 292.005 105.938C292.005 104.624 291.514 103.553 290.531 102.724C289.549 101.883 288.294 101.463 286.767 101.463H278.848V96.8823ZM337.397 77.3511L339.599 80.7069C338.782 81.4526 337.853 81.9853 336.812 82.3049C335.782 82.6127 334.592 82.808 333.243 82.8908C331.893 82.9618 330.348 83.027 328.608 83.0861C326.643 83.1453 325.028 83.5715 323.761 84.3645C322.495 85.1458 321.518 86.3058 320.831 87.8447C320.157 89.3716 319.719 91.2893 319.517 93.5975H319.855C320.743 91.9048 321.974 90.6382 323.548 89.7978C325.134 88.9573 326.916 88.5371 328.892 88.5371C331.094 88.5371 333.053 89.0402 334.77 90.0464C336.486 91.0525 337.835 92.5262 338.818 94.4675C339.812 96.397 340.309 98.7585 340.309 101.552C340.309 104.381 339.789 106.825 338.747 108.885C337.717 110.945 336.261 112.537 334.379 113.661C332.509 114.774 330.301 115.33 327.756 115.33C325.211 115.33 322.992 114.756 321.098 113.608C319.216 112.448 317.754 110.732 316.712 108.459C315.682 106.186 315.167 103.381 315.167 100.043V97.3439C315.167 91.1058 316.28 86.4124 318.505 83.2637C320.731 80.115 324.057 78.4993 328.484 78.4164C329.916 78.3809 331.195 78.375 332.319 78.3986C333.444 78.4105 334.426 78.3572 335.267 78.2388C336.119 78.1086 336.829 77.8127 337.397 77.3511ZM327.774 110.874C329.254 110.874 330.526 110.501 331.591 109.755C332.669 108.998 333.497 107.926 334.077 106.541C334.657 105.156 334.947 103.523 334.947 101.641C334.947 99.7942 334.657 98.2258 334.077 96.9356C333.497 95.6453 332.669 94.6628 331.591 93.9881C330.514 93.3016 329.224 92.9583 327.721 92.9583C326.608 92.9583 325.614 93.1536 324.738 93.5442C323.862 93.923 323.11 94.4853 322.483 95.231C321.867 95.9768 321.388 96.8882 321.044 97.9654C320.713 99.0307 320.535 100.256 320.512 101.641C320.512 104.458 321.157 106.701 322.447 108.37C323.749 110.039 325.525 110.874 327.774 110.874ZM351.442 107.34L363.463 87.5073H369.18V114.78H363.978V94.9292L352.01 114.78H346.24V87.5073H351.442V107.34ZM374.169 114.78L374.152 110.181H375.128C375.886 110.181 376.519 110.022 377.028 109.702C377.549 109.37 377.975 108.814 378.307 108.033C378.638 107.252 378.892 106.174 379.07 104.801C379.248 103.416 379.378 101.676 379.461 99.5812L379.94 87.5073H398.974V114.78H393.772V92.0883H384.858L384.432 101.357C384.326 103.606 384.095 105.571 383.74 107.252C383.397 108.932 382.893 110.335 382.231 111.46C381.568 112.572 380.715 113.407 379.674 113.963C378.632 114.508 377.366 114.78 375.874 114.78H374.169ZM417.809 115.33C415.121 115.33 412.807 114.756 410.866 113.608C408.937 112.448 407.445 110.821 406.392 108.725C405.35 106.618 404.829 104.15 404.829 101.321C404.829 98.5277 405.35 96.0655 406.392 93.9349C407.445 91.8042 408.913 90.1411 410.795 88.9455C412.689 87.75 414.902 87.1522 417.436 87.1522C418.974 87.1522 420.466 87.4067 421.91 87.9157C423.354 88.4247 424.65 89.2237 425.799 90.3127C426.947 91.4017 427.852 92.8163 428.515 94.5563C429.178 96.2845 429.51 98.3856 429.51 100.86V102.742H407.83V98.7644H424.307C424.307 97.3676 424.023 96.1306 423.455 95.0535C422.887 93.9645 422.088 93.1063 421.058 92.4789C420.04 91.8515 418.844 91.5378 417.471 91.5378C415.98 91.5378 414.678 91.9048 413.565 92.6387C412.464 93.3608 411.612 94.3077 411.008 95.4796C410.416 96.6396 410.12 97.9003 410.12 99.2616V102.369C410.12 104.192 410.44 105.742 411.079 107.021C411.73 108.299 412.636 109.276 413.796 109.95C414.956 110.613 416.311 110.945 417.862 110.945C418.868 110.945 419.785 110.803 420.614 110.519C421.443 110.223 422.159 109.785 422.762 109.205C423.366 108.625 423.828 107.909 424.147 107.056L429.172 107.962C428.77 109.441 428.048 110.738 427.006 111.85C425.976 112.951 424.68 113.809 423.117 114.425C421.567 115.029 419.797 115.33 417.809 115.33ZM432.994 92.0883V87.5073H456.005V92.0883H447.11V114.78H441.925V92.0883H432.994Z" fill="white"/>
</svg>
