<svg width="219" height="180" viewBox="0 0 219 180" fill="none" xmlns="http://www.w3.org/2000/svg">
<g filter="url(#filter0_d_14_28)">
<path d="M78.75 82C78.75 54.3858 101.136 32 128.75 32C156.364 32 178.75 54.3858 178.75 82C178.75 109.614 156.364 132 128.75 132C101.136 132 78.75 109.614 78.75 82Z" fill="white"/>
<g clip-path="url(#clip0_14_28)">
<path d="M113.169 80.05C113.091 80.0496 113.014 80.0298 112.945 79.9923C112.877 79.9548 112.819 79.9009 112.777 79.8353C110.815 76.7612 109.726 72.4872 109.789 68.11C109.841 64.5897 111.451 62.7531 112.746 61.2812C113.099 60.895 113.43 60.4881 113.735 60.0625C114.962 58.2531 116.441 57.8837 118.389 58.8962C119.071 59.2506 119.8 59.1709 120.644 59.079C121.525 58.9853 122.519 58.8737 123.644 59.2478C124.389 59.4962 124.901 59.9218 125.166 60.5134C125.606 61.4959 125.166 62.5515 125.142 62.5965C125.11 62.6738 125.057 62.7408 124.989 62.7904C124.921 62.8399 124.842 62.8701 124.758 62.8778C123.506 62.9903 122.133 63.1918 120.83 63.4197C122.41 63.3747 123.914 63.3681 124.767 63.459C124.834 63.4669 124.897 63.4887 124.954 63.5232C125.012 63.5576 125.061 63.6039 125.098 63.6588C125.136 63.7137 125.162 63.7761 125.174 63.8417C125.185 63.9073 125.183 63.9747 125.167 64.0393C125.129 64.18 124.187 67.4865 118.403 68.4081C118.387 68.4109 118.372 68.4128 118.356 68.4137C118.262 68.4212 116.012 68.6556 114.848 73.1284C114.815 73.2455 114.738 73.3451 114.632 73.4057C114.527 73.4663 114.402 73.4831 114.284 73.4525C114.166 73.4219 114.065 73.3464 114.003 73.2421C113.94 73.1378 113.921 73.0132 113.95 72.895C115.239 67.9356 117.936 67.5212 118.273 67.4893C122.079 66.879 123.523 65.2075 124.025 64.3375C121.276 64.2184 115.087 64.6243 115.019 64.629C114.9 64.6425 114.781 64.6096 114.686 64.5371C114.591 64.4647 114.527 64.3583 114.509 64.2402C114.49 64.1221 114.518 64.0013 114.586 63.9031C114.654 63.8049 114.758 63.7368 114.875 63.7131C114.929 63.7 120.195 62.395 124.369 61.9797C124.435 61.7125 124.494 61.2756 124.317 60.8884C124.163 60.5462 123.837 60.2903 123.352 60.1281C122.422 59.8187 121.571 59.9115 120.746 60.0015C119.835 60.1009 118.893 60.204 117.961 59.7203C116.413 58.9159 115.477 59.1493 114.504 60.5837C114.177 61.0404 113.824 61.4768 113.444 61.8906C112.187 63.3222 110.763 64.945 110.717 68.125C110.656 72.324 111.692 76.4115 113.562 79.3365C113.606 79.4069 113.629 79.4875 113.631 79.57C113.633 79.6526 113.613 79.7342 113.574 79.8066C113.534 79.879 113.476 79.9396 113.405 79.9823C113.335 80.0251 113.254 80.0484 113.171 80.05H113.169Z" fill="#FF005A"/>
<path d="M136.573 85.4303C136.466 85.4247 136.364 85.3824 136.284 85.3105C136.205 85.2387 136.152 85.1416 136.135 85.0356C136.118 84.9295 136.138 84.8209 136.192 84.728C136.246 84.635 136.33 84.5632 136.43 84.5247C140.823 83.0978 143.99 80.6453 145.586 77.4325C147.073 74.4428 147.18 70.915 145.906 67.2325C144.941 64.451 143.257 62.575 140.898 61.6563C138.092 60.5641 134.898 61.0994 133.117 62.0594C131.437 62.965 130.548 64.4031 130.082 65.7606C131.02 64.6253 132.494 63.4778 134.794 62.9135C137.053 62.3585 139.135 62.9556 140.813 64.6413C143.25 67.091 144.126 71.1569 143.531 73.5194C143.009 75.6081 141 77.6631 138.404 78.7563C135.833 79.84 133.179 79.7744 131.124 78.5753C127.561 76.4997 123.474 75.1656 118.961 74.6097C117.36 74.4128 116.243 73.4585 115.737 71.8506C115.509 71.1067 115.414 70.3281 115.456 69.551C115.459 69.4887 115.475 69.4278 115.502 69.3716C115.529 69.3155 115.567 69.2655 115.614 69.2244C115.661 69.1833 115.715 69.1521 115.774 69.1326C115.834 69.1131 115.896 69.1057 115.958 69.1109C116.02 69.116 116.081 69.1337 116.136 69.1627C116.191 69.1917 116.24 69.2315 116.279 69.2797C116.318 69.328 116.348 69.3836 116.365 69.4435C116.383 69.5033 116.388 69.566 116.381 69.6278C116.368 69.7825 116.119 73.3253 119.07 73.6891C123.708 74.26 127.918 75.6335 131.587 77.7738C133.387 78.8238 135.739 78.8697 138.04 77.9003C140.372 76.9178 142.172 75.1094 142.627 73.2944C143.158 71.1681 142.288 67.4463 140.146 65.2956C139.156 64.2906 137.448 63.2181 135.014 63.8125C132.188 64.5072 130.759 66.1656 130.059 67.435C129.983 67.5755 129.86 67.6843 129.711 67.742C129.562 67.7998 129.397 67.8026 129.247 67.75C129.096 67.699 128.968 67.5949 128.887 67.457C128.807 67.3192 128.779 67.1568 128.809 67C129.073 65.4869 129.926 62.726 132.676 61.2438C134.638 60.1853 138.154 59.5928 141.236 60.7928C143.821 61.7997 145.74 63.9213 146.783 66.9288C148.145 70.8522 148.018 74.6275 146.418 77.846C144.707 81.2866 141.356 83.9013 136.717 85.4069C136.671 85.4223 136.622 85.4303 136.573 85.4303Z" fill="#FF005A"/>
<path d="M141.375 105.665C141.158 105.663 140.943 105.621 140.741 105.543C140.283 105.373 139.946 105.135 139.736 104.835C139.564 104.589 139.22 104.546 138.956 104.587C138.581 104.645 137.892 104.604 137.464 103.668C137.364 103.463 137.311 103.237 137.31 103.008C137.309 102.779 137.36 102.553 137.458 102.347C137.905 101.409 139.259 100.889 139.865 100.697C140.017 99.9297 140.348 97.6197 139.011 96.8238C138.466 96.4994 137.792 96.2772 137.005 96.0204C135.158 95.4147 132.862 94.6629 130.767 92.0454C130.493 91.7585 127.579 88.6197 127.437 84.911C127.403 84.1886 127.423 83.4648 127.497 82.7454C127.495 82.6783 127.507 82.6116 127.533 82.5497C127.559 82.4879 127.598 82.4323 127.648 82.3869C127.697 82.3414 127.755 82.3071 127.819 82.2862C127.883 82.2653 127.951 82.2583 128.017 82.2658C128.084 82.2732 128.148 82.2949 128.206 82.3294C128.263 82.3638 128.313 82.4103 128.351 82.4655C128.389 82.5207 128.415 82.5835 128.427 82.6496C128.438 82.7157 128.436 82.7835 128.419 82.8485C128.351 83.5222 128.333 84.1999 128.364 84.8763C128.493 88.3244 131.42 91.3854 131.449 91.4154L131.479 91.4491C133.404 93.8632 135.471 94.5429 137.292 95.1382C138.093 95.4016 138.851 95.6491 139.483 96.026C141.688 97.3385 140.746 101.027 140.702 101.182C140.681 101.262 140.639 101.334 140.58 101.392C140.522 101.45 140.449 101.492 140.369 101.513C139.713 101.685 138.564 102.169 138.291 102.746C138.252 102.831 138.233 102.923 138.237 103.016C138.241 103.109 138.267 103.2 138.313 103.281C138.511 103.716 138.71 103.685 138.816 103.668C139.507 103.561 140.152 103.803 140.503 104.301C140.597 104.442 140.798 104.569 141.066 104.671C141.433 104.808 141.65 104.736 141.838 104.418C142.253 103.713 143.099 103.427 143.806 103.753C143.989 103.837 144.148 103.847 144.253 103.779C144.288 103.757 144.316 103.727 144.335 103.692C144.355 103.657 144.365 103.617 144.365 103.577C144.365 103.227 143.846 102.462 143.494 102.056C143.455 102.01 143.424 101.957 143.405 101.9C142.561 99.3944 140.773 95.1907 139.59 94.5879C138.58 94.0694 138.499 93.4441 138.428 92.8919C138.351 92.2976 138.271 91.6835 136.839 90.7507C134.454 89.1982 134.288 88.945 134.308 86.8825C134.308 86.4625 134.314 85.9394 134.289 85.2888C134.221 83.621 133.726 82.5447 133.325 81.9344C133.276 81.8323 133.266 81.716 133.297 81.6071C133.327 81.4981 133.396 81.4038 133.49 81.3416C133.585 81.2793 133.699 81.2533 133.811 81.2684C133.923 81.2834 134.026 81.3385 134.1 81.4235C134.569 82.1313 135.14 83.3697 135.216 85.2513C135.243 85.9216 135.238 86.4569 135.236 86.8872C135.228 87.7797 135.236 88.1557 135.442 88.481C135.677 88.8485 136.221 89.2385 137.349 89.9726C139.141 91.1388 139.263 92.0838 139.352 92.7729C139.413 93.2491 139.446 93.4666 140.018 93.7619C141.86 94.7069 143.914 100.512 144.26 101.522C144.529 101.843 145.297 102.828 145.297 103.579C145.297 103.776 145.248 103.969 145.154 104.141C145.06 104.313 144.923 104.458 144.758 104.564C144.383 104.804 143.894 104.817 143.421 104.598C143.154 104.475 142.811 104.604 142.641 104.892C142.334 105.4 141.893 105.665 141.375 105.665ZM119.451 92.7138C119.023 92.7138 118.669 92.5975 118.439 92.276C117.877 91.4866 116.765 87.7038 116.574 86.171C116.404 84.8172 118.434 84.0297 119.863 83.6454L119.416 83.3979C118.048 83.2629 117.073 82.7979 116.51 82.0169C115.798 81.0222 116.064 79.9019 116.076 79.8551C116.109 79.7395 116.185 79.6413 116.289 79.5809C116.393 79.5205 116.516 79.5027 116.633 79.5312C116.749 79.5597 116.85 79.6323 116.915 79.7338C116.979 79.8353 117.001 79.9577 116.977 80.0754C116.972 80.0969 116.81 80.8507 117.271 81.4863C117.681 82.0488 118.463 82.3854 119.595 82.4819C119.661 82.4873 119.725 82.5068 119.783 82.5391L121.377 83.426C121.46 83.4726 121.528 83.5439 121.569 83.6302C121.611 83.7166 121.625 83.8137 121.609 83.9082C121.593 84.0027 121.548 84.09 121.481 84.1581C121.413 84.2262 121.327 84.2717 121.232 84.2885C119.399 84.6129 117.413 85.4135 117.493 86.0557C117.688 87.6251 118.79 91.1725 119.193 91.7369C119.193 91.7369 119.278 91.8166 119.685 91.7707C120.151 91.6969 120.611 91.5907 121.063 91.4529C121.602 91.3029 122.158 91.1482 122.631 91.1013C122.712 91.1001 122.792 91.0778 122.862 91.0366C122.845 90.9549 122.805 90.8797 122.747 90.82C122.633 90.6984 122.494 90.6021 122.34 90.5375C122.186 90.4729 122.021 90.4414 121.854 90.445C121.775 90.4451 121.697 90.4249 121.628 90.3864C121.559 90.3479 121.501 90.2924 121.459 90.2252C121.417 90.1579 121.394 90.0811 121.39 90.0022C121.387 89.9232 121.403 89.8446 121.438 89.7738C121.546 89.5554 121.592 89.276 121.553 89.2113C121.518 89.1948 121.481 89.1853 121.443 89.1832L120.743 89.5216C120.604 89.5882 120.452 89.6229 120.298 89.623C120.144 89.6232 119.992 89.5888 119.853 89.5224C119.714 89.4561 119.591 89.3594 119.494 89.2395C119.398 89.1197 119.329 88.9796 119.293 88.8297L119 87.5913C118.96 87.4205 118.957 87.2431 118.991 87.0709C119.024 86.8987 119.095 86.7357 119.196 86.5927C119.298 86.4497 119.429 86.3301 119.581 86.2417C119.732 86.1533 119.901 86.0982 120.075 86.08C123.114 85.7688 124.544 85.2935 124.871 84.955C124.949 84.8683 125.009 84.7659 125.045 84.6546C125.081 84.5433 125.094 84.4256 125.082 84.3091C125.06 83.7832 124.67 82.2626 121.541 79.4941C121.467 79.4082 121.427 79.2986 121.428 79.1855C121.429 79.0724 121.471 78.9635 121.546 78.8787C121.62 78.794 121.723 78.7392 121.836 78.7245C121.948 78.7097 122.061 78.736 122.156 78.7985C124.618 80.9763 125.95 82.8682 126.01 84.2697C126.027 84.511 125.994 84.7532 125.913 84.9813C125.832 85.2093 125.706 85.4183 125.541 85.5954C124.936 86.2291 123.129 86.7044 120.168 87.0072C120.125 87.0114 120.084 87.0248 120.046 87.0465C120.009 87.0681 119.977 87.0976 119.952 87.1329C119.926 87.1688 119.908 87.21 119.899 87.2535C119.89 87.297 119.891 87.3419 119.902 87.3851L120.19 88.6197C120.193 88.6344 120.2 88.6481 120.209 88.6598C120.219 88.6715 120.23 88.6809 120.244 88.6872C120.258 88.6939 120.273 88.6973 120.288 88.6973C120.303 88.6973 120.318 88.6939 120.331 88.6872L121.138 88.2972C121.2 88.2671 121.269 88.2514 121.339 88.2513C121.92 88.2513 122.202 88.5082 122.335 88.7247C122.483 88.9918 122.527 89.3046 122.458 89.6022C123.23 89.8226 123.753 90.4347 123.781 90.9954C123.803 91.421 123.537 91.946 122.716 92.0266C122.323 92.066 121.804 92.2094 121.303 92.3491C120.636 92.5329 119.985 92.7138 119.451 92.7138Z" fill="#FF005A"/>
<path d="M120.239 91.2062C120.195 91.2062 120.15 91.2062 120.106 91.2015C120.044 91.1991 119.983 91.1843 119.927 91.1578C119.87 91.1314 119.82 91.0939 119.778 91.0476C119.737 91.0012 119.705 90.947 119.685 90.8882C119.665 90.8293 119.657 90.767 119.661 90.705C119.665 90.6429 119.682 90.5824 119.711 90.527C119.739 90.4716 119.778 90.4224 119.826 90.3824C119.873 90.3424 119.928 90.3124 119.988 90.2941C120.047 90.2759 120.11 90.2698 120.172 90.2762C120.724 90.3156 121.347 89.8253 121.522 89.65C121.609 89.5644 121.727 89.5167 121.849 89.5173C121.971 89.518 122.088 89.5668 122.175 89.6533C122.261 89.7397 122.31 89.8568 122.311 89.9791C122.311 90.1013 122.264 90.2189 122.178 90.3062C122.082 90.4018 121.25 91.2062 120.239 91.2062ZM114.104 91.2297C113.654 91.2297 113.273 91.1115 113.027 90.7675C112.465 89.9856 111.356 86.2028 111.161 84.6653C111.019 83.5065 112.302 81.9062 113.704 81.4853C113.816 81.4683 113.93 81.4924 114.025 81.5529C114.121 81.6135 114.191 81.7065 114.223 81.8148C114.256 81.9231 114.248 82.0394 114.201 82.1424C114.154 82.2453 114.072 82.3279 113.969 82.375C112.938 82.6825 112.001 83.8993 112.082 84.55C112.282 86.1231 113.382 89.6696 113.783 90.2284C113.936 90.4421 114.989 90.1768 115.556 90.0343C116.022 89.9046 116.498 89.8072 116.978 89.7428C117.294 89.7109 117.287 89.5796 117.284 89.5309C117.272 89.2871 116.965 88.9337 116.441 88.9337C116.362 88.9339 116.284 88.9139 116.215 88.8755C116.146 88.8371 116.087 88.7817 116.046 88.7145C116.004 88.6473 115.98 88.5706 115.977 88.4916C115.973 88.4127 115.99 88.3341 116.025 88.2634C116.132 88.045 116.177 87.7675 116.138 87.7009C116.103 87.6841 116.065 87.6742 116.026 87.6718L115.327 88.0093C115.188 88.0758 115.036 88.1102 114.882 88.1102C114.728 88.1101 114.576 88.0755 114.437 88.009C114.298 87.9424 114.175 87.8456 114.079 87.7256C113.982 87.6056 113.914 87.4655 113.878 87.3156L113.591 86.0818C113.551 85.9112 113.547 85.7338 113.581 85.5616C113.614 85.3894 113.684 85.2264 113.786 85.0834C113.888 84.9404 114.019 84.8208 114.17 84.7325C114.322 84.6442 114.49 84.5893 114.665 84.5715C114.979 84.5387 115.458 84.4871 115.977 84.415C116.09 84.4153 116.2 84.4565 116.285 84.5308C116.37 84.6052 116.425 84.7079 116.44 84.8198C116.456 84.9318 116.43 85.0455 116.368 85.1401C116.307 85.2347 116.213 85.3038 116.104 85.3346C115.571 85.4078 115.081 85.4612 114.76 85.495C114.716 85.4988 114.675 85.5121 114.637 85.5338C114.599 85.5554 114.567 85.5851 114.542 85.6206C114.517 85.6562 114.499 85.697 114.491 85.74C114.483 85.7831 114.484 85.8274 114.494 85.87L114.781 87.1075C114.784 87.1223 114.791 87.1361 114.8 87.1479C114.81 87.1596 114.822 87.1689 114.836 87.175C114.849 87.182 114.864 87.1857 114.879 87.1857C114.894 87.1857 114.909 87.182 114.923 87.175L115.728 86.7868C115.791 86.7567 115.86 86.741 115.93 86.7409C116.511 86.7409 116.792 86.9987 116.925 87.2143C117.075 87.4837 117.119 87.7993 117.048 88.0993C117.746 88.3253 118.181 88.9225 118.21 89.484C118.236 90.0118 117.895 90.5828 117.07 90.6662C116.634 90.7268 116.204 90.8163 115.781 90.9343C115.201 91.0806 114.61 91.2297 114.104 91.2297Z" fill="#FF005A"/>
<path d="M114.829 89.6997C114.785 89.6997 114.741 89.6997 114.696 89.695C114.576 89.6826 114.466 89.624 114.388 89.5318C114.311 89.4395 114.272 89.3207 114.281 89.2006C114.289 89.0804 114.344 88.9683 114.434 88.8878C114.524 88.8074 114.641 88.7651 114.762 88.7697C115.313 88.8081 115.937 88.3187 116.112 88.1444C116.199 88.0588 116.316 88.0111 116.439 88.0117C116.561 88.0124 116.678 88.0612 116.765 88.1477C116.851 88.2341 116.9 88.3512 116.9 88.4735C116.901 88.5957 116.853 88.7133 116.768 88.8006C116.672 88.8953 115.838 89.6997 114.829 89.6997ZM129.21 89.5647C127.162 89.5026 125.126 89.2245 123.135 88.735C123.075 88.722 123.017 88.6969 122.966 88.6613C122.915 88.6257 122.872 88.5802 122.839 88.5275C122.806 88.4749 122.784 88.4162 122.774 88.3548C122.764 88.2935 122.767 88.2308 122.782 88.1705C122.797 88.1102 122.823 88.0535 122.861 88.0037C122.898 87.9539 122.944 87.9121 122.998 87.8807C123.052 87.8493 123.111 87.829 123.173 87.821C123.234 87.813 123.297 87.8174 123.357 87.834C125.278 88.3029 127.242 88.5718 129.219 88.6365C129.331 88.6525 129.433 88.7082 129.507 88.7934C129.581 88.8787 129.621 88.9877 129.621 89.1006C129.621 89.2135 129.581 89.3225 129.507 89.4078C129.433 89.4931 129.331 89.5488 129.219 89.5647H129.21ZM114.815 84.0325C114.744 84.0326 114.673 84.0163 114.609 83.9847C114.546 83.9532 114.49 83.9073 114.447 83.8506C112.118 80.8122 112.768 77.7203 112.798 77.5937C112.837 77.4878 112.913 77.3996 113.013 77.3456C113.112 77.2915 113.228 77.2752 113.338 77.2996C113.449 77.3241 113.546 77.3876 113.614 77.4785C113.681 77.5695 113.713 77.6816 113.704 77.7944C113.698 77.8215 113.127 80.6069 115.183 83.29C115.237 83.3587 115.271 83.4412 115.28 83.5279C115.289 83.6147 115.273 83.7022 115.234 83.7805C115.196 83.8588 115.136 83.9247 115.062 83.9706C114.988 84.0165 114.902 84.0405 114.815 84.04V84.0325Z" fill="#FF005A"/>
<path d="M121.284 104.955H121.19C120.578 104.915 119.971 104.506 119.38 103.736C119.035 103.679 118.415 103.503 118.154 102.964C117.923 102.49 118.043 101.913 118.512 101.25C118.538 101.212 118.569 101.178 118.605 101.149C118.647 101.118 119.637 100.374 121.306 100.823C121.382 100.843 121.613 100.86 122.104 100.574C123.465 99.7807 125.214 97.6244 125.692 96.8069C125.025 96.2716 123.344 94.8747 122.106 93.4807C122.029 93.3881 121.99 93.2689 121.999 93.1486C122.008 93.0282 122.064 92.916 122.154 92.8359C122.244 92.7557 122.362 92.7139 122.483 92.7193C122.603 92.7247 122.717 92.7769 122.8 92.8647C124.286 94.5382 126.524 96.2838 126.55 96.3007C126.62 96.356 126.673 96.4304 126.703 96.515C126.732 96.5995 126.737 96.6908 126.716 96.7778C126.528 97.5485 124.304 100.353 122.599 101.361C121.996 101.717 121.496 101.83 121.068 101.719C120.037 101.443 119.404 101.747 119.223 101.854C118.979 102.221 118.942 102.456 118.988 102.558C119.065 102.717 119.428 102.822 119.659 102.839C119.729 102.843 119.796 102.862 119.857 102.896C119.918 102.93 119.971 102.976 120.012 103.033C120.464 103.665 120.892 104.011 121.25 104.033C121.469 104.047 121.694 103.933 121.916 103.692C122.339 103.232 123.058 103.213 123.553 103.652C123.615 103.715 123.692 103.761 123.777 103.786C123.862 103.812 123.952 103.815 124.039 103.796C124.222 103.75 124.695 103.515 125.117 102.308C125.788 100.385 126.899 99.1628 127.799 98.1832C128.225 97.7144 128.593 97.3113 128.811 96.9372C129.194 96.2763 128.01 95.0941 127.377 94.6253C127.326 94.5879 127.283 94.5405 127.251 94.4861C127.218 94.4316 127.197 94.3712 127.189 94.3085C126.848 91.5475 125.961 90.985 125.628 90.9982C125.537 91.0217 125.44 91.0151 125.353 90.9793C125.266 90.9435 125.192 90.8804 125.144 90.7994C125.092 90.7136 125.07 90.6138 125.079 90.5143C125.088 90.4148 125.128 90.3207 125.193 90.2453L126.506 88.645C126.585 88.5551 126.696 88.4995 126.816 88.4898C126.936 88.4801 127.054 88.5171 127.147 88.593C127.24 88.669 127.3 88.7779 127.314 88.897C127.328 89.0161 127.296 89.1361 127.224 89.2319L126.368 90.28C126.43 90.3158 126.49 90.3549 126.547 90.3972C127.32 90.9597 127.839 92.1785 128.089 94.0019C128.676 94.4707 130.415 96.0241 129.614 97.4041C129.346 97.8635 128.947 98.3013 128.485 98.8103C127.647 99.73 126.602 100.873 125.995 102.62C125.47 104.111 124.766 104.574 124.268 104.701C124.034 104.758 123.789 104.756 123.556 104.694C123.323 104.632 123.109 104.513 122.934 104.347C122.84 104.266 122.685 104.232 122.599 104.327C122.204 104.735 121.753 104.955 121.284 104.955ZM116.462 69.1441C115.034 69.1441 113.984 68.7691 113.338 68.0303C112.541 67.1172 112.694 66.0007 112.701 65.9538C112.723 65.8362 112.79 65.7317 112.887 65.662C112.984 65.5924 113.105 65.5631 113.223 65.5801C113.342 65.5972 113.449 65.6593 113.523 65.7536C113.596 65.8478 113.631 65.9669 113.619 66.086C113.597 66.3269 113.623 66.5697 113.697 66.8003C113.77 67.0308 113.888 67.2444 114.045 67.4285C114.514 67.9638 115.358 68.23 116.541 68.216C116.653 68.2312 116.755 68.2863 116.83 68.3711C116.904 68.4559 116.946 68.5647 116.947 68.6776C116.947 68.7905 116.907 68.8998 116.834 68.9855C116.76 69.0712 116.658 69.1275 116.547 69.1441H116.462ZM120.139 77.5225C120.056 77.5225 119.975 77.5004 119.904 77.4584C119.832 77.4164 119.774 77.356 119.733 77.2836C119.693 77.2112 119.673 77.1294 119.675 77.0466C119.677 76.9638 119.702 76.8831 119.745 76.8128C120.214 76.0628 120.245 74.8328 120.214 74.4232C120.222 74.3104 120.271 74.2044 120.351 74.1247C120.431 74.0449 120.537 73.9968 120.65 73.9892C120.763 73.9815 120.874 74.0149 120.965 74.0831C121.055 74.1513 121.117 74.2497 121.14 74.3603C121.14 74.4335 121.252 76.1472 120.53 77.3041C120.489 77.3706 120.431 77.4256 120.363 77.4638C120.294 77.502 120.218 77.5222 120.139 77.5225ZM123.242 77.8357C123.18 77.8355 123.119 77.823 123.062 77.7991C122.95 77.7503 122.861 77.6594 122.815 77.5458C122.768 77.4323 122.768 77.3051 122.815 77.1916C123.19 76.2953 123.208 75.0353 123.208 75.026C123.21 74.9031 123.26 74.786 123.348 74.7C123.436 74.6139 123.553 74.5656 123.676 74.5657C123.799 74.5681 123.916 74.6186 124.002 74.7062C124.088 74.7939 124.136 74.9117 124.136 75.0344C124.136 75.0925 124.118 76.4885 123.667 77.5516C123.631 77.6349 123.572 77.7062 123.497 77.7566C123.421 77.807 123.333 77.8345 123.242 77.8357ZM126.006 78.9822C125.922 78.9806 125.84 78.9566 125.769 78.9125C125.698 78.8685 125.639 78.8061 125.6 78.7319C125.561 78.6577 125.543 78.5744 125.547 78.4906C125.551 78.4068 125.577 78.3257 125.624 78.2557C126.027 77.6697 126.122 76.3807 126.125 75.9363C126.142 75.8246 126.198 75.7227 126.283 75.6491C126.369 75.5756 126.478 75.5354 126.591 75.536C126.704 75.5365 126.813 75.5778 126.898 75.6522C126.983 75.7266 127.038 75.8291 127.053 75.941C127.053 76.135 127.025 77.8563 126.389 78.7816C126.346 78.8433 126.288 78.8937 126.222 78.9286C126.155 78.9635 126.081 78.9819 126.006 78.9822ZM128.641 80.4232C128.565 80.4232 128.489 80.4039 128.422 80.3669C128.368 80.338 128.321 80.2988 128.283 80.2516C128.244 80.2044 128.215 80.1501 128.198 80.0917C128.181 80.0334 128.175 79.9722 128.181 79.9116C128.187 79.8511 128.206 79.7923 128.234 79.7388C128.653 78.9279 128.846 78.0191 128.791 77.1082C128.781 76.9872 128.818 76.8668 128.895 76.7729C128.972 76.679 129.083 76.619 129.203 76.6059C129.324 76.5928 129.445 76.6275 129.541 76.7027C129.636 76.7778 129.698 76.8874 129.714 77.0078C129.792 78.1056 129.562 79.2034 129.052 80.1785C129.012 80.2523 128.952 80.314 128.88 80.3571C128.808 80.4001 128.725 80.423 128.641 80.4232ZM116.546 61.4894H115.917C115.794 61.4894 115.676 61.4405 115.589 61.3535C115.502 61.2665 115.453 61.1484 115.453 61.0253C115.453 60.9023 115.502 60.7842 115.589 60.6972C115.676 60.6102 115.794 60.5613 115.917 60.5613H116.546C116.669 60.5613 116.787 60.6102 116.874 60.6972C116.961 60.7842 117.01 60.9023 117.01 61.0253C117.01 61.1484 116.961 61.2665 116.874 61.3535C116.787 61.4405 116.669 61.4894 116.546 61.4894ZM143.128 70.871C143.02 70.8651 142.917 70.8221 142.837 70.7494C142.758 70.6767 142.705 70.5786 142.69 70.4718C142.674 70.365 142.695 70.256 142.75 70.1632C142.806 70.0704 142.891 69.9995 142.993 69.9625L144.031 69.6466C144.148 69.6134 144.274 69.6275 144.38 69.6857C144.487 69.7439 144.567 69.8417 144.602 69.958C144.637 70.0743 144.626 70.1999 144.569 70.3076C144.513 70.4154 144.417 70.4969 144.301 70.5344L143.259 70.8503C143.216 70.8637 143.172 70.8706 143.128 70.871ZM144.826 72.4178H143.252C143.129 72.4178 143.011 72.3689 142.924 72.2819C142.837 72.1949 142.788 72.0769 142.788 71.9538C142.788 71.8307 142.837 71.7127 142.924 71.6256C143.011 71.5386 143.129 71.4897 143.252 71.4897H144.826C144.949 71.4897 145.067 71.5386 145.155 71.6256C145.242 71.7127 145.29 71.8307 145.29 71.9538C145.29 72.0769 145.242 72.1949 145.155 72.2819C145.067 72.3689 144.949 72.4178 144.826 72.4178ZM144.001 74.5197C143.947 74.5195 143.894 74.51 143.843 74.4916L142.844 74.125C142.744 74.0721 142.666 73.9849 142.625 73.8793C142.585 73.7738 142.583 73.657 142.622 73.5507C142.661 73.4444 142.736 73.3556 142.835 73.3007C142.934 73.2459 143.05 73.2286 143.16 73.2522L144.16 73.615C144.258 73.656 144.34 73.7292 144.391 73.8226C144.442 73.916 144.46 74.024 144.441 74.1289C144.423 74.2338 144.369 74.3293 144.289 74.3996C144.209 74.47 144.108 74.511 144.001 74.516V74.5197ZM143.252 76.0713C143.193 76.0711 143.134 76.0597 143.079 76.0375L142.063 75.6297C142.005 75.6079 141.952 75.5747 141.907 75.5322C141.862 75.4896 141.826 75.4386 141.802 75.382C141.777 75.3254 141.763 75.2644 141.763 75.2026C141.762 75.1408 141.773 75.0794 141.796 75.0221C141.819 74.9648 141.854 74.9127 141.897 74.8688C141.941 74.8249 141.992 74.7902 142.05 74.7666C142.107 74.743 142.168 74.7311 142.23 74.7315C142.292 74.732 142.353 74.7447 142.409 74.7691L143.422 75.1769C143.522 75.2172 143.605 75.291 143.656 75.3856C143.707 75.4803 143.724 75.5898 143.704 75.6956C143.683 75.8013 143.627 75.8966 143.544 75.9651C143.461 76.0337 143.356 76.0712 143.249 76.0713H143.252Z" fill="#FF005A"/>
</g>
</g>
<path d="M71.7827 166.889V169H56.964V166.889H71.7827ZM57.3808 166.889V173.814H54.8125L54.799 166.889H57.3808ZM74.0418 166.889L74.0149 173.801H71.4465V166.889H74.0418ZM69.2412 149.421V151.546H60.6619V149.421H69.2412ZM71.4734 149.421V169H68.8915V149.421H71.4734ZM59.7744 149.421H62.3697L61.9663 157.301C61.9125 158.484 61.8005 159.578 61.6301 160.582C61.4598 161.577 61.2491 162.487 60.9981 163.312C60.7471 164.137 60.4602 164.876 60.1375 165.531C59.8148 166.176 59.4696 166.736 59.1021 167.212C58.7345 167.678 58.349 168.063 57.9456 168.368C57.5512 168.664 57.1522 168.874 56.7488 169H55.5655V166.889H56.3992C56.6323 166.638 56.8968 166.275 57.1926 165.8C57.4974 165.324 57.7977 164.71 58.0935 163.957C58.3983 163.195 58.6628 162.267 58.8869 161.174C59.12 160.08 59.2769 158.789 59.3576 157.301L59.7744 149.421ZM79.4072 165.06L86.1173 154.45H88.6184V169H86.1173V158.39L79.4072 169H76.9329V154.45H79.4072V165.06ZM102.482 160.757V162.774H94.7906V160.757H102.482ZM95.3151 154.45V169H92.8273V154.45H95.3151ZM104.499 154.45V169H101.998V154.45H104.499ZM107.848 161.886V161.577C107.848 160.528 108 159.556 108.305 158.659C108.61 157.754 109.049 156.969 109.623 156.306C110.196 155.634 110.891 155.114 111.707 154.746C112.523 154.37 113.437 154.181 114.45 154.181C115.472 154.181 116.391 154.37 117.207 154.746C118.032 155.114 118.731 155.634 119.305 156.306C119.887 156.969 120.331 157.754 120.636 158.659C120.941 159.556 121.093 160.528 121.093 161.577V161.886C121.093 162.935 120.941 163.908 120.636 164.805C120.331 165.701 119.887 166.485 119.305 167.158C118.731 167.821 118.036 168.341 117.22 168.718C116.414 169.085 115.499 169.269 114.477 169.269C113.455 169.269 112.536 169.085 111.721 168.718C110.905 168.341 110.205 167.821 109.623 167.158C109.049 166.485 108.61 165.701 108.305 164.805C108 163.908 107.848 162.935 107.848 161.886ZM110.335 161.577V161.886C110.335 162.613 110.421 163.298 110.591 163.944C110.761 164.58 111.017 165.145 111.357 165.638C111.707 166.131 112.142 166.521 112.662 166.808C113.182 167.086 113.787 167.225 114.477 167.225C115.158 167.225 115.755 167.086 116.266 166.808C116.786 166.521 117.216 166.131 117.557 165.638C117.897 165.145 118.153 164.58 118.323 163.944C118.502 163.298 118.592 162.613 118.592 161.886V161.577C118.592 160.86 118.502 160.183 118.323 159.547C118.153 158.901 117.893 158.332 117.543 157.839C117.202 157.337 116.772 156.942 116.252 156.656C115.741 156.369 115.141 156.225 114.45 156.225C113.769 156.225 113.168 156.369 112.648 156.656C112.137 156.942 111.707 157.337 111.357 157.839C111.017 158.332 110.761 158.901 110.591 159.547C110.421 160.183 110.335 160.86 110.335 161.577ZM129.645 162.048H126.969V160.515H129.444C130.134 160.515 130.681 160.43 131.084 160.259C131.488 160.08 131.775 159.834 131.945 159.52C132.115 159.206 132.2 158.838 132.2 158.417C132.2 158.041 132.102 157.687 131.905 157.355C131.716 157.014 131.412 156.741 130.99 156.535C130.569 156.319 130.004 156.212 129.296 156.212C128.722 156.212 128.202 156.315 127.736 156.521C127.27 156.718 126.898 156.992 126.62 157.341C126.351 157.682 126.216 158.068 126.216 158.498H123.729C123.729 157.61 123.98 156.848 124.482 156.212C124.993 155.566 125.67 155.069 126.512 154.719C127.364 154.37 128.292 154.195 129.296 154.195C130.139 154.195 130.892 154.289 131.555 154.477C132.227 154.656 132.797 154.925 133.263 155.284C133.729 155.634 134.083 156.073 134.325 156.602C134.576 157.122 134.702 157.727 134.702 158.417C134.702 158.91 134.585 159.376 134.352 159.816C134.119 160.255 133.783 160.645 133.343 160.986C132.904 161.317 132.371 161.577 131.743 161.765C131.125 161.954 130.425 162.048 129.645 162.048ZM126.969 161.107H129.645C130.515 161.107 131.282 161.192 131.945 161.362C132.608 161.523 133.164 161.765 133.612 162.088C134.061 162.411 134.397 162.81 134.621 163.285C134.854 163.751 134.971 164.289 134.971 164.899C134.971 165.58 134.832 166.194 134.554 166.741C134.285 167.279 133.899 167.736 133.397 168.112C132.895 168.489 132.295 168.776 131.595 168.973C130.905 169.17 130.139 169.269 129.296 169.269C128.355 169.269 127.44 169.108 126.553 168.785C125.665 168.462 124.935 167.965 124.361 167.292C123.787 166.611 123.5 165.746 123.5 164.697H125.988C125.988 165.136 126.127 165.553 126.405 165.948C126.683 166.342 127.068 166.66 127.561 166.902C128.063 167.144 128.641 167.265 129.296 167.265C129.995 167.265 130.578 167.158 131.044 166.943C131.51 166.727 131.86 166.441 132.093 166.082C132.335 165.723 132.456 165.333 132.456 164.912C132.456 164.365 132.348 163.926 132.133 163.594C131.918 163.263 131.586 163.021 131.138 162.868C130.699 162.707 130.134 162.626 129.444 162.626H126.969V161.107ZM146.777 166.512V159.022C146.777 158.449 146.66 157.951 146.427 157.53C146.203 157.099 145.863 156.768 145.405 156.535C144.948 156.301 144.383 156.185 143.711 156.185C143.084 156.185 142.532 156.293 142.057 156.508C141.591 156.723 141.223 157.005 140.954 157.355C140.694 157.704 140.564 158.081 140.564 158.484H138.077C138.077 157.964 138.211 157.449 138.48 156.938C138.749 156.427 139.135 155.965 139.637 155.553C140.148 155.132 140.757 154.8 141.465 154.558C142.183 154.307 142.98 154.181 143.859 154.181C144.917 154.181 145.849 154.361 146.656 154.719C147.472 155.078 148.108 155.62 148.565 156.346C149.032 157.063 149.265 157.964 149.265 159.049V165.826C149.265 166.311 149.305 166.826 149.386 167.373C149.475 167.92 149.605 168.39 149.776 168.785V169H147.18C147.055 168.713 146.956 168.332 146.885 167.857C146.813 167.373 146.777 166.925 146.777 166.512ZM147.207 160.179L147.234 161.927H144.72C144.011 161.927 143.379 161.985 142.824 162.102C142.268 162.209 141.802 162.375 141.425 162.599C141.049 162.823 140.762 163.106 140.564 163.446C140.367 163.778 140.269 164.168 140.269 164.616C140.269 165.073 140.372 165.49 140.578 165.867C140.784 166.243 141.093 166.544 141.506 166.768C141.927 166.983 142.443 167.091 143.052 167.091C143.814 167.091 144.487 166.929 145.069 166.606C145.652 166.284 146.114 165.889 146.454 165.423C146.804 164.957 146.992 164.504 147.019 164.065L148.081 165.262C148.019 165.638 147.848 166.055 147.57 166.512C147.293 166.969 146.92 167.409 146.454 167.83C145.997 168.242 145.45 168.588 144.814 168.866C144.186 169.134 143.478 169.269 142.689 169.269C141.703 169.269 140.838 169.076 140.094 168.691C139.359 168.305 138.785 167.79 138.373 167.144C137.969 166.49 137.767 165.759 137.767 164.952C137.767 164.172 137.92 163.487 138.225 162.895C138.529 162.294 138.969 161.797 139.543 161.402C140.116 160.999 140.807 160.694 141.613 160.488C142.42 160.282 143.321 160.179 144.316 160.179H147.207ZM160.009 162.599H155.235L155.208 160.609H159.108C159.879 160.609 160.52 160.533 161.031 160.38C161.551 160.228 161.941 159.999 162.201 159.695C162.461 159.39 162.591 159.013 162.591 158.565C162.591 158.215 162.515 157.911 162.362 157.651C162.219 157.382 161.999 157.162 161.703 156.992C161.407 156.812 161.04 156.682 160.601 156.602C160.17 156.512 159.664 156.467 159.081 156.467H155.894V169H153.406V154.45H159.081C160.004 154.45 160.834 154.531 161.569 154.692C162.313 154.854 162.945 155.1 163.465 155.432C163.994 155.755 164.397 156.167 164.675 156.669C164.953 157.171 165.092 157.763 165.092 158.444C165.092 158.883 165.002 159.3 164.823 159.695C164.644 160.089 164.379 160.439 164.03 160.743C163.68 161.048 163.25 161.299 162.739 161.497C162.228 161.685 161.641 161.806 160.977 161.86L160.009 162.599ZM160.009 169H154.334L155.571 166.983H160.009C160.699 166.983 161.273 166.898 161.73 166.727C162.187 166.548 162.528 166.297 162.752 165.974C162.985 165.643 163.102 165.248 163.102 164.791C163.102 164.334 162.985 163.944 162.752 163.621C162.528 163.289 162.187 163.038 161.73 162.868C161.273 162.689 160.699 162.599 160.009 162.599H156.23L156.257 160.609H160.977L161.878 161.362C162.676 161.425 163.353 161.622 163.909 161.954C164.464 162.285 164.886 162.707 165.173 163.218C165.46 163.72 165.603 164.267 165.603 164.858C165.603 165.54 165.473 166.14 165.213 166.66C164.962 167.18 164.594 167.615 164.11 167.965C163.626 168.305 163.039 168.565 162.349 168.745C161.658 168.915 160.879 169 160.009 169ZM171.426 157.247V174.594H168.924V154.45H171.21L171.426 157.247ZM181.228 161.604V161.886C181.228 162.944 181.103 163.926 180.852 164.831C180.601 165.728 180.233 166.508 179.749 167.171C179.274 167.835 178.687 168.35 177.988 168.718C177.288 169.085 176.486 169.269 175.581 169.269C174.657 169.269 173.842 169.117 173.133 168.812C172.425 168.507 171.824 168.063 171.331 167.48C170.838 166.898 170.444 166.199 170.148 165.383C169.861 164.567 169.664 163.648 169.556 162.626V161.12C169.664 160.044 169.866 159.081 170.162 158.229C170.457 157.377 170.847 156.651 171.331 156.05C171.824 155.441 172.421 154.979 173.12 154.665C173.819 154.343 174.626 154.181 175.54 154.181C176.455 154.181 177.266 154.361 177.974 154.719C178.682 155.069 179.279 155.571 179.763 156.225C180.247 156.88 180.61 157.664 180.852 158.579C181.103 159.484 181.228 160.492 181.228 161.604ZM178.727 161.886V161.604C178.727 160.878 178.651 160.197 178.499 159.56C178.346 158.915 178.109 158.35 177.786 157.866C177.472 157.373 177.069 156.987 176.576 156.709C176.083 156.422 175.496 156.279 174.814 156.279C174.187 156.279 173.64 156.387 173.174 156.602C172.716 156.817 172.326 157.108 172.004 157.476C171.681 157.834 171.417 158.247 171.21 158.713C171.013 159.17 170.865 159.645 170.767 160.138V163.621C170.946 164.249 171.197 164.84 171.52 165.396C171.842 165.943 172.273 166.387 172.811 166.727C173.348 167.059 174.025 167.225 174.841 167.225C175.513 167.225 176.092 167.086 176.576 166.808C177.069 166.521 177.472 166.131 177.786 165.638C178.109 165.145 178.346 164.58 178.499 163.944C178.651 163.298 178.727 162.613 178.727 161.886ZM186.446 159.453H190.816C191.991 159.453 192.981 159.659 193.788 160.071C194.595 160.475 195.204 161.035 195.617 161.752C196.038 162.46 196.249 163.267 196.249 164.172C196.249 164.845 196.132 165.477 195.899 166.069C195.666 166.651 195.317 167.162 194.85 167.602C194.393 168.041 193.824 168.386 193.143 168.637C192.47 168.879 191.695 169 190.816 169H184.631V154.45H187.118V166.956H190.816C191.533 166.956 192.107 166.826 192.537 166.566C192.968 166.306 193.277 165.97 193.465 165.558C193.654 165.145 193.748 164.715 193.748 164.267C193.748 163.827 193.654 163.397 193.465 162.976C193.277 162.554 192.968 162.205 192.537 161.927C192.107 161.64 191.533 161.497 190.816 161.497H186.446V159.453ZM201.426 154.45V169H198.938V154.45H201.426Z" fill="white"/>
<defs>
<filter id="filter0_d_14_28" x="38.75" y="0" width="180" height="180" filterUnits="userSpaceOnUse" color-interpolation-filters="sRGB">
<feFlood flood-opacity="0" result="BackgroundImageFix"/>
<feColorMatrix in="SourceAlpha" type="matrix" values="0 0 0 0 0 0 0 0 0 0 0 0 0 0 0 0 0 0 127 0" result="hardAlpha"/>
<feOffset dy="8"/>
<feGaussianBlur stdDeviation="20"/>
<feComposite in2="hardAlpha" operator="out"/>
<feColorMatrix type="matrix" values="0 0 0 0 0 0 0 0 0 0 0 0 0 0 0 0 0 0 0.08 0"/>
<feBlend mode="normal" in2="BackgroundImageFix" result="effect1_dropShadow_14_28"/>
<feBlend mode="normal" in="SourceGraphic" in2="effect1_dropShadow_14_28" result="shape"/>
</filter>
<clipPath id="clip0_14_28">
<rect width="48" height="48" fill="white" transform="translate(104.75 58)"/>
</clipPath>
</defs>
</svg>
