<svg width="258" height="180" viewBox="0 0 258 180" fill="none" xmlns="http://www.w3.org/2000/svg">
<g filter="url(#filter0_d_14_39)">
<path d="M78.75 82C78.75 54.3858 101.136 32 128.75 32C156.364 32 178.75 54.3858 178.75 82C178.75 109.614 156.364 132 128.75 132C101.136 132 78.75 109.614 78.75 82Z" fill="white"/>
<g clip-path="url(#clip0_14_39)">
<g clip-path="url(#clip1_14_39)">
<path d="M152.129 81.6853C151.374 81.3621 150.736 80.8167 150.298 80.1216C149.958 79.5736 149.74 78.9589 149.658 78.3192C149.649 78.034 149.631 77.7431 149.602 77.4466C149.426 75.6415 148.717 72.2343 145.947 69.6953C142.768 66.7812 138.987 66.8973 137.016 67.2257C136.239 67.3567 135.454 67.4388 134.666 67.4718L134.07 67.4962C132.677 67.5543 131.282 67.453 129.911 67.1942C129.554 67.1259 129.163 67.0589 128.75 66.9881C128.005 66.8605 127.163 66.7158 126.25 66.5182C125.423 65.8137 124.525 65.4282 123.634 65.4101C123.097 65.4056 122.567 65.5219 122.081 65.7505C120.371 65.1699 117.153 64.4936 113.966 66.0489C111.567 67.2202 109.754 69.3975 108.803 72.0676C108.1 71.764 107.426 71.3962 106.791 70.9688C106.699 70.9072 106.59 70.8769 106.479 70.8821C106.369 70.8874 106.263 70.9279 106.177 70.9979C106.092 71.0678 106.031 71.1635 106.003 71.2706C105.976 71.3778 105.984 71.491 106.026 71.5933C106.407 72.5391 106.979 73.3963 107.706 74.1115C107.862 74.2643 108.025 74.4096 108.194 74.5469C108.107 75.1593 108.061 75.777 108.058 76.3957C107.159 76.0136 106.333 75.4772 105.618 74.8108C105.532 74.7309 105.421 74.6829 105.303 74.6748C105.186 74.6667 105.069 74.699 104.973 74.7663C104.876 74.8336 104.805 74.9319 104.772 75.0449C104.739 75.1579 104.745 75.2788 104.79 75.3876C105.226 76.4378 106.258 78.3283 108.335 79.4083C108.311 82.5177 108.274 87.9968 108.254 91.0286C108.25 91.734 108.385 92.4332 108.651 93.0862C108.918 93.7391 109.311 94.3329 109.808 94.8332C110.305 95.3336 110.897 95.7307 111.548 96.0017C112.199 96.2727 112.897 96.4122 113.603 96.4121H113.749C113.884 96.4122 114.017 96.3733 114.131 96.3001C114.244 96.2269 114.335 96.1226 114.391 95.9995C114.447 95.8764 114.466 95.7397 114.447 95.6058C114.428 95.4719 114.37 95.3464 114.282 95.2443L114.113 95.0505C114.105 95.0421 114.101 95.0312 114.101 95.0199C114.1 95.0085 114.104 94.9974 114.111 94.9884L114.383 94.626C114.462 94.5214 114.51 94.3968 114.522 94.2662C114.534 94.1357 114.51 94.0044 114.451 93.887C114.393 93.7697 114.303 93.6709 114.191 93.602C114.08 93.533 113.951 93.4965 113.82 93.4965C113.367 93.496 112.933 93.3158 112.612 92.9954C112.292 92.675 112.112 92.2406 112.111 91.7875C112.111 91.7695 112.111 91.7522 112.112 91.7316L112.491 80.0781C113.373 79.9421 114.225 79.6575 115.011 79.2364C115.366 79.0413 115.704 78.8171 116.022 78.5661C116.526 79.1407 117.104 79.647 117.739 80.072C117.73 80.8208 118.203 81.4978 118.88 81.6925L118.433 83.5924C118.018 85.3571 117.602 87.1218 117.186 88.8866C116.69 90.9997 116.432 93.1617 116.417 95.3321V95.3589C116.412 96.122 116.084 96.8721 115.494 97.4718C115.378 97.5938 115.3 97.7476 115.27 97.9139C115.241 98.0801 115.261 98.2514 115.328 98.4061C115.386 98.5521 115.487 98.6773 115.617 98.7655C115.747 98.8538 115.9 98.901 116.057 98.9011H120.759C120.924 98.9007 121.088 98.867 121.241 98.8021C121.393 98.7372 121.531 98.6423 121.647 98.5232C121.775 98.39 121.876 98.2327 121.944 98.0603C122.012 97.8879 122.045 97.7038 122.041 97.5187L121.99 94.3834C121.983 93.9891 122.077 93.5995 122.262 93.2514L122.846 92.1887C123.257 91.4406 123.668 90.6925 124.079 89.9444C124.532 92.7876 124.62 95.3 123.775 96.1616C123.748 96.1888 123.716 96.2205 123.679 96.2561C123.323 96.6024 122.661 97.2469 122.804 97.9797C122.837 98.1368 122.903 98.285 122.998 98.4142C123.11 98.5656 123.256 98.6886 123.424 98.7732C123.593 98.8579 123.778 98.9017 123.967 98.9012H129.621C129.827 98.8988 130.025 98.8243 130.182 98.6907C130.339 98.5571 130.443 98.3728 130.478 98.1699C130.484 98.1397 130.488 98.1093 130.49 98.0788C130.518 97.6876 130.315 97.413 130.1 97.1223C129.99 96.978 129.888 96.8276 129.794 96.6718C129.638 96.4027 129.557 96.0962 129.561 95.785L129.609 87.543C129.609 87.2155 129.694 86.8936 129.856 86.6084C129.942 86.4559 130.029 86.3035 130.115 86.151C131.686 86.7201 133.326 87.0797 134.991 87.2207C135.511 87.2643 136.035 87.2861 136.56 87.2861C136.973 87.2861 137.386 87.2725 137.798 87.2451C137.874 88.5515 137.82 89.8622 137.636 91.1578C137.411 92.7283 137.103 94.879 135.643 96.8117C135.581 96.8936 135.518 96.9742 135.453 97.0535C135.323 97.2161 135.239 97.4104 135.209 97.6163C135.179 97.8222 135.205 98.0323 135.283 98.2251L135.287 98.2348C135.364 98.4291 135.497 98.5962 135.669 98.7148C135.84 98.8335 136.044 98.8983 136.253 98.9012H140.823C141.446 98.9012 141.95 98.3884 141.976 97.7319L141.976 97.7303C141.976 97.7232 141.977 97.7162 141.977 97.7092C141.981 97.5541 141.958 97.3994 141.908 97.2526L141.783 96.8933C141.725 96.7225 141.719 96.5384 141.766 96.3642L143.228 90.9914C143.324 90.6406 143.468 90.3049 143.656 89.9939C143.624 90.594 143.605 91.1947 143.598 91.7956C143.586 93.0926 143.633 94.4065 143.739 95.7011C143.773 96.1239 143.699 96.5485 143.524 96.9347C143.444 97.1125 143.363 97.2902 143.282 97.468L143.258 97.522C143.098 97.8768 143.105 98.2342 143.278 98.5026C143.368 98.632 143.49 98.7365 143.631 98.8062C143.772 98.876 143.929 98.9086 144.086 98.9012H148.405C148.77 98.9012 149.071 98.751 149.229 98.4893C149.396 98.2133 149.385 97.8497 149.198 97.4921L148.904 96.9268C148.744 96.6206 148.651 96.2844 148.629 95.9399C148.503 94.0829 148.438 92.2223 148.435 90.361C148.431 88.1108 148.518 85.8614 148.696 83.6182C148.906 83.1017 149.083 82.5726 149.227 82.0338C149.824 82.7174 150.566 83.258 151.4 83.6154C151.516 83.6635 151.64 83.6884 151.766 83.6885C151.785 83.6885 151.804 83.6879 151.823 83.6868C152.016 83.6718 152.201 83.6004 152.354 83.4816C152.508 83.3628 152.623 83.2016 152.686 83.0181C152.778 82.7666 152.771 82.4898 152.668 82.2428C152.565 81.9957 152.372 81.7967 152.129 81.6853ZM108.165 73.6428C107.613 73.1011 107.16 72.4679 106.824 71.7714C107.391 72.1237 107.984 72.432 108.598 72.6936C108.492 73.0517 108.4 73.4171 108.324 73.7899C108.271 73.741 108.216 73.6933 108.165 73.6428H108.165ZM113.82 94.1528C113.829 94.1527 113.838 94.1552 113.846 94.16C113.854 94.1648 113.86 94.1716 113.864 94.1798C113.868 94.188 113.87 94.1972 113.869 94.2062C113.868 94.2153 113.865 94.2239 113.859 94.2311L113.586 94.5943C113.488 94.7231 113.438 94.8817 113.444 95.0432C113.45 95.2048 113.511 95.3594 113.618 95.4808L113.786 95.6744C113.792 95.6815 113.796 95.6903 113.798 95.6996C113.799 95.7089 113.798 95.7185 113.794 95.7271C113.79 95.7357 113.784 95.743 113.776 95.7481C113.768 95.7532 113.758 95.7559 113.749 95.7559H113.603C112.984 95.7559 112.371 95.6335 111.8 95.3958C111.229 95.1581 110.71 94.8097 110.274 94.3708C109.838 93.9318 109.493 93.4109 109.259 92.8381C109.025 92.2653 108.907 91.6518 108.911 91.033C108.93 88.094 108.965 82.8554 108.989 79.7054C109.76 80.0089 110.582 80.1641 111.411 80.1627C111.554 80.1627 111.694 80.1568 111.832 80.1484L111.456 91.7076C111.455 91.7346 111.455 91.7605 111.455 91.7875C111.456 92.4146 111.705 93.0158 112.149 93.4592C112.592 93.9026 113.193 94.152 113.82 94.1528ZM118.403 79.947L119.102 74.7387C119.113 74.6525 119.09 74.5652 119.037 74.496C118.984 74.4268 118.906 74.3815 118.82 74.3699C118.734 74.3584 118.646 74.3815 118.577 74.4344C118.508 74.4872 118.463 74.5653 118.451 74.6515L117.824 79.3306C117.347 78.9818 116.91 78.5822 116.52 78.1387C116.678 77.9912 116.831 77.8362 116.979 77.6737C117.008 77.6418 117.03 77.6045 117.045 77.5639C117.059 77.5234 117.066 77.4803 117.063 77.4373C117.061 77.3942 117.051 77.352 117.032 77.3131C117.014 77.2741 116.988 77.2391 116.956 77.2101C116.924 77.1812 116.887 77.1587 116.847 77.1442C116.806 77.1296 116.763 77.1232 116.72 77.1253C116.677 77.1273 116.635 77.1378 116.596 77.1562C116.557 77.1746 116.522 77.2005 116.493 77.2324C115.977 77.8051 115.37 78.2879 114.696 78.661C113.993 79.0464 111.49 80.2035 108.807 78.9113C107.148 78.1119 106.183 76.7332 105.665 75.7173C106.834 76.6595 108.805 77.7968 111.274 77.4955C113.131 77.269 114.506 76.3255 115.332 75.574C115.396 75.5154 115.435 75.4337 115.439 75.3467C115.443 75.2598 115.412 75.1748 115.354 75.1104C115.295 75.046 115.214 75.0075 115.127 75.0033C115.04 74.9992 114.955 75.0298 114.89 75.0883C114.135 75.7758 112.88 76.6385 111.194 76.8442C110.363 76.9447 109.519 76.8716 108.717 76.6294C108.695 75.2725 108.894 73.9211 109.306 72.6279L109.306 72.6262C109.308 72.6227 109.308 72.6192 109.309 72.6159C110.169 69.955 111.914 67.7812 114.254 66.6385C116.954 65.321 119.75 65.762 121.303 66.1971C120.373 66.8436 119.643 67.7561 119.193 68.415C119.146 68.4869 119.129 68.5745 119.145 68.659C119.162 68.7435 119.211 68.8181 119.282 68.8666C119.353 68.9152 119.441 68.9338 119.526 68.9186C119.61 68.9033 119.686 68.8554 119.735 68.785C121.375 66.3844 122.872 66.0524 123.621 66.0663C124.37 66.0815 125.137 66.4216 125.856 67.0441C125.864 67.0523 125.873 67.0601 125.882 67.0674C126.219 67.3665 126.525 67.6988 126.795 68.0592C128.121 69.8061 129.142 72.7975 128.436 75.5425C127.968 77.3575 126.778 78.9343 125.083 79.9828C123.305 81.0708 121.187 81.4617 119.138 81.0801C118.669 80.9957 118.332 80.4767 118.403 79.947ZM122.271 91.8728L121.686 92.9376C121.447 93.385 121.326 93.8861 121.334 94.3934L121.385 97.5294C121.387 97.6275 121.37 97.7251 121.335 97.8167C121.3 97.9082 121.247 97.9919 121.179 98.0629C121.124 98.1198 121.059 98.1652 120.987 98.1964C120.915 98.2277 120.837 98.2442 120.759 98.245H116.057C116.029 98.2446 116.002 98.2353 115.98 98.2185C115.958 98.2018 115.941 98.1783 115.933 98.1516C115.917 98.1159 115.911 98.0761 115.916 98.0371C115.921 97.9981 115.937 97.9613 115.963 97.9313C116.672 97.21 117.067 96.2981 117.073 95.3612V95.3344C117.088 93.2138 117.34 91.1015 117.825 89.0371C118.241 87.2721 118.657 85.5073 119.072 83.7427L119.529 81.8016C119.913 81.8502 120.301 81.8749 120.689 81.8755C121.187 81.8753 121.685 81.8346 122.176 81.7538C122.477 82.774 122.756 83.8007 123.012 84.8331C123.334 86.1372 123.65 87.5407 123.9 88.906C123.357 89.8947 122.813 90.8836 122.271 91.8728ZM148.616 97.7961C148.692 97.9413 148.712 98.0766 148.668 98.1494C148.631 98.2101 148.535 98.245 148.405 98.245H144.087C144.014 98.245 143.885 98.2322 143.83 98.1466C143.78 98.0703 143.79 97.9377 143.856 97.7928L143.88 97.7394C143.961 97.5609 144.042 97.3828 144.122 97.2051C144.343 96.7174 144.436 96.1814 144.393 95.6476C144.289 94.3685 144.243 93.0854 144.254 91.8022C144.264 90.9178 144.302 90.0234 144.367 89.1408C144.441 89.0748 144.519 89.0121 144.599 88.9527C145.955 87.9417 147.088 86.6622 147.928 85.1938C147.826 86.9146 147.776 88.6381 147.778 90.362C147.782 92.2377 147.847 94.1127 147.974 95.9841C148.002 96.4193 148.12 96.8439 148.322 97.2306L148.616 97.7961ZM147.565 84.4948C146.754 86.0395 145.607 87.3826 144.208 88.4253C144.079 88.5214 143.955 88.625 143.838 88.7354C143.834 88.7386 143.831 88.7423 143.827 88.7457C143.234 89.311 142.808 90.0282 142.595 90.8191L141.133 96.1916C141.05 96.4929 141.061 96.8121 141.163 97.1074L141.287 97.4669C141.311 97.5367 141.322 97.6099 141.321 97.6836C141.321 97.6894 141.32 97.6953 141.32 97.7012C141.311 98.0061 141.092 98.245 140.823 98.245H136.253C136.174 98.2419 136.098 98.2156 136.034 98.1694C135.97 98.1233 135.922 98.0593 135.894 97.9855L135.89 97.9763C135.856 97.8933 135.844 97.8026 135.857 97.7136C135.869 97.6246 135.904 97.5404 135.96 97.4697C136.03 97.384 136.099 97.2968 136.166 97.2082C137.729 95.1397 138.051 92.8919 138.286 91.2507C138.492 89.7993 138.541 88.3298 138.431 86.8679V86.8664L138.431 86.865C138.398 86.4096 138.349 85.9541 138.286 85.4983C138.274 85.4121 138.228 85.3343 138.159 85.2818C138.089 85.2294 138.002 85.2067 137.915 85.2187C137.829 85.2308 137.751 85.2765 137.699 85.346C137.647 85.4154 137.624 85.5029 137.636 85.5891C137.682 85.9228 137.721 86.2567 137.75 86.5906C136.849 86.6497 135.945 86.6417 135.046 86.5667C133.475 86.4338 131.929 86.0994 130.444 85.5717L131.376 83.9311C131.418 83.8555 131.429 83.7663 131.406 83.6829C131.382 83.5995 131.327 83.5287 131.252 83.4859C131.176 83.4431 131.087 83.4318 131.004 83.4545C130.92 83.4772 130.849 83.532 130.806 83.6069C130.298 84.4995 129.792 85.3919 129.285 86.284C129.068 86.6671 128.954 87.0994 128.952 87.5395L128.905 95.7806C128.9 96.2098 129.012 96.6323 129.228 97.0032C129.333 97.1793 129.448 97.3493 129.572 97.5123C129.757 97.7625 129.846 97.8892 129.836 98.0247C129.835 98.0324 129.835 98.0401 129.834 98.0472C129.833 98.0512 129.832 98.0552 129.831 98.0592C129.824 98.11 129.798 98.1564 129.76 98.1903C129.721 98.2242 129.672 98.2435 129.621 98.2449H123.967C123.882 98.2461 123.798 98.2272 123.722 98.1895C123.645 98.1518 123.579 98.0966 123.529 98.0283C123.489 97.976 123.462 97.9158 123.448 97.8518C123.373 97.4695 123.889 96.9677 124.137 96.7265C124.177 96.6869 124.213 96.6518 124.243 96.6213C125.214 95.6322 125.326 93.108 124.578 88.9522C124.578 88.9115 124.571 88.8711 124.556 88.8331C124.329 87.5914 124.027 86.2054 123.649 84.6753C123.395 83.6524 123.119 82.6351 122.822 81.624C123.743 81.4042 124.623 81.0385 125.429 80.5409C127.268 79.4028 128.561 77.6859 129.071 75.7062C129.731 73.1455 129.026 69.913 127.318 67.6625C127.238 67.5581 127.156 67.4557 127.072 67.3553C127.631 67.4621 128.155 67.552 128.639 67.6349C129.049 67.7052 129.437 67.7716 129.788 67.8388C131.208 68.107 132.654 68.2121 134.097 68.152L134.693 68.1275C135.508 68.0934 136.32 68.0085 137.124 67.873C138.977 67.564 142.53 67.453 145.504 70.1791C148.113 72.5702 148.782 75.7987 148.949 77.5104C149.262 80.7085 148.216 83.2589 147.565 84.4947V84.4948ZM152.068 82.7969C152.048 82.8597 152.011 82.9153 151.96 82.957C151.909 82.9987 151.847 83.0248 151.782 83.0319C151.738 83.0343 151.694 83.0268 151.653 83.0098C150.76 82.626 149.987 82.0074 149.416 81.2198C149.484 80.8784 149.538 80.5344 149.578 80.1886C149.63 80.2848 149.685 80.3791 149.743 80.4715C150.253 81.2801 150.996 81.9144 151.874 82.2902C151.964 82.3359 152.033 82.4129 152.068 82.5065C152.104 82.6 152.104 82.7035 152.068 82.7969ZM115.697 70.2533C115.502 70.2532 115.311 70.3112 115.148 70.4198C114.986 70.5283 114.859 70.6827 114.784 70.8632C114.71 71.0438 114.69 71.2425 114.728 71.4342C114.766 71.6259 114.86 71.802 114.999 71.9402C115.137 72.0784 115.313 72.1726 115.504 72.2107C115.696 72.2488 115.895 72.2293 116.075 72.1545C116.256 72.0797 116.41 71.953 116.519 71.7905C116.628 71.628 116.686 71.4369 116.686 71.2415C116.685 70.9795 116.581 70.7284 116.396 70.5431C116.211 70.3579 115.959 70.2537 115.697 70.2534V70.2533ZM115.697 71.5735C115.632 71.5735 115.568 71.554 115.513 71.5175C115.458 71.4811 115.416 71.4292 115.391 71.3686C115.365 71.3079 115.359 71.2411 115.372 71.1767C115.385 71.1123 115.416 71.0532 115.463 71.0067C115.509 70.9603 115.568 70.9287 115.633 70.9159C115.697 70.9031 115.764 70.9097 115.824 70.9348C115.885 70.9599 115.937 71.0025 115.973 71.0571C116.01 71.1117 116.029 71.1759 116.029 71.2416C116.029 71.3296 115.994 71.4139 115.932 71.4761C115.87 71.5384 115.785 71.5734 115.697 71.5735Z" fill="#FF005A"/>
</g>
</g>
</g>
<path d="M79.3007 149.169H81.8477L88.3444 165.336L94.8275 149.169H97.3881L89.325 169H87.3365L79.3007 149.169ZM78.4699 149.169H80.7172L81.085 161.264V169H78.4699V149.169ZM95.958 149.169H98.2053V169H95.5902V161.264L95.958 149.169ZM111.131 166.48V158.894C111.131 158.313 111.013 157.809 110.776 157.382C110.549 156.946 110.204 156.61 109.741 156.374C109.278 156.138 108.706 156.02 108.025 156.02C107.39 156.02 106.831 156.129 106.35 156.347C105.878 156.565 105.506 156.851 105.233 157.205C104.97 157.559 104.838 157.941 104.838 158.349H102.318C102.318 157.823 102.455 157.3 102.727 156.783C102.999 156.265 103.39 155.798 103.898 155.38C104.416 154.953 105.033 154.617 105.751 154.372C106.477 154.118 107.285 153.991 108.175 153.991C109.247 153.991 110.191 154.172 111.008 154.536C111.834 154.899 112.479 155.448 112.942 156.184C113.414 156.91 113.65 157.823 113.65 158.921V165.786C113.65 166.276 113.691 166.798 113.773 167.352C113.864 167.906 113.995 168.383 114.168 168.782V169H111.539C111.412 168.709 111.312 168.324 111.24 167.842C111.167 167.352 111.131 166.898 111.131 166.48ZM111.566 160.065L111.594 161.836H109.047C108.329 161.836 107.689 161.895 107.126 162.013C106.563 162.122 106.091 162.29 105.71 162.517C105.329 162.744 105.038 163.03 104.838 163.375C104.638 163.711 104.539 164.106 104.539 164.56C104.539 165.023 104.643 165.445 104.852 165.827C105.061 166.208 105.374 166.512 105.792 166.739C106.218 166.957 106.74 167.066 107.358 167.066C108.13 167.066 108.811 166.903 109.401 166.576C109.991 166.249 110.459 165.849 110.804 165.377C111.158 164.905 111.349 164.446 111.376 164.001L112.452 165.214C112.388 165.595 112.216 166.017 111.934 166.48C111.653 166.943 111.276 167.388 110.804 167.815C110.341 168.233 109.787 168.582 109.142 168.864C108.506 169.136 107.789 169.272 106.99 169.272C105.991 169.272 105.115 169.077 104.361 168.687C103.617 168.296 103.036 167.774 102.618 167.12C102.21 166.458 102.005 165.718 102.005 164.9C102.005 164.11 102.16 163.416 102.468 162.817C102.777 162.208 103.222 161.704 103.803 161.305C104.384 160.896 105.083 160.587 105.901 160.379C106.718 160.17 107.63 160.065 108.638 160.065H111.566ZM126.085 165.649L131.097 154.263H133.522L126.957 169H125.214L118.676 154.263H121.1L126.085 165.649ZM120.365 154.263V169H117.845V154.263H120.365ZM131.724 169V154.263H134.257V169H131.724ZM137.649 161.795V161.482C137.649 160.419 137.803 159.434 138.112 158.526C138.42 157.609 138.865 156.815 139.447 156.143C140.028 155.462 140.731 154.935 141.558 154.563C142.384 154.181 143.31 153.991 144.336 153.991C145.371 153.991 146.302 154.181 147.128 154.563C147.964 154.935 148.672 155.462 149.253 156.143C149.843 156.815 150.293 157.609 150.601 158.526C150.91 159.434 151.064 160.419 151.064 161.482V161.795C151.064 162.857 150.91 163.843 150.601 164.751C150.293 165.659 149.843 166.453 149.253 167.134C148.672 167.806 147.968 168.333 147.142 168.714C146.325 169.086 145.398 169.272 144.363 169.272C143.328 169.272 142.398 169.086 141.571 168.714C140.745 168.333 140.037 167.806 139.447 167.134C138.865 166.453 138.42 165.659 138.112 164.751C137.803 163.843 137.649 162.857 137.649 161.795ZM140.168 161.482V161.795C140.168 162.531 140.255 163.225 140.427 163.879C140.6 164.524 140.858 165.096 141.203 165.595C141.558 166.094 141.998 166.489 142.525 166.78C143.051 167.061 143.664 167.202 144.363 167.202C145.053 167.202 145.657 167.061 146.175 166.78C146.701 166.489 147.137 166.094 147.482 165.595C147.827 165.096 148.086 164.524 148.259 163.879C148.44 163.225 148.531 162.531 148.531 161.795V161.482C148.531 160.755 148.44 160.07 148.259 159.425C148.086 158.771 147.823 158.195 147.469 157.695C147.124 157.187 146.688 156.787 146.161 156.497C145.644 156.206 145.035 156.061 144.336 156.061C143.646 156.061 143.038 156.206 142.511 156.497C141.993 156.787 141.558 157.187 141.203 157.695C140.858 158.195 140.6 158.771 140.427 159.425C140.255 160.07 140.168 160.755 140.168 161.482ZM164.221 160.651V162.694H156.431V160.651H164.221ZM156.962 154.263V169H154.442V154.263H156.962ZM166.264 154.263V169H163.731V154.263H166.264ZM176.329 154.263V169H173.796V154.263H176.329ZM181.273 154.263V156.306H168.947V154.263H181.273Z" fill="white"/>
<defs>
<filter id="filter0_d_14_39" x="38.75" y="0" width="180" height="180" filterUnits="userSpaceOnUse" color-interpolation-filters="sRGB">
<feFlood flood-opacity="0" result="BackgroundImageFix"/>
<feColorMatrix in="SourceAlpha" type="matrix" values="0 0 0 0 0 0 0 0 0 0 0 0 0 0 0 0 0 0 127 0" result="hardAlpha"/>
<feOffset dy="8"/>
<feGaussianBlur stdDeviation="20"/>
<feComposite in2="hardAlpha" operator="out"/>
<feColorMatrix type="matrix" values="0 0 0 0 0 0 0 0 0 0 0 0 0 0 0 0 0 0 0.08 0"/>
<feBlend mode="normal" in2="BackgroundImageFix" result="effect1_dropShadow_14_39"/>
<feBlend mode="normal" in="SourceGraphic" in2="effect1_dropShadow_14_39" result="shape"/>
</filter>
<clipPath id="clip0_14_39">
<rect width="48" height="48" fill="white" transform="translate(104.75 58)"/>
</clipPath>
<clipPath id="clip1_14_39">
<rect width="48" height="48" fill="white" transform="translate(104.75 58)"/>
</clipPath>
</defs>
</svg>
