<svg width="259" height="219" viewBox="0 0 259 219" fill="none" xmlns="http://www.w3.org/2000/svg">
<g filter="url(#filter0_d_14_53)">
<path d="M79.25 82.66C79.25 55.0458 101.636 32.66 129.25 32.66C156.864 32.66 179.25 55.0458 179.25 82.66C179.25 110.274 156.864 132.66 129.25 132.66C101.636 132.66 79.25 110.274 79.25 82.66Z" fill="white"/>
<g clip-path="url(#clip0_14_53)">
<path d="M135.25 96.592V95.0298C134.754 95.1798 134.249 95.3148 133.75 95.4355V96.9775C134.236 96.865 134.74 96.7375 135.25 96.592Z" fill="#FF005A"/>
<path d="M142.641 83.4153C142.337 83.4505 135.151 84.3153 132.651 86.812C131.376 88.087 130.53 90.5763 130 92.7543V83.4048C130.276 83.3725 136.665 82.6053 138.897 80.3725C141.13 78.1398 141.897 71.7475 141.93 71.4745L142.04 70.5333L141.099 70.6435C140.828 70.675 134.435 71.4415 132.201 73.6758C131.187 74.689 130.476 76.5573 130 78.3258V70.6323C130.975 70.5055 134.904 69.9115 136.432 68.3823C138.082 66.7323 138.645 62.2713 138.703 61.768L138.813 60.8268L137.875 60.937C137.372 60.9955 132.912 61.5573 131.261 63.2088C130.163 64.306 129.549 66.6393 129.242 68.2338C128.935 66.6408 128.321 64.3075 127.224 63.2088C125.574 61.5588 121.112 60.9955 120.609 60.937L119.664 60.8275L119.774 61.7688C119.832 62.272 120.394 66.7323 122.046 68.383C123.585 69.922 127.556 70.5138 128.5 70.633V78.4068C128.022 76.6173 127.307 74.7055 126.277 73.6758C124.044 71.4415 117.652 70.6758 117.38 70.6435L116.439 70.5333L116.548 71.4745C116.58 71.746 117.347 78.1383 119.58 80.3725C121.814 82.6068 128.205 83.3725 128.479 83.4048L128.5 83.41V92.848C127.975 90.6483 127.119 88.1043 125.826 86.812C123.325 84.31 116.141 83.4505 115.836 83.4153L114.895 83.305L115.005 84.247C115.041 84.5515 115.905 91.7373 118.401 94.2363C120.897 96.7353 128.087 97.5978 128.391 97.633L128.5 97.6458V103.66H119.5V105.16H139V103.66H130V97.6428L130.086 97.633C130.188 97.621 131.055 97.5153 132.25 97.2918V95.7655C131.754 95.863 131.288 95.9448 130.879 96.0093C131.25 93.6378 132.183 89.4018 133.712 87.8725C135.241 86.3433 139.478 85.411 141.849 85.039C141.479 87.4098 140.546 91.6458 139.016 93.1758C138.352 93.7591 137.583 94.2104 136.75 94.5055V96.1098C137.976 95.7211 139.109 95.0827 140.076 94.2348C142.576 91.7358 143.438 84.55 143.473 84.2455L143.583 83.3035L142.641 83.4153ZM133.262 74.7363C134.574 73.4238 138.195 72.6085 140.304 72.2695C139.965 74.3785 139.152 77.9973 137.837 79.312C136.522 80.6268 132.904 81.4398 130.795 81.778C131.134 79.669 131.95 76.0495 133.262 74.7363ZM132.318 64.2693C133.187 63.4008 135.533 62.8368 137.069 62.5713C136.803 64.108 136.239 66.4548 135.372 67.3225C134.504 68.1903 132.157 68.755 130.621 69.0205C130.887 67.4845 131.451 65.1378 132.318 64.2693ZM123.107 67.3225C122.238 66.4548 121.674 64.108 121.409 62.5713C122.945 62.8368 125.292 63.4008 126.16 64.2693C127.029 65.1378 127.592 67.4853 127.857 69.0205C126.325 68.7558 123.977 68.1925 123.107 67.3225ZM120.641 79.312C119.328 77.9988 118.514 74.3785 118.175 72.2695C120.284 72.6078 123.902 73.4215 125.217 74.7363C126.531 76.051 127.344 79.669 127.683 81.7788C125.575 81.4405 121.956 80.6268 120.641 79.312ZM119.462 93.1758C117.935 91.648 117.001 87.4105 116.629 85.039C119.001 85.414 123.238 86.3448 124.766 87.8725C126.294 89.4003 127.225 93.6378 127.6 96.01C125.228 95.635 120.992 94.705 119.462 93.1758Z" fill="#FF005A"/>
</g>
</g>
<path d="M53.8435 167.507V169.66H38.7287V167.507H53.8435ZM39.1539 167.507V174.57H36.5342L36.5205 167.507H39.1539ZM56.1478 167.507L56.1204 174.557H53.5006V167.507H56.1478ZM51.2512 149.69V151.857H42.5006V149.69H51.2512ZM53.5281 149.69V169.66H50.8946V149.69H53.5281ZM41.5953 149.69H44.2425L43.831 157.727C43.7761 158.934 43.6618 160.05 43.4881 161.074C43.3144 162.089 43.0995 163.017 42.8434 163.858C42.5874 164.699 42.2948 165.454 41.9656 166.121C41.6365 166.78 41.2844 167.351 40.9095 167.836C40.5346 168.311 40.1414 168.704 39.73 169.015C39.3276 169.317 38.9207 169.532 38.5092 169.66H37.3023V167.507H38.1526C38.3904 167.251 38.6601 166.88 38.9619 166.396C39.2728 165.911 39.5791 165.285 39.8808 164.517C40.1917 163.739 40.4615 162.793 40.6901 161.677C40.9278 160.562 41.0878 159.245 41.1701 157.727L41.5953 149.69ZM61.4147 157.672V175.366H58.8635V154.82H61.1952L61.4147 157.672ZM71.4135 162.116V162.404C71.4135 163.483 71.2855 164.485 71.0295 165.408C70.7734 166.323 70.3985 167.118 69.9048 167.795C69.4201 168.471 68.8212 168.997 68.108 169.372C67.3948 169.747 66.5764 169.934 65.6529 169.934C64.711 169.934 63.8789 169.779 63.1566 169.468C62.4342 169.157 61.8216 168.704 61.3187 168.11C60.8157 167.516 60.4134 166.803 60.1117 165.97C59.8191 165.138 59.6179 164.201 59.5082 163.159V161.623C59.6179 160.525 59.8236 159.542 60.1254 158.674C60.4271 157.805 60.8249 157.064 61.3187 156.452C61.8216 155.83 62.4296 155.359 63.1429 155.039C63.8561 154.71 64.679 154.545 65.6117 154.545C66.5444 154.545 67.3719 154.728 68.0943 155.094C68.8166 155.45 69.4247 155.963 69.9185 156.63C70.4122 157.298 70.7826 158.098 71.0295 159.03C71.2855 159.954 71.4135 160.982 71.4135 162.116ZM68.8624 162.404V162.116C68.8624 161.376 68.7846 160.681 68.6292 160.032C68.4737 159.373 68.2314 158.797 67.9023 158.303C67.5822 157.8 67.1707 157.407 66.6678 157.124C66.1649 156.831 65.566 156.685 64.8711 156.685C64.231 156.685 63.6732 156.795 63.1977 157.014C62.7314 157.234 62.3336 157.531 62.0044 157.906C61.6753 158.271 61.4055 158.692 61.1952 159.167C60.994 159.634 60.8432 160.118 60.7426 160.621V164.174C60.9255 164.814 61.1815 165.417 61.5107 165.984C61.8399 166.542 62.2788 166.995 62.8274 167.342C63.376 167.68 64.0664 167.85 64.8985 167.85C65.5843 167.85 66.1741 167.708 66.6678 167.424C67.1707 167.132 67.5822 166.734 67.9023 166.231C68.2314 165.728 68.4737 165.152 68.6292 164.503C68.7846 163.845 68.8624 163.145 68.8624 162.404ZM80.8088 169.934C79.7756 169.934 78.8383 169.761 77.9971 169.413C77.165 169.057 76.4472 168.558 75.8437 167.918C75.2494 167.278 74.7922 166.519 74.4721 165.641C74.1521 164.763 73.9921 163.803 73.9921 162.761V162.185C73.9921 160.978 74.1704 159.904 74.527 158.962C74.8836 158.011 75.3682 157.206 75.9809 156.548C76.5935 155.889 77.2884 155.391 78.0657 155.053C78.8429 154.714 79.6476 154.545 80.4797 154.545C81.5404 154.545 82.4547 154.728 83.2228 155.094C84.0001 155.46 84.6356 155.972 85.1293 156.63C85.6231 157.279 85.9888 158.047 86.2266 158.934C86.4643 159.812 86.5832 160.772 86.5832 161.815V162.953H75.5008V160.882H84.0458V160.69C84.0092 160.032 83.872 159.391 83.6343 158.77C83.4057 158.148 83.0399 157.636 82.537 157.234C82.0341 156.831 81.3483 156.63 80.4797 156.63C79.9036 156.63 79.3733 156.753 78.8886 157C78.404 157.238 77.988 157.595 77.6405 158.07C77.293 158.546 77.0233 159.126 76.8313 159.812C76.6392 160.498 76.5432 161.289 76.5432 162.185V162.761C76.5432 163.465 76.6392 164.128 76.8313 164.75C77.0324 165.362 77.3205 165.902 77.6953 166.368C78.0794 166.835 78.5412 167.2 79.0806 167.466C79.6293 167.731 80.2511 167.863 80.946 167.863C81.8421 167.863 82.601 167.68 83.2228 167.315C83.8446 166.949 84.3887 166.46 84.855 165.847L86.3912 167.068C86.0711 167.552 85.6642 168.014 85.1705 168.453C84.6767 168.892 84.0686 169.249 83.3463 169.523C82.633 169.797 81.7872 169.934 80.8088 169.934ZM96.5135 163.131H91.6443L91.6169 161.101H95.5945C96.3809 161.101 97.0347 161.024 97.5559 160.868C98.0862 160.713 98.484 160.48 98.7491 160.169C99.0143 159.858 99.1469 159.474 99.1469 159.017C99.1469 158.66 99.0692 158.349 98.9137 158.084C98.7674 157.81 98.5434 157.586 98.2416 157.412C97.9399 157.229 97.565 157.096 97.1169 157.014C96.678 156.923 96.1614 156.877 95.5671 156.877H92.3164V169.66H89.779V154.82H95.5671C96.5089 154.82 97.3547 154.902 98.1045 155.066C98.8634 155.231 99.5081 155.482 100.038 155.821C100.578 156.15 100.989 156.571 101.273 157.083C101.556 157.595 101.698 158.198 101.698 158.893C101.698 159.341 101.607 159.766 101.424 160.169C101.241 160.571 100.971 160.928 100.614 161.239C100.258 161.549 99.819 161.805 99.2978 162.007C98.7766 162.199 98.1776 162.322 97.501 162.377L96.5135 163.131ZM96.5135 169.66H90.7254L91.9872 167.603H96.5135C97.2175 167.603 97.8027 167.516 98.2691 167.342C98.7354 167.159 99.0829 166.903 99.3115 166.574C99.5492 166.236 99.6681 165.833 99.6681 165.367C99.6681 164.901 99.5492 164.503 99.3115 164.174C99.0829 163.835 98.7354 163.579 98.2691 163.406C97.8027 163.223 97.2175 163.131 96.5135 163.131H92.6593L92.6867 161.101H97.501L98.42 161.869C99.2338 161.933 99.9241 162.135 100.491 162.473C101.058 162.811 101.488 163.241 101.78 163.762C102.073 164.274 102.219 164.832 102.219 165.436C102.219 166.13 102.087 166.743 101.821 167.273C101.565 167.804 101.191 168.247 100.697 168.604C100.203 168.951 99.6041 169.217 98.9 169.399C98.1959 169.573 97.4004 169.66 96.5135 169.66ZM104.949 162.404V162.089C104.949 161.019 105.104 160.027 105.415 159.113C105.726 158.189 106.174 157.389 106.759 156.712C107.344 156.027 108.053 155.496 108.885 155.121C109.717 154.737 110.65 154.545 111.683 154.545C112.726 154.545 113.663 154.737 114.495 155.121C115.336 155.496 116.049 156.027 116.635 156.712C117.229 157.389 117.682 158.189 117.992 159.113C118.303 160.027 118.459 161.019 118.459 162.089V162.404C118.459 163.474 118.303 164.466 117.992 165.381C117.682 166.295 117.229 167.095 116.635 167.781C116.049 168.458 115.341 168.988 114.509 169.372C113.686 169.747 112.753 169.934 111.711 169.934C110.668 169.934 109.731 169.747 108.899 169.372C108.067 168.988 107.354 168.458 106.759 167.781C106.174 167.095 105.726 166.295 105.415 165.381C105.104 164.466 104.949 163.474 104.949 162.404ZM107.486 162.089V162.404C107.486 163.145 107.573 163.845 107.747 164.503C107.92 165.152 108.181 165.728 108.529 166.231C108.885 166.734 109.329 167.132 109.859 167.424C110.389 167.708 111.007 167.85 111.711 167.85C112.406 167.85 113.014 167.708 113.535 167.424C114.065 167.132 114.504 166.734 114.852 166.231C115.199 165.728 115.46 165.152 115.633 164.503C115.816 163.845 115.908 163.145 115.908 162.404V162.089C115.908 161.357 115.816 160.667 115.633 160.018C115.46 159.359 115.194 158.779 114.838 158.276C114.49 157.764 114.051 157.362 113.521 157.069C113 156.776 112.387 156.63 111.683 156.63C110.988 156.63 110.376 156.776 109.845 157.069C109.324 157.362 108.885 157.764 108.529 158.276C108.181 158.779 107.92 159.359 107.747 160.018C107.573 160.667 107.486 161.357 107.486 162.089ZM128.608 163.131H123.739L123.712 161.101H127.69C128.476 161.101 129.13 161.024 129.651 160.868C130.181 160.713 130.579 160.48 130.844 160.169C131.109 159.858 131.242 159.474 131.242 159.017C131.242 158.66 131.164 158.349 131.009 158.084C130.862 157.81 130.638 157.586 130.337 157.412C130.035 157.229 129.66 157.096 129.212 157.014C128.773 156.923 128.256 156.877 127.662 156.877H124.411V169.66H121.874V154.82H127.662C128.604 154.82 129.45 154.902 130.2 155.066C130.958 155.231 131.603 155.482 132.133 155.821C132.673 156.15 133.084 156.571 133.368 157.083C133.651 157.595 133.793 158.198 133.793 158.893C133.793 159.341 133.702 159.766 133.519 160.169C133.336 160.571 133.066 160.928 132.709 161.239C132.353 161.549 131.914 161.805 131.393 162.007C130.872 162.199 130.273 162.322 129.596 162.377L128.608 163.131ZM128.608 169.66H122.82L124.082 167.603H128.608C129.313 167.603 129.898 167.516 130.364 167.342C130.83 167.159 131.178 166.903 131.406 166.574C131.644 166.236 131.763 165.833 131.763 165.367C131.763 164.901 131.644 164.503 131.406 164.174C131.178 163.835 130.83 163.579 130.364 163.406C129.898 163.223 129.313 163.131 128.608 163.131H124.754L124.782 161.101H129.596L130.515 161.869C131.329 161.933 132.019 162.135 132.586 162.473C133.153 162.811 133.583 163.241 133.875 163.762C134.168 164.274 134.314 164.832 134.314 165.436C134.314 166.13 134.182 166.743 133.916 167.273C133.66 167.804 133.286 168.247 132.792 168.604C132.298 168.951 131.699 169.217 130.995 169.399C130.291 169.573 129.495 169.66 128.608 169.66ZM140.459 165.641L147.303 154.82H149.854V169.66H147.303V158.838L140.459 169.66H137.935V154.82H140.459V165.641ZM156.602 154.82H159.14L158.92 160.374C158.866 161.783 158.706 162.999 158.44 164.023C158.175 165.047 157.837 165.92 157.425 166.643C157.014 167.356 156.552 167.955 156.04 168.439C155.537 168.924 155.016 169.331 154.477 169.66H153.215L153.283 167.589L153.804 167.575C154.106 167.219 154.399 166.853 154.682 166.478C154.966 166.094 155.226 165.641 155.464 165.12C155.702 164.59 155.898 163.945 156.054 163.186C156.218 162.418 156.324 161.481 156.369 160.374L156.602 154.82ZM157.233 154.82H166.162V169.66H163.625V157.165H157.233V154.82ZM152.639 167.575H168.069V174.035H165.531V169.66H155.176V174.035H152.625L152.639 167.575ZM180.948 161.252V163.31H173.103V161.252H180.948ZM173.637 154.82V169.66H171.1V154.82H173.637ZM183.005 154.82V169.66H180.454V154.82H183.005ZM189.178 159.922H193.635C194.833 159.922 195.843 160.132 196.666 160.553C197.489 160.964 198.111 161.536 198.532 162.267C198.961 162.99 199.176 163.813 199.176 164.736C199.176 165.422 199.057 166.066 198.82 166.67C198.582 167.264 198.225 167.786 197.75 168.234C197.284 168.682 196.703 169.034 196.008 169.29C195.322 169.537 194.531 169.66 193.635 169.66H187.326V154.82H189.863V167.575H193.635C194.367 167.575 194.952 167.443 195.391 167.177C195.83 166.912 196.145 166.569 196.337 166.149C196.529 165.728 196.625 165.289 196.625 164.832C196.625 164.384 196.529 163.945 196.337 163.515C196.145 163.086 195.83 162.729 195.391 162.446C194.952 162.153 194.367 162.007 193.635 162.007H189.178V159.922ZM204.457 154.82V169.66H201.92V154.82H204.457ZM211.644 165.641L218.488 154.82H221.039V169.66H218.488V158.838L211.644 169.66H209.12V154.82H211.644V165.641ZM217.103 149.443H219.16C219.16 150.156 218.996 150.792 218.667 151.349C218.337 151.898 217.866 152.328 217.254 152.639C216.641 152.95 215.914 153.105 215.073 153.105C213.802 153.105 212.796 152.767 212.056 152.09C211.324 151.404 210.958 150.522 210.958 149.443H213.016C213.016 149.982 213.171 150.458 213.482 150.869C213.793 151.281 214.323 151.487 215.073 151.487C215.805 151.487 216.326 151.281 216.637 150.869C216.947 150.458 217.103 149.982 217.103 149.443ZM63.1429 193.82V195.918H55.6403V193.82H63.1429ZM56.0106 193.82V208.66H53.4732V193.82H56.0106ZM65.3923 193.82V208.66H62.8411V193.82H65.3923ZM78.2165 206.123V198.483C78.2165 197.898 78.0977 197.39 77.8599 196.96C77.6313 196.522 77.2839 196.183 76.8175 195.945C76.3512 195.708 75.7751 195.589 75.0893 195.589C74.4493 195.589 73.8869 195.699 73.4023 195.918C72.9268 196.137 72.5519 196.426 72.2776 196.782C72.0124 197.139 71.8798 197.523 71.8798 197.934H69.3424C69.3424 197.404 69.4796 196.878 69.7539 196.357C70.0282 195.836 70.4214 195.365 70.9334 194.944C71.4546 194.514 72.0764 194.176 72.7988 193.929C73.5303 193.673 74.3441 193.545 75.2402 193.545C76.3192 193.545 77.2702 193.728 78.0931 194.094C78.9252 194.46 79.5744 195.013 80.0407 195.753C80.5162 196.485 80.754 197.404 80.754 198.51V205.423C80.754 205.917 80.7951 206.443 80.8774 207C80.9689 207.558 81.1014 208.038 81.2752 208.441V208.66H78.628C78.5 208.367 78.3994 207.979 78.3263 207.494C78.2531 207 78.2165 206.543 78.2165 206.123ZM78.6555 199.662L78.6829 201.446H76.118C75.3957 201.446 74.751 201.505 74.1841 201.624C73.6172 201.734 73.1417 201.903 72.7576 202.131C72.3736 202.36 72.081 202.648 71.8798 202.995C71.6787 203.334 71.5781 203.731 71.5781 204.189C71.5781 204.655 71.6832 205.08 71.8936 205.464C72.1039 205.848 72.4193 206.155 72.8399 206.383C73.2697 206.603 73.7955 206.712 74.4173 206.712C75.1945 206.712 75.8803 206.548 76.4746 206.219C77.069 205.889 77.5399 205.487 77.8874 205.012C78.244 204.536 78.436 204.074 78.4634 203.626L79.547 204.847C79.483 205.231 79.3092 205.656 79.0258 206.123C78.7423 206.589 78.3628 207.037 77.8874 207.467C77.421 207.887 76.8633 208.239 76.214 208.523C75.574 208.797 74.8516 208.934 74.0469 208.934C73.0411 208.934 72.1587 208.738 71.3998 208.345C70.65 207.951 70.0648 207.426 69.6442 206.767C69.2327 206.1 69.0269 205.355 69.0269 204.532C69.0269 203.736 69.1824 203.037 69.4933 202.433C69.8042 201.82 70.2522 201.313 70.8374 200.911C71.4226 200.499 72.1267 200.188 72.9497 199.978C73.7726 199.768 74.6916 199.662 75.7066 199.662H78.6555ZM94.6344 193.82V195.918H87.1318V193.82H94.6344ZM87.5022 193.82V208.66H84.9647V193.82H87.5022ZM96.8838 193.82V208.66H94.3326V193.82H96.8838ZM100.285 201.404V201.089C100.285 200.019 100.441 199.027 100.752 198.113C101.063 197.189 101.511 196.389 102.096 195.712C102.681 195.027 103.39 194.496 104.222 194.121C105.054 193.737 105.987 193.545 107.02 193.545C108.062 193.545 108.999 193.737 109.832 194.121C110.673 194.496 111.386 195.027 111.971 195.712C112.566 196.389 113.018 197.189 113.329 198.113C113.64 199.027 113.795 200.019 113.795 201.089V201.404C113.795 202.474 113.64 203.466 113.329 204.381C113.018 205.295 112.566 206.095 111.971 206.781C111.386 207.458 110.677 207.988 109.845 208.372C109.022 208.747 108.09 208.934 107.047 208.934C106.005 208.934 105.068 208.747 104.235 208.372C103.403 207.988 102.69 207.458 102.096 206.781C101.511 206.095 101.063 205.295 100.752 204.381C100.441 203.466 100.285 202.474 100.285 201.404ZM102.823 201.089V201.404C102.823 202.145 102.91 202.845 103.083 203.503C103.257 204.152 103.518 204.728 103.865 205.231C104.222 205.734 104.665 206.132 105.196 206.424C105.726 206.708 106.343 206.85 107.047 206.85C107.742 206.85 108.35 206.708 108.871 206.424C109.402 206.132 109.841 205.734 110.188 205.231C110.536 204.728 110.796 204.152 110.97 203.503C111.153 202.845 111.244 202.145 111.244 201.404V201.089C111.244 200.357 111.153 199.667 110.97 199.018C110.796 198.359 110.531 197.779 110.174 197.276C109.827 196.764 109.388 196.362 108.858 196.069C108.336 195.776 107.724 195.63 107.02 195.63C106.325 195.63 105.712 195.776 105.182 196.069C104.661 196.362 104.222 196.764 103.865 197.276C103.518 197.779 103.257 198.359 103.083 199.018C102.91 199.667 102.823 200.357 102.823 201.089ZM119.515 196.672V214.366H116.964V193.82H119.295L119.515 196.672ZM129.514 201.116V201.404C129.514 202.483 129.386 203.485 129.13 204.408C128.874 205.323 128.499 206.118 128.005 206.795C127.52 207.471 126.921 207.997 126.208 208.372C125.495 208.747 124.677 208.934 123.753 208.934C122.811 208.934 121.979 208.779 121.257 208.468C120.534 208.157 119.922 207.704 119.419 207.11C118.916 206.516 118.514 205.803 118.212 204.97C117.919 204.138 117.718 203.201 117.608 202.159V200.623C117.718 199.525 117.924 198.542 118.226 197.674C118.527 196.805 118.925 196.064 119.419 195.452C119.922 194.83 120.53 194.359 121.243 194.039C121.956 193.71 122.779 193.545 123.712 193.545C124.645 193.545 125.472 193.728 126.194 194.094C126.917 194.45 127.525 194.963 128.019 195.63C128.512 196.298 128.883 197.098 129.13 198.03C129.386 198.954 129.514 199.982 129.514 201.116ZM126.963 201.404V201.116C126.963 200.376 126.885 199.681 126.729 199.032C126.574 198.373 126.332 197.797 126.002 197.303C125.682 196.8 125.271 196.407 124.768 196.124C124.265 195.831 123.666 195.685 122.971 195.685C122.331 195.685 121.773 195.795 121.298 196.014C120.832 196.234 120.434 196.531 120.105 196.906C119.775 197.271 119.506 197.692 119.295 198.167C119.094 198.634 118.943 199.118 118.843 199.621V203.174C119.026 203.814 119.282 204.417 119.611 204.984C119.94 205.542 120.379 205.995 120.928 206.342C121.476 206.68 122.167 206.85 122.999 206.85C123.684 206.85 124.274 206.708 124.768 206.424C125.271 206.132 125.682 205.734 126.002 205.231C126.332 204.728 126.574 204.152 126.729 203.503C126.885 202.845 126.963 202.145 126.963 201.404ZM132.079 201.404V201.089C132.079 200.019 132.234 199.027 132.545 198.113C132.856 197.189 133.304 196.389 133.889 195.712C134.474 195.027 135.183 194.496 136.015 194.121C136.847 193.737 137.78 193.545 138.813 193.545C139.855 193.545 140.793 193.737 141.625 194.121C142.466 194.496 143.179 195.027 143.764 195.712C144.359 196.389 144.811 197.189 145.122 198.113C145.433 199.027 145.589 200.019 145.589 201.089V201.404C145.589 202.474 145.433 203.466 145.122 204.381C144.811 205.295 144.359 206.095 143.764 206.781C143.179 207.458 142.471 207.988 141.638 208.372C140.816 208.747 139.883 208.934 138.84 208.934C137.798 208.934 136.861 208.747 136.029 208.372C135.197 207.988 134.483 207.458 133.889 206.781C133.304 206.095 132.856 205.295 132.545 204.381C132.234 203.466 132.079 202.474 132.079 201.404ZM134.616 201.089V201.404C134.616 202.145 134.703 202.845 134.877 203.503C135.05 204.152 135.311 204.728 135.658 205.231C136.015 205.734 136.458 206.132 136.989 206.424C137.519 206.708 138.136 206.85 138.84 206.85C139.535 206.85 140.143 206.708 140.665 206.424C141.195 206.132 141.634 205.734 141.981 205.231C142.329 204.728 142.589 204.152 142.763 203.503C142.946 202.845 143.038 202.145 143.038 201.404V201.089C143.038 200.357 142.946 199.667 142.763 199.018C142.589 198.359 142.324 197.779 141.968 197.276C141.62 196.764 141.181 196.362 140.651 196.069C140.13 195.776 139.517 195.63 138.813 195.63C138.118 195.63 137.505 195.776 136.975 196.069C136.454 196.362 136.015 196.764 135.658 197.276C135.311 197.779 135.05 198.359 134.877 199.018C134.703 199.667 134.616 200.357 134.616 201.089ZM154.518 193.82V208.66H151.967V193.82H154.518ZM159.496 193.82V195.877H147.084V193.82H159.496ZM172.06 200.252V202.31H164.215V200.252H172.06ZM164.75 193.82V208.66H162.212V193.82H164.75ZM174.118 193.82V208.66H171.566V193.82H174.118ZM180.948 204.641L187.792 193.82H190.343V208.66H187.792V197.838L180.948 208.66H178.424V193.82H180.948V204.641ZM197.174 193.82V208.66H194.636V193.82H197.174ZM206.912 193.82L199.876 202.323H196.323L195.939 200.101H198.847L203.826 193.82H206.912ZM204.183 208.66L198.724 201.939L200.356 200.101L207.406 208.66H204.183Z" fill="white"/>
<defs>
<filter id="filter0_d_14_53" x="39.25" y="0.660034" width="180" height="180" filterUnits="userSpaceOnUse" color-interpolation-filters="sRGB">
<feFlood flood-opacity="0" result="BackgroundImageFix"/>
<feColorMatrix in="SourceAlpha" type="matrix" values="0 0 0 0 0 0 0 0 0 0 0 0 0 0 0 0 0 0 127 0" result="hardAlpha"/>
<feOffset dy="8"/>
<feGaussianBlur stdDeviation="20"/>
<feComposite in2="hardAlpha" operator="out"/>
<feColorMatrix type="matrix" values="0 0 0 0 0 0 0 0 0 0 0 0 0 0 0 0 0 0 0.08 0"/>
<feBlend mode="normal" in2="BackgroundImageFix" result="effect1_dropShadow_14_53"/>
<feBlend mode="normal" in="SourceGraphic" in2="effect1_dropShadow_14_53" result="shape"/>
</filter>
<clipPath id="clip0_14_53">
<rect width="48" height="48" fill="white" transform="translate(105.25 58.66)"/>
</clipPath>
</defs>
</svg>
