<svg width="258" height="180" viewBox="0 0 258 180" fill="none" xmlns="http://www.w3.org/2000/svg">
<g filter="url(#filter0_d_14_45)">
<path d="M78.75 82C78.75 54.3858 101.136 32 128.75 32C156.364 32 178.75 54.3858 178.75 82C178.75 109.614 156.364 132 128.75 132C101.136 132 78.75 109.614 78.75 82Z" fill="white"/>
<g clip-path="url(#clip0_14_45)">
<path d="M134.133 104.155C131.61 103.025 132.749 100.524 133.253 98.5742C133.473 97.7234 133.625 96.8588 133.78 95.9942C130.496 97.2045 126.964 97.25 123.699 95.9558C123.805 96.9148 124.172 98.3709 124.447 99.2813C124.593 99.7645 124.795 100.244 124.904 100.736C125.252 102.307 124.505 103.931 122.867 104.306C122.52 104.385 122.151 104.379 121.796 104.38L120.568 104.382C119.951 104.382 119.305 104.418 118.691 104.353C116.945 104.17 116.374 102.153 116.946 100.701C117.284 99.8456 117.346 100.352 116.474 99.5631C114.3 97.5985 113.213 94.6287 113.217 91.7412C113.223 86.5253 116.063 81.6907 120.334 78.7566C119.05 77.3633 118.144 75.7841 117.487 74.0112C114.697 74.3267 112.028 72.2148 111.723 69.4156C111.416 66.5999 113.323 63.8953 116.211 63.5724C117.168 63.4655 117.999 63.7023 118.861 64.094L119.349 63.4791C121.646 60.8659 124.706 59.6138 128.105 59.3918L130.185 59.4351C133.604 59.8263 136.527 61.4029 138.66 64.0841C138.828 64.0675 139.056 63.9227 139.223 63.8592C144.166 61.9858 148.203 68.7478 144.128 72.6421C142.879 73.8356 141.61 74.0363 140.008 74.0034C139.945 74.1304 139.928 74.2725 139.881 74.4062L139.559 75.1987C138.968 76.4823 138.124 77.7045 137.19 78.7597L138.358 79.633C141.549 82.2181 143.666 86.0028 144.265 90.0584C144.361 90.709 144.261 91.3614 144.328 92.0078C144.395 92.1315 144.677 92.2221 144.808 92.2625C146.38 92.7465 148.207 91.8159 148.677 90.2266C148.784 89.8672 148.85 89.3505 148.655 89.0128C148.482 88.7117 148.066 88.5511 147.762 88.7715C147.064 89.2766 147.659 90.969 146.387 90.6359C145.673 90.4486 145.811 89.4662 145.964 88.9338C146.556 86.8691 149.103 86.619 149.985 88.3002C150.36 89.0158 150.321 89.9441 150.079 90.6953C149.441 92.6726 147.664 93.9138 145.613 93.8907C145.08 93.8847 144.667 93.7952 144.158 93.6268C144.115 94.1412 143.937 94.6843 143.773 95.1719C143.23 96.7837 141.96 99.246 140.34 100.031L140.532 100.611C141.079 102.217 140.583 104.241 138.642 104.373C138.008 104.416 137.353 104.382 136.716 104.384L135.642 104.387C135.094 104.388 134.654 104.355 134.133 104.155ZM128.39 60.8643C127.477 60.9173 126.564 61.0293 125.678 61.2603C120.499 62.6105 117.214 67.4528 118.685 72.8094C119.995 77.5802 124.025 81.2364 129.129 81.199C137.26 80.8566 142.87 69.6304 136.207 63.6105C134.018 61.633 131.282 60.8202 128.39 60.8643ZM116.658 65.0419C112.836 65.237 111.905 70.4283 115.231 72.1089C115.822 72.3807 116.435 72.5495 117.088 72.555L116.898 71.3037C116.611 69.41 117.162 67.039 118.018 65.3743C117.59 65.1225 117.153 65.0225 116.658 65.0419ZM140.448 65.0608C140.112 65.1046 139.784 65.1735 139.495 65.3604L139.997 66.5389C140.479 67.7956 140.845 70.275 140.571 71.6579L140.42 72.5531C141.24 72.5508 141.91 72.348 142.605 71.9094C145.448 69.9741 144.501 65.6397 141.415 65.0862C141.096 65.029 140.77 65.0453 140.448 65.0608ZM136.117 79.8349C131.939 83.4165 126.397 83.7332 121.948 80.2719C121.483 79.9105 121.585 79.7451 121.223 79.9905C116.108 83.4528 112.757 90.5961 115.899 96.3967C116.361 97.2508 116.941 98.0965 117.73 98.6835C117.673 98.3092 117.555 97.9622 117.439 97.6033L117.074 96.4251C116.363 93.9907 115.401 90.2133 117.073 87.96C118.574 85.9381 121.117 85.8705 123.078 87.1986C123.652 87.6211 124.151 88.1038 124.606 88.6514C125.55 89.7886 126.247 91.0995 127.761 91.5563C130.634 92.4231 131.766 89.8909 133.344 88.1611C136.206 85.0248 140.521 85.9733 141.32 90.2229C141.655 92.0059 140.861 95.0196 140.348 96.7017C140.156 97.3321 139.925 97.958 139.774 98.5994C140.895 98.0381 141.984 95.8748 142.35 94.7671C144.041 89.6532 141.203 83.7622 137.14 80.5723L136.488 80.0874C136.37 80.0031 136.246 79.9002 136.117 79.8349ZM120.349 87.8235C116.16 87.9977 117.933 94.1503 118.678 96.5603L119.085 97.8757C119.419 98.9894 119.592 99.3135 118.885 100.263C118.097 101.322 117.573 102.869 119.491 102.87L120.424 102.869C121.531 102.866 123.102 103.229 123.479 101.922L123.492 101.88C123.652 101.319 123.317 100.614 123.134 100.088L122.854 99.1899C122.548 98.0806 122.366 96.96 122.176 95.8271L122.033 94.9632C121.952 94.4037 122.07 93.5557 122.855 93.8083C123.172 93.9104 123.465 94.1341 123.76 94.291C126.451 95.7237 130.667 95.8339 133.447 94.4494L134.095 94.0944C134.364 93.9425 134.705 93.7129 135.024 93.8233C135.756 94.0769 135.488 94.8543 135.399 95.421L134.799 98.5382L134.453 99.8663C134.206 100.663 133.73 101.559 134.23 102.359C134.365 102.575 134.599 102.782 134.854 102.835L135.007 102.853C135.592 102.915 136.227 102.87 136.817 102.87L137.903 102.869C138.14 102.869 138.396 102.884 138.629 102.837C139.746 102.614 139.213 101.109 138.761 100.48C138.032 99.468 137.995 99.2186 138.371 98.0522L139.312 94.9152L139.828 92.2305C140.001 91.1732 139.851 89.7477 139.221 88.8858C138.311 87.6419 136.679 87.5341 135.424 88.3294C134.102 89.1677 133.403 90.6359 132.324 91.7236C130.089 93.9789 126.724 93.5412 124.749 91.2322C123.439 89.7016 122.617 87.885 120.349 87.8235Z" fill="#FF005A"/>
<path d="M132.968 67.2144C130.346 67.2044 129.724 69.1666 129 69.3086C128.231 69.4596 127.912 68.917 127.45 68.4385C125.356 66.271 121.565 67.0967 121.178 70.2165C121.145 70.4837 121.231 71.0163 121.077 71.239L121.058 71.2656C120.761 71.6916 120.198 71.8399 119.859 71.3834C119.606 71.0419 119.642 70.3761 119.705 69.9807C120.093 67.5396 121.919 65.8892 124.356 65.7207L124.414 65.7188C126.141 65.6665 127.558 66.4484 128.801 67.6149L129.269 67.1034C132.446 64.1459 138.013 66.1972 137.807 70.7537C137.764 71.7176 136.867 71.9792 136.436 71.3163L136.418 71.28C136.296 71.0405 136.343 70.6314 136.328 70.3633C136.225 68.5161 134.731 67.325 132.968 67.2144Z" fill="#FF005A"/>
<path d="M126.674 73.615C124.985 73.713 124.684 71.4111 126.392 71.1081C128.006 70.9895 128.319 73.2806 126.674 73.615ZM131.259 73.5836C129.514 73.8086 129.193 71.4244 130.872 71.1303C132.401 70.93 132.867 73.1832 131.259 73.5836ZM128.863 79.7373C128.609 79.7365 128.32 79.7536 128.074 79.6975L127.474 79.5797C126.693 79.3924 125.08 78.697 124.644 77.9362C124.349 77.4227 124.899 76.6967 125.473 76.9077C125.643 76.9702 125.791 77.0906 125.936 77.1962C126.717 77.7652 127.153 77.9033 128.006 78.1989L128.05 76.9471C128.051 76.3471 127.93 75.7545 128.621 75.5364L128.691 75.5311C129.548 75.5053 129.478 76.1585 129.479 76.7674L129.486 78.1703C130.006 77.9419 130.394 77.9357 131.014 77.5725C131.4 77.3466 131.804 76.891 132.267 76.8684C132.979 76.8337 133.177 77.6294 132.661 78.1721C131.733 79.1474 130.186 79.7018 128.863 79.7373Z" fill="#FF005A"/>
</g>
</g>
<path d="M62.1981 148.415V169H59.4836V150.649H49.3326V169H46.604V148.415H62.1981ZM71.0485 167.417L75.304 153.703H78.1033L71.9675 171.361C71.8261 171.738 71.6376 172.143 71.4019 172.577C71.1757 173.02 70.8836 173.439 70.5254 173.835C70.1672 174.231 69.7337 174.552 69.2247 174.797C68.7252 175.051 68.1267 175.178 67.4292 175.178C67.2218 175.178 66.9579 175.15 66.6375 175.093C66.317 175.037 66.0908 174.99 65.9588 174.952L65.9447 172.831C66.0201 172.841 66.1379 172.85 66.2981 172.86C66.4678 172.879 66.5856 172.888 66.6516 172.888C67.2454 172.888 67.7496 172.808 68.1644 172.648C68.5791 172.497 68.9278 172.238 69.2106 171.87C69.5027 171.512 69.7525 171.017 69.9599 170.386L71.0485 167.417ZM67.924 153.703L71.8968 165.579L72.5754 168.336L70.695 169.297L65.0681 153.703H67.924ZM83.0799 156.643V174.881H80.4502V153.703H82.8537L83.0799 156.643ZM93.3865 161.224V161.521C93.3865 162.633 93.2545 163.665 92.9906 164.617C92.7267 165.56 92.3403 166.38 91.8313 167.077C91.3318 167.775 90.7144 168.317 89.9792 168.703C89.2441 169.09 88.4005 169.283 87.4485 169.283C86.4777 169.283 85.62 169.123 84.8754 168.802C84.1308 168.482 83.4993 168.015 82.9809 167.402C82.4625 166.79 82.0478 166.055 81.7368 165.197C81.4352 164.339 81.2278 163.373 81.1147 162.299V160.715C81.2278 159.584 81.4399 158.571 81.7509 157.675C82.062 156.78 82.472 156.017 82.9809 155.385C83.4993 154.744 84.1261 154.259 84.8613 153.929C85.5965 153.59 86.4447 153.42 87.4061 153.42C88.3675 153.42 89.2205 153.608 89.9651 153.985C90.7097 154.353 91.3365 154.881 91.8454 155.569C92.3544 156.257 92.7361 157.082 92.9906 158.043C93.2545 158.995 93.3865 160.055 93.3865 161.224ZM90.7568 161.521V161.224C90.7568 160.461 90.6767 159.744 90.5165 159.075C90.3562 158.397 90.1065 157.803 89.7672 157.294C89.4373 156.775 89.0131 156.37 88.4947 156.078C87.9763 155.776 87.359 155.625 86.6427 155.625C85.9829 155.625 85.408 155.739 84.9178 155.965C84.4371 156.191 84.0271 156.497 83.6878 156.884C83.3485 157.261 83.0705 157.694 82.8537 158.184C82.6463 158.665 82.4908 159.165 82.3871 159.683V163.345C82.5756 164.005 82.8396 164.627 83.1789 165.211C83.5182 165.786 83.9706 166.253 84.5361 166.611C85.1016 166.959 85.8132 167.134 86.6709 167.134C87.3778 167.134 87.9858 166.988 88.4947 166.696C89.0131 166.394 89.4373 165.984 89.7672 165.466C90.1065 164.947 90.3562 164.353 90.5165 163.684C90.6767 163.006 90.7568 162.284 90.7568 161.521ZM106.605 153.703V155.866H99.5365V169H96.921V153.703H106.605ZM117.902 166.384V158.51C117.902 157.906 117.779 157.383 117.534 156.94C117.298 156.488 116.94 156.139 116.46 155.894C115.979 155.649 115.385 155.527 114.678 155.527C114.018 155.527 113.439 155.64 112.939 155.866C112.449 156.092 112.063 156.389 111.78 156.757C111.507 157.124 111.37 157.52 111.37 157.944H108.754C108.754 157.397 108.896 156.855 109.179 156.318C109.461 155.781 109.867 155.296 110.394 154.862C110.932 154.419 111.573 154.07 112.317 153.816C113.071 153.552 113.91 153.42 114.834 153.42C115.946 153.42 116.926 153.608 117.774 153.985C118.632 154.362 119.301 154.933 119.782 155.696C120.272 156.45 120.517 157.397 120.517 158.538V165.663C120.517 166.172 120.56 166.714 120.644 167.289C120.739 167.864 120.875 168.359 121.054 168.774V169H118.326C118.194 168.698 118.09 168.298 118.015 167.798C117.939 167.289 117.902 166.818 117.902 166.384ZM118.354 159.725L118.382 161.563H115.739C114.994 161.563 114.33 161.625 113.745 161.747C113.161 161.86 112.671 162.035 112.275 162.27C111.879 162.506 111.577 162.803 111.37 163.161C111.163 163.51 111.059 163.92 111.059 164.391C111.059 164.872 111.167 165.31 111.384 165.706C111.601 166.102 111.926 166.417 112.36 166.653C112.803 166.879 113.345 166.992 113.985 166.992C114.787 166.992 115.494 166.823 116.106 166.483C116.719 166.144 117.204 165.729 117.562 165.239C117.93 164.749 118.128 164.273 118.156 163.811L119.273 165.07C119.207 165.466 119.028 165.904 118.736 166.384C118.444 166.865 118.053 167.327 117.562 167.77C117.082 168.204 116.507 168.566 115.838 168.859C115.178 169.141 114.433 169.283 113.604 169.283C112.567 169.283 111.657 169.08 110.875 168.675C110.102 168.27 109.499 167.728 109.065 167.049C108.641 166.361 108.429 165.593 108.429 164.744C108.429 163.924 108.589 163.203 108.91 162.581C109.23 161.95 109.692 161.427 110.295 161.012C110.899 160.588 111.624 160.267 112.473 160.051C113.321 159.834 114.268 159.725 115.314 159.725H118.354ZM130.64 153.703V169H128.01V153.703H130.64ZM135.772 153.703V155.823H122.977V153.703H135.772ZM137.059 161.521V161.196C137.059 160.093 137.219 159.07 137.539 158.128C137.86 157.176 138.322 156.351 138.925 155.654C139.528 154.947 140.259 154.4 141.116 154.014C141.974 153.618 142.935 153.42 144 153.42C145.075 153.42 146.041 153.618 146.899 154.014C147.766 154.4 148.501 154.947 149.104 155.654C149.717 156.351 150.183 157.176 150.504 158.128C150.824 159.07 150.985 160.093 150.985 161.196V161.521C150.985 162.624 150.824 163.646 150.504 164.589C150.183 165.531 149.717 166.356 149.104 167.063C148.501 167.761 147.771 168.307 146.913 168.703C146.065 169.09 145.103 169.283 144.029 169.283C142.954 169.283 141.988 169.09 141.13 168.703C140.273 168.307 139.537 167.761 138.925 167.063C138.322 166.356 137.86 165.531 137.539 164.589C137.219 163.646 137.059 162.624 137.059 161.521ZM139.674 161.196V161.521C139.674 162.284 139.764 163.006 139.943 163.684C140.122 164.353 140.39 164.947 140.749 165.466C141.116 165.984 141.573 166.394 142.12 166.696C142.667 166.988 143.303 167.134 144.029 167.134C144.745 167.134 145.372 166.988 145.909 166.696C146.456 166.394 146.908 165.984 147.266 165.466C147.624 164.947 147.893 164.353 148.072 163.684C148.261 163.006 148.355 162.284 148.355 161.521V161.196C148.355 160.442 148.261 159.73 148.072 159.061C147.893 158.382 147.62 157.784 147.252 157.265C146.894 156.738 146.442 156.323 145.895 156.021C145.358 155.72 144.726 155.569 144 155.569C143.284 155.569 142.653 155.72 142.106 156.021C141.569 156.323 141.116 156.738 140.749 157.265C140.39 157.784 140.122 158.382 139.943 159.061C139.764 159.73 139.674 160.442 139.674 161.196ZM156.88 156.643V174.881H154.25V153.703H156.654L156.88 156.643ZM167.187 161.224V161.521C167.187 162.633 167.055 163.665 166.791 164.617C166.527 165.56 166.14 166.38 165.631 167.077C165.132 167.775 164.515 168.317 163.779 168.703C163.044 169.09 162.201 169.283 161.249 169.283C160.278 169.283 159.42 169.123 158.676 168.802C157.931 168.482 157.299 168.015 156.781 167.402C156.263 166.79 155.848 166.055 155.537 165.197C155.235 164.339 155.028 163.373 154.915 162.299V160.715C155.028 159.584 155.24 158.571 155.551 157.675C155.862 156.78 156.272 156.017 156.781 155.385C157.299 154.744 157.926 154.259 158.661 153.929C159.397 153.59 160.245 153.42 161.206 153.42C162.168 153.42 163.021 153.608 163.765 153.985C164.51 154.353 165.137 154.881 165.646 155.569C166.155 156.257 166.536 157.082 166.791 158.043C167.055 158.995 167.187 160.055 167.187 161.224ZM164.557 161.521V161.224C164.557 160.461 164.477 159.744 164.317 159.075C164.156 158.397 163.907 157.803 163.567 157.294C163.237 156.775 162.813 156.37 162.295 156.078C161.777 155.776 161.159 155.625 160.443 155.625C159.783 155.625 159.208 155.739 158.718 155.965C158.237 156.191 157.827 156.497 157.488 156.884C157.149 157.261 156.871 157.694 156.654 158.184C156.446 158.665 156.291 159.165 156.187 159.683V163.345C156.376 164.005 156.64 164.627 156.979 165.211C157.318 165.786 157.771 166.253 158.336 166.611C158.902 166.959 159.613 167.134 160.471 167.134C161.178 167.134 161.786 166.988 162.295 166.696C162.813 166.394 163.237 165.984 163.567 165.466C163.907 164.947 164.156 164.353 164.317 163.684C164.477 163.006 164.557 162.284 164.557 161.521ZM173.351 164.858L180.406 153.703H183.035V169H180.406V157.845L173.351 169H170.749V153.703H173.351V164.858ZM191.532 167.417L195.788 153.703H198.587L192.451 171.361C192.31 171.738 192.121 172.143 191.886 172.577C191.659 173.02 191.367 173.439 191.009 173.835C190.651 174.231 190.217 174.552 189.708 174.797C189.209 175.051 188.61 175.178 187.913 175.178C187.706 175.178 187.442 175.15 187.121 175.093C186.801 175.037 186.574 174.99 186.443 174.952L186.428 172.831C186.504 172.841 186.622 172.85 186.782 172.86C186.952 172.879 187.069 172.888 187.135 172.888C187.729 172.888 188.233 172.808 188.648 172.648C189.063 172.497 189.412 172.238 189.694 171.87C189.986 171.512 190.236 171.017 190.444 170.386L191.532 167.417ZM188.408 153.703L192.38 165.579L193.059 168.336L191.179 169.297L185.552 153.703H188.408ZM206.872 167.134C207.494 167.134 208.069 167.007 208.597 166.752C209.125 166.498 209.558 166.149 209.897 165.706C210.237 165.253 210.43 164.74 210.477 164.165H212.965C212.918 165.07 212.612 165.913 212.046 166.696C211.49 167.468 210.76 168.095 209.855 168.576C208.95 169.047 207.956 169.283 206.872 169.283C205.722 169.283 204.718 169.08 203.861 168.675C203.012 168.27 202.305 167.713 201.74 167.007C201.184 166.3 200.764 165.489 200.482 164.575C200.208 163.651 200.072 162.676 200.072 161.648V161.054C200.072 160.027 200.208 159.056 200.482 158.142C200.764 157.218 201.184 156.403 201.74 155.696C202.305 154.989 203.012 154.433 203.861 154.028C204.718 153.623 205.722 153.42 206.872 153.42C208.069 153.42 209.115 153.665 210.011 154.155C210.906 154.636 211.608 155.296 212.117 156.134C212.635 156.964 212.918 157.906 212.965 158.962H210.477C210.43 158.331 210.251 157.76 209.94 157.251C209.638 156.742 209.224 156.337 208.696 156.035C208.177 155.724 207.569 155.569 206.872 155.569C206.071 155.569 205.397 155.729 204.85 156.05C204.313 156.361 203.884 156.785 203.564 157.322C203.253 157.85 203.026 158.439 202.885 159.089C202.753 159.73 202.687 160.385 202.687 161.054V161.648C202.687 162.317 202.753 162.977 202.885 163.628C203.017 164.278 203.238 164.867 203.549 165.395C203.87 165.923 204.299 166.347 204.836 166.667C205.383 166.978 206.061 167.134 206.872 167.134Z" fill="white"/>
<defs>
<filter id="filter0_d_14_45" x="38.75" y="0" width="180" height="180" filterUnits="userSpaceOnUse" color-interpolation-filters="sRGB">
<feFlood flood-opacity="0" result="BackgroundImageFix"/>
<feColorMatrix in="SourceAlpha" type="matrix" values="0 0 0 0 0 0 0 0 0 0 0 0 0 0 0 0 0 0 127 0" result="hardAlpha"/>
<feOffset dy="8"/>
<feGaussianBlur stdDeviation="20"/>
<feComposite in2="hardAlpha" operator="out"/>
<feColorMatrix type="matrix" values="0 0 0 0 0 0 0 0 0 0 0 0 0 0 0 0 0 0 0.08 0"/>
<feBlend mode="normal" in2="BackgroundImageFix" result="effect1_dropShadow_14_45"/>
<feBlend mode="normal" in="SourceGraphic" in2="effect1_dropShadow_14_45" result="shape"/>
</filter>
<clipPath id="clip0_14_45">
<rect width="48" height="48" fill="white" transform="translate(104.75 58)"/>
</clipPath>
</defs>
</svg>
