<svg width="735" height="44" viewBox="0 0 735 44" fill="none" xmlns="http://www.w3.org/2000/svg">
<path d="M13.7554 20.4492H5.5376L5.49365 15.6592H12.2832C13.4844 15.6592 14.4585 15.5127 15.2056 15.2197C15.9673 14.9268 16.5239 14.502 16.8755 13.9453C17.2271 13.374 17.4028 12.6709 17.4028 11.8359C17.4028 10.8838 17.2271 10.1147 16.8755 9.52881C16.5239 8.94287 15.9673 8.51807 15.2056 8.25439C14.4585 7.97607 13.4917 7.83691 12.3052 7.83691H8.13037V34.27H0.967285V2.27783H12.3052C14.2241 2.27783 15.938 2.45361 17.4468 2.80518C18.9556 3.15674 20.2373 3.69873 21.292 4.43115C22.3613 5.16357 23.1743 6.0791 23.731 7.17773C24.2876 8.27637 24.5659 9.57275 24.5659 11.0669C24.5659 12.3706 24.2729 13.5864 23.687 14.7144C23.1157 15.8423 22.1929 16.7578 20.9185 17.4609C19.644 18.1641 17.9375 18.5449 15.7988 18.6035L13.7554 20.4492ZM13.4697 34.27H3.71387L6.30664 28.7329H13.4697C14.5684 28.7329 15.4619 28.5571 16.1504 28.2056C16.8389 27.854 17.3442 27.3779 17.6665 26.7773C17.9888 26.1768 18.1499 25.5029 18.1499 24.7559C18.1499 23.877 17.9961 23.1152 17.6885 22.4707C17.3955 21.8262 16.9268 21.3281 16.2822 20.9766C15.6523 20.625 14.8101 20.4492 13.7554 20.4492H7.33936L7.3833 15.6592H15.2275L16.8975 17.5488C18.9336 17.5049 20.5596 17.8345 21.7754 18.5376C23.0059 19.2261 23.8921 20.1343 24.4341 21.2622C24.9761 22.3901 25.2471 23.584 25.2471 24.8438C25.2471 26.9238 24.8003 28.667 23.9067 30.0732C23.0132 31.4648 21.6875 32.5122 19.9297 33.2153C18.1865 33.9185 16.0332 34.27 13.4697 34.27ZM49.4609 15.3955C48.7285 15.3955 48.106 15.5347 47.5933 15.813C47.0952 16.0913 46.7144 16.4868 46.4507 16.9995C46.2017 17.4976 46.0771 18.0981 46.0771 18.8013H39.6392C39.6392 17.0728 40.064 15.5566 40.9136 14.2529C41.7778 12.9346 42.9497 11.9092 44.4292 11.1768C45.9233 10.4297 47.6006 10.0562 49.4609 10.0562C51.292 10.0562 52.9033 10.3638 54.2949 10.979C55.6865 11.5796 56.8511 12.4292 57.7886 13.5278C58.7261 14.6265 59.4292 15.9082 59.8979 17.373C60.3813 18.8379 60.623 20.4126 60.623 22.0972V22.6685C60.623 24.3677 60.3813 25.9497 59.8979 27.4146C59.4292 28.8647 58.7261 30.1392 57.7886 31.2378C56.8657 32.3364 55.7085 33.1934 54.3169 33.8086C52.9253 34.4092 51.3213 34.7095 49.5049 34.7095C47.5566 34.7095 45.8354 34.3359 44.3413 33.5889C42.8618 32.8418 41.7046 31.7725 40.8696 30.3809C40.0493 28.9746 39.6392 27.29 39.6392 25.3271H46.0771C46.0771 26.0889 46.2017 26.7773 46.4507 27.3926C46.7144 28.0078 47.0952 28.4985 47.5933 28.8647C48.106 29.2163 48.7432 29.3921 49.5049 29.3921C50.3398 29.3921 51.0283 29.209 51.5703 28.8428C52.127 28.4766 52.5591 27.9858 52.8667 27.3706C53.1743 26.7407 53.394 26.0229 53.5259 25.2173C53.6577 24.397 53.7236 23.5474 53.7236 22.6685V22.0972C53.7236 21.2036 53.6577 20.354 53.5259 19.5483C53.4087 18.728 53.189 18.0103 52.8667 17.395C52.5591 16.7651 52.127 16.2744 51.5703 15.9229C51.0137 15.5713 50.3105 15.3955 49.4609 15.3955ZM55.7891 20.3613V24.2725H47.835V20.3613H55.7891ZM75.5425 10.4956V34.27H68.6431V10.4956H75.5425ZM83.123 10.4956V15.791H61.1943V10.4956H83.123ZM84.4414 22.6245V22.1631C84.4414 20.4199 84.6904 18.8159 85.1885 17.3511C85.6865 15.8716 86.4189 14.5898 87.3857 13.5059C88.3525 12.4219 89.5391 11.5796 90.9453 10.979C92.3516 10.3638 93.9629 10.0562 95.7793 10.0562C97.625 10.0562 99.251 10.3638 100.657 10.979C102.078 11.5796 103.272 12.4219 104.239 13.5059C105.206 14.5898 105.938 15.8716 106.436 17.3511C106.934 18.8159 107.183 20.4199 107.183 22.1631V22.6245C107.183 24.353 106.934 25.957 106.436 27.4365C105.938 28.9014 105.206 30.1831 104.239 31.2817C103.272 32.3657 102.085 33.208 100.679 33.8086C99.2729 34.4092 97.6543 34.7095 95.8232 34.7095C94.0068 34.7095 92.3882 34.4092 90.9673 33.8086C89.5464 33.208 88.3525 32.3657 87.3857 31.2817C86.4189 30.1831 85.6865 28.9014 85.1885 27.4365C84.6904 25.957 84.4414 24.353 84.4414 22.6245ZM91.3188 22.1631V22.6245C91.3188 23.562 91.3921 24.4409 91.5386 25.2612C91.6997 26.0815 91.9561 26.7993 92.3076 27.4146C92.6592 28.0298 93.1206 28.5132 93.6919 28.8647C94.2778 29.2017 94.9883 29.3701 95.8232 29.3701C96.6582 29.3701 97.3613 29.2017 97.9326 28.8647C98.5039 28.5132 98.9653 28.0298 99.3169 27.4146C99.6685 26.7993 99.9175 26.0815 100.064 25.2612C100.225 24.4409 100.306 23.562 100.306 22.6245V22.1631C100.306 21.2402 100.225 20.376 100.064 19.5703C99.9175 18.75 99.6685 18.0249 99.3169 17.395C98.9653 16.7651 98.4966 16.2744 97.9106 15.9229C97.3394 15.5713 96.6289 15.3955 95.7793 15.3955C94.959 15.3955 94.2632 15.5713 93.6919 15.9229C93.1206 16.2744 92.6592 16.7651 92.3076 17.395C91.9561 18.0249 91.6997 18.75 91.5386 19.5703C91.3921 20.376 91.3188 21.2402 91.3188 22.1631ZM125.442 26.5356L131.265 10.4956H136.714L127.75 34.27H123.157L114.236 10.4956H119.686L125.442 26.5356ZM118.104 10.4956V34.27H111.226V10.4956H118.104ZM133.023 34.27V10.4956H139.878V34.27H133.023ZM163.675 10.4956V34.27H156.797V10.4956H163.675ZM179.1 10.4956L169.102 25.6567H162.62L161.829 19.2847H165.916L170.354 10.4956H179.1ZM170.574 34.27L165.411 24.4043L171.607 21.3281L179.825 34.27H170.574ZM193.975 24.4482H186.592L186.548 20.0977H192.657C193.36 20.0977 193.931 20.0244 194.371 19.8779C194.81 19.7168 195.125 19.4824 195.315 19.1748C195.521 18.8672 195.623 18.501 195.623 18.0762C195.623 17.6514 195.557 17.2998 195.425 17.0215C195.293 16.7285 195.088 16.4941 194.81 16.3184C194.546 16.1279 194.217 15.9961 193.821 15.9229C193.426 15.835 192.964 15.791 192.437 15.791H189.251V34.27H182.374V10.4956H192.437C193.99 10.4956 195.381 10.6348 196.612 10.9131C197.857 11.1768 198.912 11.5869 199.776 12.1436C200.655 12.6855 201.329 13.374 201.797 14.209C202.266 15.0293 202.5 16.0034 202.5 17.1313C202.5 17.8638 202.325 18.5522 201.973 19.1968C201.636 19.8413 201.131 20.4126 200.457 20.9106C199.798 21.4087 198.985 21.8188 198.018 22.1411C197.051 22.4487 195.938 22.6392 194.678 22.7124L193.975 24.4482ZM193.975 34.27H185.01L187.229 28.9746H193.975C194.664 28.9746 195.228 28.894 195.667 28.7329C196.106 28.5571 196.429 28.3081 196.634 27.9858C196.854 27.6489 196.963 27.2388 196.963 26.7554C196.963 26.3013 196.868 25.9058 196.678 25.5688C196.502 25.2173 196.194 24.9463 195.755 24.7559C195.315 24.5508 194.722 24.4482 193.975 24.4482H188.108L188.152 20.0977H194.634L196.216 21.8555C197.974 21.958 199.41 22.2803 200.523 22.8223C201.651 23.3496 202.479 24.0161 203.006 24.8218C203.548 25.6274 203.819 26.5137 203.819 27.4805C203.819 28.6084 203.606 29.5972 203.182 30.4468C202.757 31.2964 202.12 32.0068 201.27 32.5781C200.435 33.1348 199.402 33.5596 198.172 33.8525C196.956 34.1309 195.557 34.27 193.975 34.27ZM219.881 28.6011V18.4058C219.881 17.688 219.771 17.0728 219.551 16.5601C219.332 16.0474 218.987 15.6445 218.519 15.3516C218.05 15.0586 217.442 14.9121 216.695 14.9121C216.065 14.9121 215.516 15.022 215.047 15.2417C214.593 15.4614 214.241 15.7764 213.992 16.1865C213.758 16.5967 213.641 17.1021 213.641 17.7026H206.785C206.785 16.6333 207.027 15.6372 207.51 14.7144C207.994 13.7915 208.682 12.9785 209.576 12.2754C210.484 11.5723 211.568 11.0303 212.828 10.6494C214.087 10.2539 215.501 10.0562 217.068 10.0562C218.929 10.0562 220.584 10.3711 222.034 11.001C223.499 11.6162 224.656 12.5464 225.506 13.7915C226.355 15.022 226.78 16.5747 226.78 18.4497V28.4033C226.78 29.8389 226.861 30.9668 227.022 31.7871C227.198 32.5928 227.447 33.2959 227.769 33.8965V34.27H220.848C220.525 33.5815 220.284 32.7319 220.123 31.7212C219.961 30.6958 219.881 29.6558 219.881 28.6011ZM220.738 19.7681L220.782 23.5474H217.376C216.614 23.5474 215.955 23.6426 215.398 23.833C214.856 24.0234 214.417 24.2871 214.08 24.624C213.743 24.9463 213.494 25.3271 213.333 25.7666C213.187 26.1914 213.113 26.6602 213.113 27.1729C213.113 27.6562 213.23 28.0957 213.465 28.4912C213.699 28.8721 214.021 29.1724 214.432 29.3921C214.842 29.6118 215.318 29.7217 215.86 29.7217C216.753 29.7217 217.515 29.5459 218.145 29.1943C218.79 28.8428 219.288 28.418 219.639 27.9199C219.991 27.4072 220.167 26.9312 220.167 26.4917L221.814 29.3481C221.551 29.9341 221.229 30.542 220.848 31.1719C220.467 31.7871 219.983 32.3657 219.397 32.9077C218.812 33.4351 218.101 33.8672 217.266 34.2041C216.446 34.541 215.457 34.7095 214.3 34.7095C212.806 34.7095 211.451 34.4092 210.235 33.8086C209.019 33.1934 208.045 32.3511 207.312 31.2817C206.595 30.2124 206.236 28.9819 206.236 27.5903C206.236 26.3452 206.463 25.2393 206.917 24.2725C207.371 23.3057 208.052 22.4854 208.96 21.8115C209.883 21.1377 211.041 20.6323 212.432 20.2954C213.824 19.9438 215.45 19.7681 217.31 19.7681H220.738ZM238.162 15.0659V43.4106H231.307V10.4956H237.701L238.162 15.0659ZM252.994 22.1191V22.5806C252.994 24.3091 252.796 25.9131 252.4 27.3926C252.005 28.8574 251.412 30.1392 250.621 31.2378C249.844 32.3364 248.885 33.1934 247.742 33.8086C246.6 34.4092 245.274 34.7095 243.765 34.7095C242.33 34.7095 241.084 34.4092 240.03 33.8086C238.99 33.1934 238.111 32.3438 237.393 31.2598C236.69 30.1611 236.119 28.9087 235.679 27.5024C235.254 26.0815 234.925 24.5654 234.69 22.9541V22.0532C234.925 20.3394 235.262 18.75 235.701 17.2852C236.141 15.8203 236.712 14.5532 237.415 13.4839C238.118 12.3999 238.99 11.5576 240.03 10.957C241.07 10.3564 242.308 10.0562 243.743 10.0562C245.237 10.0562 246.563 10.3418 247.72 10.9131C248.877 11.4844 249.844 12.3047 250.621 13.374C251.412 14.4287 252.005 15.6958 252.4 17.1753C252.796 18.6548 252.994 20.3027 252.994 22.1191ZM246.116 22.5806V22.1191C246.116 21.1523 246.043 20.2661 245.896 19.4604C245.75 18.6401 245.516 17.9297 245.193 17.3291C244.871 16.7139 244.446 16.2378 243.919 15.9009C243.392 15.564 242.747 15.3955 241.985 15.3955C241.165 15.3955 240.469 15.5273 239.898 15.791C239.327 16.0547 238.865 16.4429 238.514 16.9556C238.162 17.4536 237.906 18.0688 237.745 18.8013C237.598 19.5337 237.518 20.3687 237.503 21.3062V23.7231C237.518 24.8218 237.671 25.8032 237.964 26.6675C238.272 27.5171 238.748 28.1836 239.393 28.667C240.052 29.1357 240.931 29.3701 242.029 29.3701C242.806 29.3701 243.45 29.2017 243.963 28.8647C244.49 28.5132 244.908 28.0225 245.215 27.3926C245.538 26.7627 245.765 26.0376 245.896 25.2173C246.043 24.397 246.116 23.5181 246.116 22.5806ZM268.287 10.4956V34.27H261.387V10.4956H268.287ZM275.867 10.4956V15.791H253.938V10.4956H275.867ZM291.116 28.6011V18.4058C291.116 17.688 291.006 17.0728 290.787 16.5601C290.567 16.0474 290.223 15.6445 289.754 15.3516C289.285 15.0586 288.677 14.9121 287.93 14.9121C287.3 14.9121 286.751 15.022 286.282 15.2417C285.828 15.4614 285.477 15.7764 285.228 16.1865C284.993 16.5967 284.876 17.1021 284.876 17.7026H278.021C278.021 16.6333 278.262 15.6372 278.746 14.7144C279.229 13.7915 279.917 12.9785 280.811 12.2754C281.719 11.5723 282.803 11.0303 284.063 10.6494C285.323 10.2539 286.736 10.0562 288.304 10.0562C290.164 10.0562 291.819 10.3711 293.27 11.001C294.734 11.6162 295.892 12.5464 296.741 13.7915C297.591 15.022 298.016 16.5747 298.016 18.4497V28.4033C298.016 29.8389 298.096 30.9668 298.257 31.7871C298.433 32.5928 298.682 33.2959 299.004 33.8965V34.27H292.083C291.761 33.5815 291.519 32.7319 291.358 31.7212C291.197 30.6958 291.116 29.6558 291.116 28.6011ZM291.973 19.7681L292.017 23.5474H288.611C287.85 23.5474 287.19 23.6426 286.634 23.833C286.092 24.0234 285.652 24.2871 285.315 24.624C284.979 24.9463 284.729 25.3271 284.568 25.7666C284.422 26.1914 284.349 26.6602 284.349 27.1729C284.349 27.6562 284.466 28.0957 284.7 28.4912C284.935 28.8721 285.257 29.1724 285.667 29.3921C286.077 29.6118 286.553 29.7217 287.095 29.7217C287.989 29.7217 288.75 29.5459 289.38 29.1943C290.025 28.8428 290.523 28.418 290.875 27.9199C291.226 27.4072 291.402 26.9312 291.402 26.4917L293.05 29.3481C292.786 29.9341 292.464 30.542 292.083 31.1719C291.702 31.7871 291.219 32.3657 290.633 32.9077C290.047 33.4351 289.336 33.8672 288.501 34.2041C287.681 34.541 286.692 34.7095 285.535 34.7095C284.041 34.7095 282.686 34.4092 281.47 33.8086C280.254 33.1934 279.28 32.3511 278.548 31.2817C277.83 30.2124 277.471 28.9819 277.471 27.5903C277.471 26.3452 277.698 25.2393 278.152 24.2725C278.606 23.3057 279.288 22.4854 280.196 21.8115C281.119 21.1377 282.276 20.6323 283.667 20.2954C285.059 19.9438 286.685 19.7681 288.545 19.7681H291.973ZM318.582 10.4956V15.835H306.849V10.4956H318.582ZM323.438 10.4956V34.27H316.583V10.4956H323.438ZM305.113 10.4956H311.836L311.177 22.6025C311.089 24.3164 310.899 25.8179 310.606 27.1069C310.328 28.396 309.947 29.4946 309.463 30.4028C308.995 31.311 308.431 32.0508 307.771 32.6221C307.112 33.1934 306.358 33.6108 305.508 33.8745C304.673 34.1382 303.758 34.27 302.762 34.27H300.674L300.564 28.9307L301.377 28.8428C301.817 28.7988 302.198 28.667 302.52 28.4473C302.857 28.2275 303.143 27.9126 303.377 27.5024C303.626 27.0923 303.838 26.5649 304.014 25.9204C304.19 25.2759 304.329 24.5215 304.432 23.6572C304.549 22.7783 304.629 21.7676 304.673 20.625L305.113 10.4956ZM339.126 34.7095C337.237 34.7095 335.545 34.4092 334.051 33.8086C332.557 33.208 331.29 32.3804 330.25 31.3257C329.224 30.2563 328.44 29.0259 327.898 27.6343C327.356 26.2427 327.085 24.7559 327.085 23.1738V22.3389C327.085 20.5664 327.334 18.9331 327.833 17.439C328.331 15.9448 329.056 14.6484 330.008 13.5498C330.975 12.4365 332.161 11.5796 333.567 10.979C334.974 10.3638 336.578 10.0562 338.379 10.0562C340.064 10.0562 341.565 10.3345 342.884 10.8911C344.202 11.4331 345.315 12.2168 346.224 13.2422C347.132 14.2529 347.82 15.4761 348.289 16.9116C348.772 18.3325 349.014 19.9292 349.014 21.7017V24.5142H329.854V20.0977H342.291V19.5703C342.291 18.7354 342.137 18.0029 341.829 17.373C341.536 16.7432 341.097 16.2598 340.511 15.9229C339.939 15.5713 339.214 15.3955 338.335 15.3955C337.5 15.3955 336.805 15.5713 336.248 15.9229C335.691 16.2744 335.245 16.7725 334.908 17.417C334.585 18.0469 334.351 18.7866 334.205 19.6362C334.058 20.4712 333.985 21.3721 333.985 22.3389V23.1738C333.985 24.0967 334.109 24.939 334.358 25.7007C334.607 26.4624 334.974 27.1143 335.457 27.6562C335.94 28.1982 336.526 28.623 337.215 28.9307C337.903 29.2383 338.687 29.3921 339.566 29.3921C340.65 29.3921 341.683 29.187 342.664 28.7769C343.646 28.3521 344.495 27.6929 345.213 26.7993L348.421 30.4688C347.938 31.1719 347.256 31.853 346.377 32.5122C345.513 33.1567 344.473 33.6841 343.257 34.0942C342.042 34.5044 340.665 34.7095 339.126 34.7095ZM378.216 26.5356L384.039 10.4956H389.488L380.523 34.27H375.931L367.01 10.4956H372.459L378.216 26.5356ZM370.877 10.4956V34.27H364V10.4956H370.877ZM385.796 34.27V10.4956H392.652V34.27H385.796ZM409.131 34.7095C407.242 34.7095 405.55 34.4092 404.056 33.8086C402.562 33.208 401.294 32.3804 400.254 31.3257C399.229 30.2563 398.445 29.0259 397.903 27.6343C397.361 26.2427 397.09 24.7559 397.09 23.1738V22.3389C397.09 20.5664 397.339 18.9331 397.837 17.439C398.335 15.9448 399.061 14.6484 400.013 13.5498C400.979 12.4365 402.166 11.5796 403.572 10.979C404.979 10.3638 406.583 10.0562 408.384 10.0562C410.069 10.0562 411.57 10.3345 412.889 10.8911C414.207 11.4331 415.32 12.2168 416.229 13.2422C417.137 14.2529 417.825 15.4761 418.294 16.9116C418.777 18.3325 419.019 19.9292 419.019 21.7017V24.5142H399.859V20.0977H412.295V19.5703C412.295 18.7354 412.142 18.0029 411.834 17.373C411.541 16.7432 411.102 16.2598 410.516 15.9229C409.944 15.5713 409.219 15.3955 408.34 15.3955C407.505 15.3955 406.81 15.5713 406.253 15.9229C405.696 16.2744 405.25 16.7725 404.913 17.417C404.59 18.0469 404.356 18.7866 404.209 19.6362C404.063 20.4712 403.99 21.3721 403.99 22.3389V23.1738C403.99 24.0967 404.114 24.939 404.363 25.7007C404.612 26.4624 404.979 27.1143 405.462 27.6562C405.945 28.1982 406.531 28.623 407.22 28.9307C407.908 29.2383 408.692 29.3921 409.571 29.3921C410.655 29.3921 411.688 29.187 412.669 28.7769C413.65 28.3521 414.5 27.6929 415.218 26.7993L418.426 30.4688C417.942 31.1719 417.261 31.853 416.382 32.5122C415.518 33.1567 414.478 33.6841 413.262 34.0942C412.046 34.5044 410.669 34.7095 409.131 34.7095ZM433.389 22.9321H428.599V20.0098H431.807C432.525 20.0098 433.096 19.9072 433.521 19.7021C433.96 19.4971 434.275 19.2114 434.466 18.8452C434.671 18.479 434.773 18.0542 434.773 17.5708C434.773 17.146 434.693 16.7432 434.532 16.3623C434.385 15.9814 434.107 15.6665 433.697 15.4175C433.287 15.1538 432.701 15.022 431.939 15.022C431.309 15.022 430.752 15.1172 430.269 15.3076C429.8 15.4834 429.427 15.7397 429.148 16.0767C428.885 16.4136 428.753 16.8384 428.753 17.3511H421.875C421.875 15.8276 422.308 14.5239 423.172 13.4399C424.036 12.356 425.201 11.5283 426.666 10.957C428.13 10.3711 429.749 10.0781 431.521 10.0781C433.06 10.0781 434.451 10.2319 435.696 10.5396C436.941 10.8325 438.003 11.272 438.882 11.8579C439.761 12.4438 440.435 13.1689 440.904 14.0332C441.387 14.8828 441.629 15.8716 441.629 16.9995C441.629 17.8052 441.438 18.5669 441.058 19.2847C440.677 20.0024 440.127 20.6396 439.41 21.1963C438.692 21.7383 437.82 22.1631 436.795 22.4707C435.784 22.7783 434.649 22.9321 433.389 22.9321ZM428.599 21.3501H433.389C434.795 21.3501 436.041 21.4893 437.125 21.7676C438.208 22.0312 439.117 22.4268 439.849 22.9541C440.582 23.4814 441.131 24.1333 441.497 24.9097C441.878 25.6714 442.068 26.5503 442.068 27.5464C442.068 28.6743 441.805 29.6851 441.277 30.5786C440.765 31.4575 440.04 32.2046 439.102 32.8198C438.165 33.4351 437.051 33.9038 435.762 34.2261C434.473 34.5483 433.06 34.7095 431.521 34.7095C429.881 34.7095 428.292 34.4458 426.753 33.9185C425.215 33.3911 423.956 32.5781 422.974 31.4795C421.993 30.3809 421.502 28.9673 421.502 27.2388H428.379C428.379 27.6929 428.504 28.1104 428.753 28.4912C429.017 28.8721 429.412 29.1797 429.939 29.4141C430.467 29.6484 431.141 29.7656 431.961 29.7656C432.767 29.7656 433.404 29.6338 433.873 29.3701C434.356 29.0918 434.7 28.7402 434.905 28.3154C435.11 27.8906 435.213 27.4512 435.213 26.9971C435.213 26.3232 435.081 25.7886 434.817 25.3931C434.568 24.9829 434.188 24.6826 433.675 24.4922C433.177 24.2871 432.554 24.1846 431.807 24.1846H428.599V21.3501ZM444.573 22.6245V22.1631C444.573 20.4199 444.822 18.8159 445.32 17.3511C445.818 15.8716 446.551 14.5898 447.518 13.5059C448.484 12.4219 449.671 11.5796 451.077 10.979C452.483 10.3638 454.095 10.0562 455.911 10.0562C457.757 10.0562 459.383 10.3638 460.789 10.979C462.21 11.5796 463.404 12.4219 464.371 13.5059C465.337 14.5898 466.07 15.8716 466.568 17.3511C467.066 18.8159 467.315 20.4199 467.315 22.1631V22.6245C467.315 24.353 467.066 25.957 466.568 27.4365C466.07 28.9014 465.337 30.1831 464.371 31.2817C463.404 32.3657 462.217 33.208 460.811 33.8086C459.405 34.4092 457.786 34.7095 455.955 34.7095C454.139 34.7095 452.52 34.4092 451.099 33.8086C449.678 33.208 448.484 32.3657 447.518 31.2817C446.551 30.1831 445.818 28.9014 445.32 27.4365C444.822 25.957 444.573 24.353 444.573 22.6245ZM451.451 22.1631V22.6245C451.451 23.562 451.524 24.4409 451.67 25.2612C451.832 26.0815 452.088 26.7993 452.439 27.4146C452.791 28.0298 453.252 28.5132 453.824 28.8647C454.41 29.2017 455.12 29.3701 455.955 29.3701C456.79 29.3701 457.493 29.2017 458.064 28.8647C458.636 28.5132 459.097 28.0298 459.449 27.4146C459.8 26.7993 460.049 26.0815 460.196 25.2612C460.357 24.4409 460.438 23.562 460.438 22.6245V22.1631C460.438 21.2402 460.357 20.376 460.196 19.5703C460.049 18.75 459.8 18.0249 459.449 17.395C459.097 16.7651 458.628 16.2744 458.042 15.9229C457.471 15.5713 456.761 15.3955 455.911 15.3955C455.091 15.3955 454.395 15.5713 453.824 15.9229C453.252 16.2744 452.791 16.7651 452.439 17.395C452.088 18.0249 451.832 18.75 451.67 19.5703C451.524 20.376 451.451 21.2402 451.451 22.1631ZM481.949 22.9321H477.159V20.0098H480.367C481.084 20.0098 481.656 19.9072 482.081 19.7021C482.52 19.4971 482.835 19.2114 483.025 18.8452C483.23 18.479 483.333 18.0542 483.333 17.5708C483.333 17.146 483.252 16.7432 483.091 16.3623C482.945 15.9814 482.667 15.6665 482.256 15.4175C481.846 15.1538 481.26 15.022 480.499 15.022C479.869 15.022 479.312 15.1172 478.829 15.3076C478.36 15.4834 477.986 15.7397 477.708 16.0767C477.444 16.4136 477.312 16.8384 477.312 17.3511H470.435C470.435 15.8276 470.867 14.5239 471.731 13.4399C472.596 12.356 473.76 11.5283 475.225 10.957C476.69 10.3711 478.309 10.0781 480.081 10.0781C481.619 10.0781 483.011 10.2319 484.256 10.5396C485.501 10.8325 486.563 11.272 487.442 11.8579C488.321 12.4438 488.995 13.1689 489.463 14.0332C489.947 14.8828 490.188 15.8716 490.188 16.9995C490.188 17.8052 489.998 18.5669 489.617 19.2847C489.236 20.0024 488.687 20.6396 487.969 21.1963C487.251 21.7383 486.38 22.1631 485.354 22.4707C484.344 22.7783 483.208 22.9321 481.949 22.9321ZM477.159 21.3501H481.949C483.355 21.3501 484.6 21.4893 485.684 21.7676C486.768 22.0312 487.676 22.4268 488.409 22.9541C489.141 23.4814 489.69 24.1333 490.057 24.9097C490.438 25.6714 490.628 26.5503 490.628 27.5464C490.628 28.6743 490.364 29.6851 489.837 30.5786C489.324 31.4575 488.599 32.2046 487.662 32.8198C486.724 33.4351 485.611 33.9038 484.322 34.2261C483.033 34.5483 481.619 34.7095 480.081 34.7095C478.44 34.7095 476.851 34.4458 475.313 33.9185C473.775 33.3911 472.515 32.5781 471.534 31.4795C470.552 30.3809 470.062 28.9673 470.062 27.2388H476.939C476.939 27.6929 477.063 28.1104 477.312 28.4912C477.576 28.8721 477.972 29.1797 478.499 29.4141C479.026 29.6484 479.7 29.7656 480.521 29.7656C481.326 29.7656 481.963 29.6338 482.432 29.3701C482.916 29.0918 483.26 28.7402 483.465 28.3154C483.67 27.8906 483.772 27.4512 483.772 26.9971C483.772 26.3232 483.641 25.7886 483.377 25.3931C483.128 24.9829 482.747 24.6826 482.234 24.4922C481.736 24.2871 481.114 24.1846 480.367 24.1846H477.159V21.3501ZM493.133 22.6245V22.1631C493.133 20.4199 493.382 18.8159 493.88 17.3511C494.378 15.8716 495.11 14.5898 496.077 13.5059C497.044 12.4219 498.23 11.5796 499.637 10.979C501.043 10.3638 502.654 10.0562 504.471 10.0562C506.316 10.0562 507.942 10.3638 509.349 10.979C510.77 11.5796 511.963 12.4219 512.93 13.5059C513.897 14.5898 514.629 15.8716 515.127 17.3511C515.625 18.8159 515.875 20.4199 515.875 22.1631V22.6245C515.875 24.353 515.625 25.957 515.127 27.4365C514.629 28.9014 513.897 30.1831 512.93 31.2817C511.963 32.3657 510.777 33.208 509.371 33.8086C507.964 34.4092 506.346 34.7095 504.515 34.7095C502.698 34.7095 501.08 34.4092 499.659 33.8086C498.238 33.208 497.044 32.3657 496.077 31.2817C495.11 30.1831 494.378 28.9014 493.88 27.4365C493.382 25.957 493.133 24.353 493.133 22.6245ZM500.01 22.1631V22.6245C500.01 23.562 500.083 24.4409 500.23 25.2612C500.391 26.0815 500.647 26.7993 500.999 27.4146C501.351 28.0298 501.812 28.5132 502.383 28.8647C502.969 29.2017 503.68 29.3701 504.515 29.3701C505.35 29.3701 506.053 29.2017 506.624 28.8647C507.195 28.5132 507.657 28.0298 508.008 27.4146C508.36 26.7993 508.609 26.0815 508.755 25.2612C508.917 24.4409 508.997 23.562 508.997 22.6245V22.1631C508.997 21.2402 508.917 20.376 508.755 19.5703C508.609 18.75 508.36 18.0249 508.008 17.395C507.657 16.7651 507.188 16.2744 506.602 15.9229C506.031 15.5713 505.32 15.3955 504.471 15.3955C503.65 15.3955 502.955 15.5713 502.383 15.9229C501.812 16.2744 501.351 16.7651 500.999 17.395C500.647 18.0249 500.391 18.75 500.23 19.5703C500.083 20.376 500.01 21.2402 500.01 22.1631ZM526.268 24.8657L533.541 10.4956H540.396V34.27H533.541V19.856L526.268 34.27H519.39V10.4956H526.268V24.8657ZM533.145 0.695801H537.935C537.935 1.98486 537.613 3.12744 536.968 4.12354C536.324 5.11963 535.408 5.896 534.222 6.45264C533.05 7.00928 531.658 7.2876 530.047 7.2876C527.63 7.2876 525.711 6.67969 524.29 5.46387C522.869 4.2334 522.159 2.64404 522.159 0.695801H526.927C526.927 1.44287 527.161 2.10938 527.63 2.69531C528.113 3.2666 528.919 3.55225 530.047 3.55225C531.189 3.55225 531.988 3.2666 532.442 2.69531C532.911 2.10938 533.145 1.44287 533.145 0.695801ZM554.766 29.3701C555.499 29.3701 556.136 29.231 556.678 28.9526C557.22 28.6743 557.637 28.2861 557.93 27.7881C558.238 27.2754 558.392 26.6602 558.392 25.9424H564.852C564.852 27.6709 564.405 29.1943 563.511 30.5127C562.632 31.8311 561.446 32.8638 559.952 33.6108C558.458 34.3433 556.773 34.7095 554.898 34.7095C553.052 34.7095 551.441 34.4092 550.064 33.8086C548.687 33.1934 547.537 32.3364 546.614 31.2378C545.691 30.1392 544.996 28.8647 544.527 27.4146C544.073 25.9497 543.846 24.3677 543.846 22.6685V22.0972C543.846 20.4126 544.073 18.8379 544.527 17.373C544.996 15.9082 545.691 14.6265 546.614 13.5278C547.537 12.4292 548.68 11.5796 550.042 10.979C551.419 10.3638 553.03 10.0562 554.876 10.0562C556.824 10.0562 558.545 10.4297 560.04 11.1768C561.548 11.9238 562.728 13.0005 563.577 14.4067C564.427 15.7983 564.852 17.4756 564.852 19.4385H558.392C558.392 18.6768 558.252 17.9956 557.974 17.395C557.71 16.7798 557.3 16.2964 556.744 15.9448C556.202 15.5786 555.528 15.3955 554.722 15.3955C553.887 15.3955 553.199 15.5786 552.657 15.9448C552.129 16.2964 551.727 16.7871 551.448 17.417C551.17 18.0469 550.979 18.7646 550.877 19.5703C550.774 20.3613 550.723 21.2036 550.723 22.0972V22.6685C550.723 23.5767 550.774 24.4409 550.877 25.2612C550.979 26.0669 551.17 26.7773 551.448 27.3926C551.741 28.0078 552.151 28.4912 552.679 28.8428C553.206 29.1943 553.902 29.3701 554.766 29.3701ZM575.574 10.4956V34.27H568.697V10.4956H575.574ZM590.999 10.4956L581.001 25.6567H574.52L573.729 19.2847H577.815L582.254 10.4956H590.999ZM582.474 34.27L577.31 24.4043L583.506 21.3281L591.724 34.27H582.474ZM606.424 28.6011V18.4058C606.424 17.688 606.314 17.0728 606.094 16.5601C605.875 16.0474 605.53 15.6445 605.062 15.3516C604.593 15.0586 603.985 14.9121 603.238 14.9121C602.608 14.9121 602.059 15.022 601.59 15.2417C601.136 15.4614 600.784 15.7764 600.535 16.1865C600.301 16.5967 600.184 17.1021 600.184 17.7026H593.328C593.328 16.6333 593.57 15.6372 594.053 14.7144C594.537 13.7915 595.225 12.9785 596.119 12.2754C597.027 11.5723 598.111 11.0303 599.371 10.6494C600.63 10.2539 602.044 10.0562 603.611 10.0562C605.472 10.0562 607.127 10.3711 608.577 11.001C610.042 11.6162 611.199 12.5464 612.049 13.7915C612.898 15.022 613.323 16.5747 613.323 18.4497V28.4033C613.323 29.8389 613.404 30.9668 613.565 31.7871C613.741 32.5928 613.99 33.2959 614.312 33.8965V34.27H607.391C607.068 33.5815 606.827 32.7319 606.666 31.7212C606.504 30.6958 606.424 29.6558 606.424 28.6011ZM607.281 19.7681L607.325 23.5474H603.919C603.157 23.5474 602.498 23.6426 601.941 23.833C601.399 24.0234 600.96 24.2871 600.623 24.624C600.286 24.9463 600.037 25.3271 599.876 25.7666C599.729 26.1914 599.656 26.6602 599.656 27.1729C599.656 27.6562 599.773 28.0957 600.008 28.4912C600.242 28.8721 600.564 29.1724 600.975 29.3921C601.385 29.6118 601.861 29.7217 602.403 29.7217C603.296 29.7217 604.058 29.5459 604.688 29.1943C605.333 28.8428 605.831 28.418 606.182 27.9199C606.534 27.4072 606.709 26.9312 606.709 26.4917L608.357 29.3481C608.094 29.9341 607.771 30.542 607.391 31.1719C607.01 31.7871 606.526 32.3657 605.94 32.9077C605.354 33.4351 604.644 33.8672 603.809 34.2041C602.989 34.541 602 34.7095 600.843 34.7095C599.349 34.7095 597.994 34.4092 596.778 33.8086C595.562 33.1934 594.588 32.3511 593.855 31.2817C593.138 30.2124 592.779 28.9819 592.779 27.5903C592.779 26.3452 593.006 25.2393 593.46 24.2725C593.914 23.3057 594.595 22.4854 595.503 21.8115C596.426 21.1377 597.583 20.6323 598.975 20.2954C600.367 19.9438 601.993 19.7681 603.853 19.7681H607.281ZM623.057 22.2949H629.957L623.409 34.27H616.509L623.057 22.2949ZM627.496 10.4956H638.064V34.27H631.209V15.791H627.496C626.719 15.791 626.06 15.9375 625.518 16.2305C624.991 16.5234 624.595 16.9043 624.332 17.373C624.068 17.8271 623.936 18.2886 623.936 18.7573C623.936 19.2261 624.068 19.6802 624.332 20.1196C624.595 20.5591 624.991 20.9253 625.518 21.2183C626.045 21.4966 626.697 21.6357 627.474 21.6357H633.868V26.1841H627.474C625.877 26.1841 624.434 25.9937 623.145 25.6128C621.871 25.2319 620.779 24.6973 619.871 24.0088C618.963 23.3203 618.267 22.5146 617.784 21.5918C617.315 20.6543 617.081 19.6362 617.081 18.5376C617.081 17.3804 617.322 16.311 617.806 15.3296C618.289 14.3481 618.978 13.4985 619.871 12.7808C620.779 12.0483 621.878 11.4844 623.167 11.0889C624.456 10.6934 625.899 10.4956 627.496 10.4956ZM663.069 15.3955C662.337 15.3955 661.714 15.5347 661.202 15.813C660.704 16.0913 660.323 16.4868 660.059 16.9995C659.81 17.4976 659.686 18.0981 659.686 18.8013H653.248C653.248 17.0728 653.672 15.5566 654.522 14.2529C655.386 12.9346 656.558 11.9092 658.038 11.1768C659.532 10.4297 661.209 10.0562 663.069 10.0562C664.9 10.0562 666.512 10.3638 667.903 10.979C669.295 11.5796 670.459 12.4292 671.397 13.5278C672.334 14.6265 673.038 15.9082 673.506 17.373C673.99 18.8379 674.231 20.4126 674.231 22.0972V22.6685C674.231 24.3677 673.99 25.9497 673.506 27.4146C673.038 28.8647 672.334 30.1392 671.397 31.2378C670.474 32.3364 669.317 33.1934 667.925 33.8086C666.534 34.4092 664.93 34.7095 663.113 34.7095C661.165 34.7095 659.444 34.3359 657.95 33.5889C656.47 32.8418 655.313 31.7725 654.478 30.3809C653.658 28.9746 653.248 27.29 653.248 25.3271H659.686C659.686 26.0889 659.81 26.7773 660.059 27.3926C660.323 28.0078 660.704 28.4985 661.202 28.8647C661.714 29.2163 662.352 29.3921 663.113 29.3921C663.948 29.3921 664.637 29.209 665.179 28.8428C665.735 28.4766 666.167 27.9858 666.475 27.3706C666.783 26.7407 667.002 26.0229 667.134 25.2173C667.266 24.397 667.332 23.5474 667.332 22.6685V22.0972C667.332 21.2036 667.266 20.354 667.134 19.5483C667.017 18.728 666.797 18.0103 666.475 17.395C666.167 16.7651 665.735 16.2744 665.179 15.9229C664.622 15.5713 663.919 15.3955 663.069 15.3955ZM669.397 20.3613V24.2725H661.443V20.3613H669.397ZM684.383 15.0659V43.4106H677.527V10.4956H683.921L684.383 15.0659ZM699.214 22.1191V22.5806C699.214 24.3091 699.017 25.9131 698.621 27.3926C698.226 28.8574 697.632 30.1392 696.841 31.2378C696.065 32.3364 695.105 33.1934 693.963 33.8086C692.82 34.4092 691.495 34.7095 689.986 34.7095C688.55 34.7095 687.305 34.4092 686.25 33.8086C685.21 33.1934 684.332 32.3438 683.614 31.2598C682.911 30.1611 682.339 28.9087 681.9 27.5024C681.475 26.0815 681.146 24.5654 680.911 22.9541V22.0532C681.146 20.3394 681.482 18.75 681.922 17.2852C682.361 15.8203 682.933 14.5532 683.636 13.4839C684.339 12.3999 685.21 11.5576 686.25 10.957C687.291 10.3564 688.528 10.0562 689.964 10.0562C691.458 10.0562 692.784 10.3418 693.941 10.9131C695.098 11.4844 696.065 12.3047 696.841 13.374C697.632 14.4287 698.226 15.6958 698.621 17.1753C699.017 18.6548 699.214 20.3027 699.214 22.1191ZM692.337 22.5806V22.1191C692.337 21.1523 692.264 20.2661 692.117 19.4604C691.971 18.6401 691.736 17.9297 691.414 17.3291C691.092 16.7139 690.667 16.2378 690.14 15.9009C689.612 15.564 688.968 15.3955 688.206 15.3955C687.386 15.3955 686.69 15.5273 686.119 15.791C685.547 16.0547 685.086 16.4429 684.734 16.9556C684.383 17.4536 684.126 18.0688 683.965 18.8013C683.819 19.5337 683.738 20.3687 683.724 21.3062V23.7231C683.738 24.8218 683.892 25.8032 684.185 26.6675C684.493 27.5171 684.969 28.1836 685.613 28.667C686.272 29.1357 687.151 29.3701 688.25 29.3701C689.026 29.3701 689.671 29.2017 690.184 28.8647C690.711 28.5132 691.128 28.0225 691.436 27.3926C691.758 26.7627 691.985 26.0376 692.117 25.2173C692.264 24.397 692.337 23.5181 692.337 22.5806ZM715.452 28.6011V18.4058C715.452 17.688 715.342 17.0728 715.123 16.5601C714.903 16.0474 714.559 15.6445 714.09 15.3516C713.621 15.0586 713.013 14.9121 712.266 14.9121C711.636 14.9121 711.087 15.022 710.618 15.2417C710.164 15.4614 709.812 15.7764 709.563 16.1865C709.329 16.5967 709.212 17.1021 709.212 17.7026H702.356C702.356 16.6333 702.598 15.6372 703.082 14.7144C703.565 13.7915 704.253 12.9785 705.147 12.2754C706.055 11.5723 707.139 11.0303 708.399 10.6494C709.659 10.2539 711.072 10.0562 712.64 10.0562C714.5 10.0562 716.155 10.3711 717.605 11.001C719.07 11.6162 720.228 12.5464 721.077 13.7915C721.927 15.022 722.352 16.5747 722.352 18.4497V28.4033C722.352 29.8389 722.432 30.9668 722.593 31.7871C722.769 32.5928 723.018 33.2959 723.34 33.8965V34.27H716.419C716.097 33.5815 715.855 32.7319 715.694 31.7212C715.533 30.6958 715.452 29.6558 715.452 28.6011ZM716.309 19.7681L716.353 23.5474H712.947C712.186 23.5474 711.526 23.6426 710.97 23.833C710.428 24.0234 709.988 24.2871 709.651 24.624C709.314 24.9463 709.065 25.3271 708.904 25.7666C708.758 26.1914 708.685 26.6602 708.685 27.1729C708.685 27.6562 708.802 28.0957 709.036 28.4912C709.271 28.8721 709.593 29.1724 710.003 29.3921C710.413 29.6118 710.889 29.7217 711.431 29.7217C712.325 29.7217 713.086 29.5459 713.716 29.1943C714.361 28.8428 714.859 28.418 715.21 27.9199C715.562 27.4072 715.738 26.9312 715.738 26.4917L717.386 29.3481C717.122 29.9341 716.8 30.542 716.419 31.1719C716.038 31.7871 715.555 32.3657 714.969 32.9077C714.383 33.4351 713.672 33.8672 712.837 34.2041C712.017 34.541 711.028 34.7095 709.871 34.7095C708.377 34.7095 707.022 34.4092 705.806 33.8086C704.59 33.1934 703.616 32.3511 702.884 31.2817C702.166 30.2124 701.807 28.9819 701.807 27.5903C701.807 26.3452 702.034 25.2393 702.488 24.2725C702.942 23.3057 703.624 22.4854 704.532 21.8115C705.455 21.1377 706.612 20.6323 708.003 20.2954C709.395 19.9438 711.021 19.7681 712.881 19.7681H716.309ZM734.568 2.27783L733.733 24.3164H728.086L727.251 2.27783H734.568ZM727.054 31.1499C727.054 30.1685 727.405 29.3408 728.108 28.667C728.812 27.9932 729.742 27.6562 730.899 27.6562C732.042 27.6562 732.957 27.9932 733.646 28.667C734.349 29.3408 734.7 30.1685 734.7 31.1499C734.7 32.146 734.349 32.981 733.646 33.6548C732.957 34.314 732.042 34.6436 730.899 34.6436C729.742 34.6436 728.812 34.314 728.108 33.6548C727.405 32.981 727.054 32.146 727.054 31.1499Z" fill="white"/>
</svg>
