<svg width="478" height="45" viewBox="0 0 478 45" fill="none" xmlns="http://www.w3.org/2000/svg">
<path d="M26.6943 3.00781V35H19.5312V8.56689H7.3584V35H0.217285V3.00781H26.6943ZM30.6494 23.3545V22.8931C30.6494 21.1499 30.8984 19.5459 31.3965 18.0811C31.8945 16.6016 32.627 15.3198 33.5938 14.2358C34.5605 13.1519 35.7471 12.3096 37.1533 11.709C38.5596 11.0938 40.1709 10.7861 41.9873 10.7861C43.833 10.7861 45.459 11.0938 46.8652 11.709C48.2861 12.3096 49.48 13.1519 50.4468 14.2358C51.4136 15.3198 52.146 16.6016 52.644 18.0811C53.1421 19.5459 53.3911 21.1499 53.3911 22.8931V23.3545C53.3911 25.083 53.1421 26.687 52.644 28.1665C52.146 29.6313 51.4136 30.9131 50.4468 32.0117C49.48 33.0957 48.2935 33.938 46.8872 34.5386C45.481 35.1392 43.8623 35.4395 42.0312 35.4395C40.2148 35.4395 38.5962 35.1392 37.1753 34.5386C35.7544 33.938 34.5605 33.0957 33.5938 32.0117C32.627 30.9131 31.8945 29.6313 31.3965 28.1665C30.8984 26.687 30.6494 25.083 30.6494 23.3545ZM37.5269 22.8931V23.3545C37.5269 24.292 37.6001 25.1709 37.7466 25.9912C37.9077 26.8115 38.1641 27.5293 38.5156 28.1445C38.8672 28.7598 39.3286 29.2432 39.8999 29.5947C40.4858 29.9316 41.1963 30.1001 42.0312 30.1001C42.8662 30.1001 43.5693 29.9316 44.1406 29.5947C44.7119 29.2432 45.1733 28.7598 45.5249 28.1445C45.8765 27.5293 46.1255 26.8115 46.272 25.9912C46.4331 25.1709 46.5137 24.292 46.5137 23.3545V22.8931C46.5137 21.9702 46.4331 21.106 46.272 20.3003C46.1255 19.48 45.8765 18.7549 45.5249 18.125C45.1733 17.4951 44.7046 17.0044 44.1187 16.6528C43.5474 16.3013 42.8369 16.1255 41.9873 16.1255C41.167 16.1255 40.4712 16.3013 39.8999 16.6528C39.3286 17.0044 38.8672 17.4951 38.5156 18.125C38.1641 18.7549 37.9077 19.48 37.7466 20.3003C37.6001 21.106 37.5269 21.9702 37.5269 22.8931ZM59.7192 11.2256H66.5747L66.4429 18.938C66.3843 21.5601 66.0767 23.8159 65.52 25.7056C64.978 27.5806 64.2383 29.1479 63.3008 30.4077C62.3779 31.6675 61.3159 32.6636 60.1147 33.396C58.9282 34.1284 57.6758 34.6631 56.3574 35H55.3687L55.2588 29.7485L55.8521 29.6606C56.6724 28.8403 57.3242 28.0493 57.8076 27.2876C58.291 26.5112 58.6499 25.7202 58.8843 24.9146C59.1333 24.0942 59.3018 23.2007 59.3896 22.2339C59.4775 21.2671 59.5361 20.1685 59.5654 18.938L59.7192 11.2256ZM61.6089 11.2256H77.7148V35H70.8594V16.6309H61.6089V11.2256ZM53.7866 29.6606H81.1865V42.1851H74.3091V35H60.8179V42.1851H53.7866V29.6606ZM83.1201 23.3545V22.8931C83.1201 21.1499 83.3691 19.5459 83.8672 18.0811C84.3652 16.6016 85.0977 15.3198 86.0645 14.2358C87.0312 13.1519 88.2178 12.3096 89.624 11.709C91.0303 11.0938 92.6416 10.7861 94.458 10.7861C96.3037 10.7861 97.9297 11.0938 99.3359 11.709C100.757 12.3096 101.951 13.1519 102.917 14.2358C103.884 15.3198 104.617 16.6016 105.115 18.0811C105.613 19.5459 105.862 21.1499 105.862 22.8931V23.3545C105.862 25.083 105.613 26.687 105.115 28.1665C104.617 29.6313 103.884 30.9131 102.917 32.0117C101.951 33.0957 100.764 33.938 99.3579 34.5386C97.9517 35.1392 96.333 35.4395 94.502 35.4395C92.6855 35.4395 91.0669 35.1392 89.646 34.5386C88.2251 33.938 87.0312 33.0957 86.0645 32.0117C85.0977 30.9131 84.3652 29.6313 83.8672 28.1665C83.3691 26.687 83.1201 25.083 83.1201 23.3545ZM89.9976 22.8931V23.3545C89.9976 24.292 90.0708 25.1709 90.2173 25.9912C90.3784 26.8115 90.6348 27.5293 90.9863 28.1445C91.3379 28.7598 91.7993 29.2432 92.3706 29.5947C92.9565 29.9316 93.667 30.1001 94.502 30.1001C95.3369 30.1001 96.04 29.9316 96.6113 29.5947C97.1826 29.2432 97.644 28.7598 97.9956 28.1445C98.3472 27.5293 98.5962 26.8115 98.7427 25.9912C98.9038 25.1709 98.9844 24.292 98.9844 23.3545V22.8931C98.9844 21.9702 98.9038 21.106 98.7427 20.3003C98.5962 19.48 98.3472 18.7549 97.9956 18.125C97.644 17.4951 97.1753 17.0044 96.5894 16.6528C96.0181 16.3013 95.3076 16.1255 94.458 16.1255C93.6377 16.1255 92.9419 16.3013 92.3706 16.6528C91.7993 17.0044 91.3379 17.4951 90.9863 18.125C90.6348 18.7549 90.3784 19.48 90.2173 20.3003C90.0708 21.106 89.9976 21.9702 89.9976 22.8931ZM123.901 0.744629H129.438C129.438 1.85791 129.307 2.83936 129.043 3.68896C128.794 4.52393 128.354 5.26367 127.725 5.9082C127.109 6.53809 126.238 7.08008 125.11 7.53418C123.997 7.97363 122.576 8.35449 120.847 8.67676C119.631 8.91113 118.591 9.31396 117.727 9.88525C116.877 10.4565 116.182 11.2329 115.64 12.2144C115.098 13.1958 114.717 14.4263 114.497 15.9058C114.277 17.3706 114.197 19.1211 114.255 21.1572V21.9702L108.96 22.8271V21.9922C108.975 19.0918 109.231 16.5649 109.729 14.4116C110.242 12.2583 110.959 10.4419 111.882 8.9624C112.82 7.48291 113.948 6.30371 115.266 5.4248C116.584 4.5459 118.057 3.93066 119.683 3.5791C120.737 3.34473 121.572 3.11768 122.188 2.89795C122.817 2.66357 123.257 2.38525 123.506 2.06299C123.77 1.72607 123.901 1.28662 123.901 0.744629ZM121.594 12.5439C123.22 12.5439 124.656 12.8223 125.901 13.3789C127.161 13.9355 128.215 14.7192 129.065 15.73C129.915 16.7261 130.559 17.9053 130.999 19.2676C131.438 20.6299 131.658 22.1094 131.658 23.7061V24.1675C131.658 25.7935 131.409 27.2949 130.911 28.6719C130.427 30.0488 129.702 31.2427 128.735 32.2534C127.783 33.2642 126.604 34.0552 125.198 34.6265C123.792 35.1831 122.173 35.4614 120.342 35.4614C118.511 35.4614 116.885 35.1538 115.464 34.5386C114.058 33.9233 112.871 33.0591 111.904 31.9458C110.938 30.8325 110.205 29.5215 109.707 28.0127C109.209 26.5039 108.96 24.856 108.96 23.0688V22.6074C108.945 22.373 109.062 22.1533 109.312 21.9482C109.561 21.7285 109.854 21.4722 110.19 21.1792C110.542 20.8716 110.857 20.4761 111.135 19.9927C112.102 18.2935 113.113 16.9019 114.167 15.8179C115.222 14.7192 116.357 13.8989 117.573 13.3569C118.804 12.8149 120.144 12.5439 121.594 12.5439ZM120.298 17.8833C119.185 17.8833 118.298 18.1543 117.639 18.6963C116.995 19.2236 116.533 19.9268 116.255 20.8057C115.977 21.6846 115.837 22.6514 115.837 23.7061V24.1675C115.837 25.0024 115.911 25.7788 116.057 26.4966C116.218 27.2144 116.467 27.8516 116.804 28.4082C117.156 28.9502 117.617 29.375 118.188 29.6826C118.774 29.9756 119.492 30.1221 120.342 30.1221C121.177 30.1221 121.88 29.9756 122.451 29.6826C123.022 29.375 123.477 28.9502 123.813 28.4082C124.165 27.8516 124.414 27.2144 124.561 26.4966C124.722 25.7788 124.802 25.0024 124.802 24.1675V23.7061C124.802 22.915 124.722 22.168 124.561 21.4648C124.414 20.7617 124.165 20.1465 123.813 19.6191C123.477 19.0771 123.015 18.6523 122.429 18.3447C121.843 18.0371 121.133 17.8833 120.298 17.8833ZM141.787 15.7959V44.1406H134.932V11.2256H141.326L141.787 15.7959ZM156.619 22.8491V23.3105C156.619 25.0391 156.421 26.6431 156.025 28.1226C155.63 29.5874 155.037 30.8691 154.246 31.9678C153.469 33.0664 152.51 33.9233 151.367 34.5386C150.225 35.1392 148.899 35.4395 147.39 35.4395C145.955 35.4395 144.709 35.1392 143.655 34.5386C142.615 33.9233 141.736 33.0737 141.018 31.9897C140.315 30.8911 139.744 29.6387 139.304 28.2324C138.879 26.8115 138.55 25.2954 138.315 23.6841V22.7832C138.55 21.0693 138.887 19.48 139.326 18.0151C139.766 16.5503 140.337 15.2832 141.04 14.2139C141.743 13.1299 142.615 12.2876 143.655 11.687C144.695 11.0864 145.933 10.7861 147.368 10.7861C148.862 10.7861 150.188 11.0718 151.345 11.6431C152.502 12.2144 153.469 13.0347 154.246 14.104C155.037 15.1587 155.63 16.4258 156.025 17.9053C156.421 19.3848 156.619 21.0327 156.619 22.8491ZM149.741 23.3105V22.8491C149.741 21.8823 149.668 20.9961 149.521 20.1904C149.375 19.3701 149.141 18.6597 148.818 18.0591C148.496 17.4438 148.071 16.9678 147.544 16.6309C147.017 16.2939 146.372 16.1255 145.61 16.1255C144.79 16.1255 144.094 16.2573 143.523 16.521C142.952 16.7847 142.49 17.1729 142.139 17.6855C141.787 18.1836 141.531 18.7988 141.37 19.5312C141.223 20.2637 141.143 21.0986 141.128 22.0361V24.4531C141.143 25.5518 141.296 26.5332 141.589 27.3975C141.897 28.2471 142.373 28.9136 143.018 29.397C143.677 29.8657 144.556 30.1001 145.654 30.1001C146.431 30.1001 147.075 29.9316 147.588 29.5947C148.115 29.2432 148.533 28.7524 148.84 28.1226C149.163 27.4927 149.39 26.7676 149.521 25.9473C149.668 25.127 149.741 24.248 149.741 23.3105ZM172.856 29.3311V19.1357C172.856 18.418 172.747 17.8027 172.527 17.29C172.307 16.7773 171.963 16.3745 171.494 16.0815C171.025 15.7886 170.417 15.6421 169.67 15.6421C169.041 15.6421 168.491 15.752 168.022 15.9717C167.568 16.1914 167.217 16.5063 166.968 16.9165C166.733 17.3267 166.616 17.832 166.616 18.4326H159.761C159.761 17.3633 160.002 16.3672 160.486 15.4443C160.969 14.5215 161.658 13.7085 162.551 13.0054C163.459 12.3022 164.543 11.7603 165.803 11.3794C167.063 10.9839 168.477 10.7861 170.044 10.7861C171.904 10.7861 173.56 11.1011 175.01 11.731C176.475 12.3462 177.632 13.2764 178.481 14.5215C179.331 15.752 179.756 17.3047 179.756 19.1797V29.1333C179.756 30.5688 179.836 31.6968 179.998 32.5171C180.173 33.3228 180.422 34.0259 180.745 34.6265V35H173.823C173.501 34.3115 173.259 33.4619 173.098 32.4512C172.937 31.4258 172.856 30.3857 172.856 29.3311ZM173.713 20.498L173.757 24.2773H170.352C169.59 24.2773 168.931 24.3726 168.374 24.563C167.832 24.7534 167.393 25.0171 167.056 25.354C166.719 25.6763 166.47 26.0571 166.309 26.4966C166.162 26.9214 166.089 27.3901 166.089 27.9028C166.089 28.3862 166.206 28.8257 166.44 29.2212C166.675 29.6021 166.997 29.9023 167.407 30.1221C167.817 30.3418 168.293 30.4517 168.835 30.4517C169.729 30.4517 170.491 30.2759 171.121 29.9243C171.765 29.5728 172.263 29.1479 172.615 28.6499C172.966 28.1372 173.142 27.6611 173.142 27.2217L174.79 30.0781C174.526 30.6641 174.204 31.272 173.823 31.9019C173.442 32.5171 172.959 33.0957 172.373 33.6377C171.787 34.165 171.077 34.5972 170.242 34.9341C169.421 35.271 168.433 35.4395 167.275 35.4395C165.781 35.4395 164.426 35.1392 163.21 34.5386C161.995 33.9233 161.021 33.0811 160.288 32.0117C159.57 30.9424 159.211 29.7119 159.211 28.3203C159.211 27.0752 159.438 25.9692 159.893 25.0024C160.347 24.0356 161.028 23.2153 161.936 22.5415C162.859 21.8677 164.016 21.3623 165.408 21.0254C166.799 20.6738 168.425 20.498 170.286 20.498H173.713ZM196.609 11.2256V35H189.709V11.2256H196.609ZM204.189 11.2256V16.521H182.261V11.2256H204.189ZM211.858 18.0151H218.669C220.896 18.0151 222.8 18.374 224.382 19.0918C225.964 19.8096 227.18 20.813 228.03 22.1021C228.879 23.3911 229.304 24.8853 229.304 26.5845C229.304 27.8003 229.062 28.9282 228.579 29.9683C228.11 30.9937 227.415 31.8799 226.492 32.627C225.583 33.374 224.47 33.96 223.152 34.3848C221.833 34.7949 220.339 35 218.669 35H207.639V11.2256H214.539V29.7046H218.669C219.578 29.7046 220.303 29.5654 220.845 29.2871C221.401 28.9941 221.804 28.606 222.053 28.1226C222.317 27.6392 222.449 27.1191 222.449 26.5625C222.449 25.9619 222.317 25.4199 222.053 24.9365C221.804 24.4385 221.401 24.0503 220.845 23.772C220.303 23.479 219.578 23.3325 218.669 23.3325H211.858V18.0151ZM259.758 11.2256V16.5649H248.398V11.2256H259.758ZM250.486 11.2256V35H243.63V11.2256H250.486ZM264.636 11.2256V35H257.759V11.2256H264.636ZM275.952 15.7959V44.1406H269.097V11.2256H275.491L275.952 15.7959ZM290.784 22.8491V23.3105C290.784 25.0391 290.586 26.6431 290.19 28.1226C289.795 29.5874 289.202 30.8691 288.411 31.9678C287.634 33.0664 286.675 33.9233 285.532 34.5386C284.39 35.1392 283.064 35.4395 281.555 35.4395C280.12 35.4395 278.875 35.1392 277.82 34.5386C276.78 33.9233 275.901 33.0737 275.183 31.9897C274.48 30.8911 273.909 29.6387 273.469 28.2324C273.044 26.8115 272.715 25.2954 272.48 23.6841V22.7832C272.715 21.0693 273.052 19.48 273.491 18.0151C273.931 16.5503 274.502 15.2832 275.205 14.2139C275.908 13.1299 276.78 12.2876 277.82 11.687C278.86 11.0864 280.098 10.7861 281.533 10.7861C283.027 10.7861 284.353 11.0718 285.51 11.6431C286.667 12.2144 287.634 13.0347 288.411 14.104C289.202 15.1587 289.795 16.4258 290.19 17.9053C290.586 19.3848 290.784 21.0327 290.784 22.8491ZM283.906 23.3105V22.8491C283.906 21.8823 283.833 20.9961 283.687 20.1904C283.54 19.3701 283.306 18.6597 282.983 18.0591C282.661 17.4438 282.236 16.9678 281.709 16.6309C281.182 16.2939 280.537 16.1255 279.775 16.1255C278.955 16.1255 278.259 16.2573 277.688 16.521C277.117 16.7847 276.655 17.1729 276.304 17.6855C275.952 18.1836 275.696 18.7988 275.535 19.5312C275.388 20.2637 275.308 21.0986 275.293 22.0361V24.4531C275.308 25.5518 275.461 26.5332 275.754 27.3975C276.062 28.2471 276.538 28.9136 277.183 29.397C277.842 29.8657 278.721 30.1001 279.819 30.1001C280.596 30.1001 281.24 29.9316 281.753 29.5947C282.28 29.2432 282.698 28.7524 283.005 28.1226C283.328 27.4927 283.555 26.7676 283.687 25.9473C283.833 25.127 283.906 24.248 283.906 23.3105ZM293.442 23.3545V22.8931C293.442 21.1499 293.691 19.5459 294.189 18.0811C294.688 16.6016 295.42 15.3198 296.387 14.2358C297.354 13.1519 298.54 12.3096 299.946 11.709C301.353 11.0938 302.964 10.7861 304.78 10.7861C306.626 10.7861 308.252 11.0938 309.658 11.709C311.079 12.3096 312.273 13.1519 313.24 14.2358C314.207 15.3198 314.939 16.6016 315.437 18.0811C315.935 19.5459 316.184 21.1499 316.184 22.8931V23.3545C316.184 25.083 315.935 26.687 315.437 28.1665C314.939 29.6313 314.207 30.9131 313.24 32.0117C312.273 33.0957 311.086 33.938 309.68 34.5386C308.274 35.1392 306.655 35.4395 304.824 35.4395C303.008 35.4395 301.389 35.1392 299.968 34.5386C298.547 33.938 297.354 33.0957 296.387 32.0117C295.42 30.9131 294.688 29.6313 294.189 28.1665C293.691 26.687 293.442 25.083 293.442 23.3545ZM300.32 22.8931V23.3545C300.32 24.292 300.393 25.1709 300.54 25.9912C300.701 26.8115 300.957 27.5293 301.309 28.1445C301.66 28.7598 302.122 29.2432 302.693 29.5947C303.279 29.9316 303.989 30.1001 304.824 30.1001C305.659 30.1001 306.362 29.9316 306.934 29.5947C307.505 29.2432 307.966 28.7598 308.318 28.1445C308.669 27.5293 308.918 26.8115 309.065 25.9912C309.226 25.1709 309.307 24.292 309.307 23.3545V22.8931C309.307 21.9702 309.226 21.106 309.065 20.3003C308.918 19.48 308.669 18.7549 308.318 18.125C307.966 17.4951 307.498 17.0044 306.912 16.6528C306.34 16.3013 305.63 16.1255 304.78 16.1255C303.96 16.1255 303.264 16.3013 302.693 16.6528C302.122 17.0044 301.66 17.4951 301.309 18.125C300.957 18.7549 300.701 19.48 300.54 20.3003C300.393 21.106 300.32 21.9702 300.32 22.8931ZM336.179 11.2256V16.5649H326.555V35H319.7V11.2256H336.179ZM345.518 15.7959V44.1406H338.662V11.2256H345.056L345.518 15.7959ZM360.349 22.8491V23.3105C360.349 25.0391 360.151 26.6431 359.756 28.1226C359.36 29.5874 358.767 30.8691 357.976 31.9678C357.2 33.0664 356.24 33.9233 355.098 34.5386C353.955 35.1392 352.629 35.4395 351.121 35.4395C349.685 35.4395 348.44 35.1392 347.385 34.5386C346.345 33.9233 345.466 33.0737 344.749 31.9897C344.045 30.8911 343.474 29.6387 343.035 28.2324C342.61 26.8115 342.28 25.2954 342.046 23.6841V22.7832C342.28 21.0693 342.617 19.48 343.057 18.0151C343.496 16.5503 344.067 15.2832 344.771 14.2139C345.474 13.1299 346.345 12.2876 347.385 11.687C348.425 11.0864 349.663 10.7861 351.099 10.7861C352.593 10.7861 353.918 11.0718 355.076 11.6431C356.233 12.2144 357.2 13.0347 357.976 14.104C358.767 15.1587 359.36 16.4258 359.756 17.9053C360.151 19.3848 360.349 21.0327 360.349 22.8491ZM353.472 23.3105V22.8491C353.472 21.8823 353.398 20.9961 353.252 20.1904C353.105 19.3701 352.871 18.6597 352.549 18.0591C352.227 17.4438 351.802 16.9678 351.274 16.6309C350.747 16.2939 350.103 16.1255 349.341 16.1255C348.521 16.1255 347.825 16.2573 347.253 16.521C346.682 16.7847 346.221 17.1729 345.869 17.6855C345.518 18.1836 345.261 18.7988 345.1 19.5312C344.954 20.2637 344.873 21.0986 344.858 22.0361V24.4531C344.873 25.5518 345.027 26.5332 345.32 27.3975C345.627 28.2471 346.104 28.9136 346.748 29.397C347.407 29.8657 348.286 30.1001 349.385 30.1001C350.161 30.1001 350.806 29.9316 351.318 29.5947C351.846 29.2432 352.263 28.7524 352.571 28.1226C352.893 27.4927 353.12 26.7676 353.252 25.9473C353.398 25.127 353.472 24.248 353.472 23.3105ZM376.587 29.3311V19.1357C376.587 18.418 376.477 17.8027 376.257 17.29C376.038 16.7773 375.693 16.3745 375.225 16.0815C374.756 15.7886 374.148 15.6421 373.401 15.6421C372.771 15.6421 372.222 15.752 371.753 15.9717C371.299 16.1914 370.947 16.5063 370.698 16.9165C370.464 17.3267 370.347 17.832 370.347 18.4326H363.491C363.491 17.3633 363.733 16.3672 364.216 15.4443C364.7 14.5215 365.388 13.7085 366.282 13.0054C367.19 12.3022 368.274 11.7603 369.534 11.3794C370.793 10.9839 372.207 10.7861 373.774 10.7861C375.635 10.7861 377.29 11.1011 378.74 11.731C380.205 12.3462 381.362 13.2764 382.212 14.5215C383.062 15.752 383.486 17.3047 383.486 19.1797V29.1333C383.486 30.5688 383.567 31.6968 383.728 32.5171C383.904 33.3228 384.153 34.0259 384.475 34.6265V35H377.554C377.231 34.3115 376.99 33.4619 376.829 32.4512C376.667 31.4258 376.587 30.3857 376.587 29.3311ZM377.444 20.498L377.488 24.2773H374.082C373.32 24.2773 372.661 24.3726 372.104 24.563C371.562 24.7534 371.123 25.0171 370.786 25.354C370.449 25.6763 370.2 26.0571 370.039 26.4966C369.893 26.9214 369.819 27.3901 369.819 27.9028C369.819 28.3862 369.937 28.8257 370.171 29.2212C370.405 29.6021 370.728 29.9023 371.138 30.1221C371.548 30.3418 372.024 30.4517 372.566 30.4517C373.459 30.4517 374.221 30.2759 374.851 29.9243C375.496 29.5728 375.994 29.1479 376.345 28.6499C376.697 28.1372 376.873 27.6611 376.873 27.2217L378.521 30.0781C378.257 30.6641 377.935 31.272 377.554 31.9019C377.173 32.5171 376.689 33.0957 376.104 33.6377C375.518 34.165 374.807 34.5972 373.972 34.9341C373.152 35.271 372.163 35.4395 371.006 35.4395C369.512 35.4395 368.157 35.1392 366.941 34.5386C365.725 33.9233 364.751 33.0811 364.019 32.0117C363.301 30.9424 362.942 29.7119 362.942 28.3203C362.942 27.0752 363.169 25.9692 363.623 25.0024C364.077 24.0356 364.758 23.2153 365.667 22.5415C366.589 21.8677 367.747 21.3623 369.138 21.0254C370.53 20.6738 372.156 20.498 374.016 20.498H377.444ZM402.646 27.2656L408.469 11.2256H413.918L404.954 35H400.361L391.44 11.2256H396.89L402.646 27.2656ZM395.308 11.2256V35H388.43V11.2256H395.308ZM410.227 35V11.2256H417.083V35H410.227ZM437.012 27.2656L442.834 11.2256H448.284L439.319 35H434.727L425.806 11.2256H431.255L437.012 27.2656ZM429.673 11.2256V35H422.795V11.2256H429.673ZM444.592 35V11.2256H451.448V35H444.592ZM463.884 32.2534L470.103 11.2256H477.485L467.927 38.5596C467.722 39.1602 467.444 39.8047 467.092 40.4932C466.755 41.1816 466.294 41.8408 465.708 42.4707C465.137 43.1006 464.404 43.6133 463.511 44.0088C462.617 44.4043 461.519 44.6021 460.215 44.6021C459.556 44.6021 459.043 44.5654 458.677 44.4922C458.325 44.4336 457.856 44.3311 457.271 44.1846L457.249 39.1968C457.439 39.1968 457.607 39.1968 457.754 39.1968C457.915 39.2114 458.076 39.2188 458.237 39.2188C459.058 39.2188 459.717 39.1309 460.215 38.9551C460.728 38.7793 461.123 38.5156 461.401 38.1641C461.694 37.8271 461.929 37.395 462.104 36.8677L463.884 32.2534ZM461.797 11.2256L466.719 28.1445L467.554 35.4175L462.917 35.6592L454.414 11.2256H461.797Z" fill="#212121"/>
</svg>
